<svg xmlns="http://www.w3.org/2000/svg" viewBox="0 0 500 500"><g id="freepik--Table--inject-346"><path d="M463.47,480.45c0,.15-95.58.26-213.46.26s-213.48-.11-213.48-.26,95.56-.26,213.48-.26S463.47,480.31,463.47,480.45Z" style="fill:#263238"></path></g><g id="freepik--Character--inject-346"><path d="M167.79,89a13.85,13.85,0,0,0-11.74,10.17,10.21,10.21,0,0,1-1.3,3.8c-1.06,1.38-2.9,1.81-4.48,2.53a11.61,11.61,0,0,0-6.5,11.5c-3.32.93-6.84,2-9.15,4.53s-2.7,7.17.13,9.15c-5.13,3.7-5.4,12.43-.5,16.44a17.25,17.25,0,0,0-9,17.12c-3.17,1-6.58,2.11-8.47,4.83s-1,7.45,2.2,8.08a8.3,8.3,0,0,0,2.18,10.66c-3.78,1.91-4.55,7.9-1.37,10.71s9,1.28,10.45-2.71a11.86,11.86,0,0,0,7.65,8.39,13.43,13.43,0,0,0,2.35,14.92,6.64,6.64,0,1,0,4.58,12.47c.57,3.22,1.47,6.52,3.61,9s5.82,3.88,8.79,2.53c-2,5.14-1.94,11.5,1.64,15.73a22.73,22.73,0,0,0,3.57,3.21l7.86,6.16c2.51,2,6.43,3.83,8.46,1.38,3.78,6,13.41,7.13,18.46,2.14,2.91,6.49,11.76,7.05,18.86,6.63,2.25-.14,4.62-.32,6.49-1.58,2.92-2,3.67-5.87,5.5-8.88,1-1.65,2.35-3.07,3.27-4.77a11,11,0,0,0-3-13.53c4.08-5.9,3.08-13.8,1.91-20.88-1-6.08-2.09-12.38-5.57-17.47a4.3,4.3,0,0,1-1.06-2.42c0-1.2,1.1-2.06,2-2.86a15.8,15.8,0,0,0,4.25-16.48c-.58-1.68-1.46-3.38-1.18-5.14a9.19,9.19,0,0,1,2.1-3.79c4.27-5.68,6.28-14.72.82-19.29a21.06,21.06,0,0,0,4.57-25.74c7.14-4.54,9.35-15.31,4.57-22.29,2.78-3.55,5.66-7.37,6.13-11.85s-2.61-9.65-7.12-9.64c2-2.09,1.65-5.61,0-8s-4.2-3.9-6.7-5.34c-3.75-2.16-7.68-4.38-12-4.63s-9.13,2.11-10.15,6.32c-.49-2.29-3.14-3.58-5.47-3.36s-4.39,1.54-6.35,2.83c-3.34-4.94-12.24-4.08-14.57,1.41-4.51-4.11-13.11-1.37-14.42,4.59" style="fill:#263238"></path><path d="M374.21,131.52c-1.74-4.23-6.51-6.55-11.08-6.87,2.71-3.36,1.3-8.84-2.21-11.34s-8.38-2.42-12.39-.84c1.47-5.06-.86-10.76-5-14s-9.7-4.37-14.94-3.78a12.79,12.79,0,0,0-15-17.1c-1-3.58-4.7-5.86-8.38-6.36s-7.39.43-11,1.35a16.71,16.71,0,0,0-29.87-4.27c-9-4.23-26.87.53-26.87,13.32L277.61,260.1c4,3.23,12.56,8.14,28.53,8.13,5.13,0,17.28-9.3,16.45-14.37,7.9-.64,14.47-8.47,13.74-16.36,4.95,1.75,9.17-3.85,11.46-8.57,1.18-2.45-.57.84.74-1.54,3.86-7,1.23-14.37-.62-16.21,3,.58,8.64,1.43,11.75-4,1.29-2.26.1-8.13.1-8.13.61-2.73,1.71-4.11,2.25-6.86s-.06-6.06-2.49-7.46c4-.55,9.05-2.17,9.21-6.2.07-1.79-1-3.48-1-5.27a21.05,21.05,0,0,1,.82-3.89c1.24-6.23-4.41-11.49-9.47-15.32,2.71-1.07,5.51-2.19,7.57-4.26s3.19-5.37,1.89-8C373.16,141.63,376,135.76,374.21,131.52Z" style="fill:#263238"></path><path d="M286.63,266.5c-.81-10.3-1.92-23.21-1.92-23.16s23.81-4.06,28.62-35.17c2.39-15.47,1.5-40.82.11-61.53-1.25-18.65-18.64-43.11-41.68-41.83l-10.31-.59-38.26,17.9a11,11,0,0,0-9.74,11.13l7.42,139.16,26.68,36.46,39.58-26.64Z" style="fill:#ae7461"></path><path d="M266.83,203.71a6.52,6.52,0,0,1,2-4.17,6.7,6.7,0,0,1,8.08-.94,9,9,0,0,1,3.9,8.2h0a8.14,8.14,0,0,1-5.63,3.72,9.81,9.81,0,0,1-1.09.1,7.3,7.3,0,0,1-5-1.66A6.49,6.49,0,0,1,266.83,203.71Z" style="fill:#6f4439"></path><path d="M301.09,172a4,4,0,0,1-3.83,4,3.82,3.82,0,0,1-4.13-3.57,4,4,0,0,1,3.83-4A3.81,3.81,0,0,1,301.09,172Z" style="fill:#263238"></path><path d="M306.1,157.41c-.49.53-3.52-1.7-7.81-1.67s-7.43,2.19-7.89,1.67c-.23-.23.27-1.17,1.63-2.18a11,11,0,0,1,6.32-2,10.44,10.44,0,0,1,6.22,2C305.89,156.24,306.35,157.18,306.1,157.41Z" style="fill:#263238"></path><path d="M281.53,192.58c0-.24,2.65-.72,7-1.29,1.09-.12,2.13-.34,2.31-1.09s-.21-2-.75-3.24l-3.27-8.33c-4.55-11.86-7.85-21.61-7.37-21.79s4.56,9.29,9.11,21.15c1.09,2.92,2.14,5.71,3.13,8.38.42,1.24,1.14,2.65.59,4.29a2.74,2.74,0,0,1-1.79,1.61,7.18,7.18,0,0,1-1.86.27C284.25,192.79,281.55,192.82,281.53,192.58Z" style="fill:#263238"></path><path d="M284.71,243.34A79,79,0,0,1,243,232.41s11.18,21.5,42.29,18.46Z" style="fill:#6f4439"></path><path d="M268.92,195.6c.7,0,.73,4.61,4.73,7.9s9,2.76,9,3.41c.07.29-1.1.91-3.2,1a11.52,11.52,0,0,1-7.5-2.58,10.1,10.1,0,0,1-3.67-6.62C268.09,196.73,268.6,195.58,268.92,195.6Z" style="fill:#263238"></path><path d="M306.13,147.88c-.72,1.05-4,.36-7.84.7s-7,1.36-7.86.42c-.38-.46,0-1.48,1.36-2.54a12.19,12.19,0,0,1,12.65-.91C305.9,146.42,306.44,147.37,306.13,147.88Z" style="fill:#263238"></path><path d="M253.88,172.76a4,4,0,0,0,4,3.86,3.81,3.81,0,0,0,4-3.76,4,4,0,0,0-4-3.86A3.82,3.82,0,0,0,253.88,172.76Z" style="fill:#263238"></path><path d="M249.06,159.18c.51.5,3.44-1.86,7.73-2s7.51,1.85,8,1.31c.22-.25-.33-1.16-1.74-2.1a10.94,10.94,0,0,0-6.4-1.69,10.52,10.52,0,0,0-6.12,2.27C249.21,158,248.81,159,249.06,159.18Z" style="fill:#263238"></path><path d="M250.82,145.33c.88.94,4.15-.21,8.12-.42s7.38.34,8.11-.71c.32-.51-.25-1.46-1.76-2.32a12.26,12.26,0,0,0-6.68-1.32,12.06,12.06,0,0,0-6.4,2.23C250.85,143.85,250.43,144.87,250.82,145.33Z" style="fill:#263238"></path><path d="M221.86,185c0-2.31-2.72-7.76-5-8.11-6.11-.92-17.11-.39-17.15,15.12,0,21.2,21.25,16.87,21.28,16.27S221.91,193,221.86,185Z" style="fill:#ae7461"></path><path d="M215.15,200.53c-.09-.07-.37.26-1,.54a3.66,3.66,0,0,1-2.76.05c-2.24-.83-4.11-4.39-4.21-8.21a12.13,12.13,0,0,1,1.05-5.28c.65-1.55,1.65-2.63,2.78-2.83a1.88,1.88,0,0,1,2.18,1c.28.59.14,1,.26,1.05s.45-.35.28-1.23a2.31,2.31,0,0,0-.83-1.33,2.76,2.76,0,0,0-2-.54c-1.63.11-3.11,1.61-3.86,3.27a12.57,12.57,0,0,0-1.3,5.91c.13,4.27,2.31,8.27,5.37,9.17a4,4,0,0,0,3.38-.56C215.12,201,215.23,200.57,215.15,200.53Z" style="fill:#6f4439"></path><path d="M203.62,199.79a10.14,10.14,0,0,0-2.83,1.69,13,13,0,0,0-4.51,7.69,13.64,13.64,0,0,0,.24,6.25,15.36,15.36,0,0,0,3.58,6.23,15.61,15.61,0,0,0,6.7,4.26,14.31,14.31,0,0,0,8.5.06,15.48,15.48,0,0,0,7.21-4.54,14,14,0,0,0,3.36-7.18,14.82,14.82,0,0,0-3.93-12.49,13.2,13.2,0,0,0-4.38-2.74,13.6,13.6,0,0,0-3.78-.93,8.27,8.27,0,0,0-2.45.13,2.84,2.84,0,0,0-.82.27,10.48,10.48,0,0,1,3.24-.11,13.48,13.48,0,0,1,3.65,1,13.19,13.19,0,0,1,4.17,2.72,14.4,14.4,0,0,1,3.64,12A13.42,13.42,0,0,1,222,221a14.9,14.9,0,0,1-6.87,4.31,13.76,13.76,0,0,1-8.09,0,15.19,15.19,0,0,1-6.42-4,15,15,0,0,1-3.49-5.93,13.3,13.3,0,0,1-.31-6A12.89,12.89,0,0,1,201,201.7,32.52,32.52,0,0,1,203.62,199.79Z" style="fill:#e0e0e0"></path><path d="M254.7,111.57a111.54,111.54,0,0,0-42,8.23c-4,1.62-8.05,3.66-10.27,7.32-1.94,3.21-2.13,7.18-2,10.93.31,11.78,5.27,26.12,9.93,36.94l14.84,8.58c11.28-2.85,5.78-22.32,5.09-32.12a23.13,23.13,0,0,0,13.21-20.63A25.62,25.62,0,0,0,254.7,111.57Z" style="fill:#263238"></path><path d="M250.52,106a12.88,12.88,0,0,0-12.26,19.41,11,11,0,0,0-.79,21.62,8.88,8.88,0,0,0-5.15,7.83,11,11,0,0,0,4.09,8.64,9,9,0,0,0,6.41,2.27,5.89,5.89,0,0,0,5.19-4c.61-2.24-.82-5-3.11-5.37,3.16-.81,5-4.4,4.79-7.66s-1.82-6.23-3.5-9c3.45-1.94,3.91-7.56.82-10a12.92,12.92,0,0,0,10.63-9.26c.31-1.17-.53-3-1.49-2.3a6.79,6.79,0,0,0,4.09-8.78" style="fill:#263238"></path><path d="M324.29,153.72c1.61-8.8-2.79-15.65-9.26-21.83,5.1-8.67,2.46-21-5.74-26.87a10.14,10.14,0,0,0-14.51-11.31c-2.84-3.59-5.89-7.35-10.19-8.95s-10.12,0-11.44,4.39c-4.17-6.68-14.91-7.84-20.41-2.21-5.69-2.74-13.39,2.72-12.69,9l7.32,10a10.33,10.33,0,0,0,4.74,18.93A13.75,13.75,0,0,0,255.35,139c1.7,1.66,5.29,2.34,5.84,0,1.69,2.16,5.57.3,6.11-2.39s-1-5.33-2.46-7.65a5.53,5.53,0,0,0,4.26-10.19l6.73.47c-.47,3.36.17,7,2.47,9.52s6.49,3.32,9.18,1.27c-1.72,6.51,4.4,13.78,11.12,13.2,0,0,3.42,1.28,5.09-2.74s0-9,0-9,1.43,11.69,6.4,12.94c1.85.47,3,2.8,3.73,5.56a6.73,6.73,0,0,0,10.47,3.74Z" style="fill:#263238"></path><path d="M229.41,177.69c4-2,4.94-8.25,1.67-11.3,3-3.45,1.55-9.72-2.68-11.48a12.57,12.57,0,0,0,.89-13,10.9,10.9,0,0,0-11.7-5.3c-4.47,1.09-7.84,5.8-7.14,10.34l2,20.66a3.51,3.51,0,0,0,4.39,5.44,10,10,0,0,0-1.73,9.29,4.33,4.33,0,0,0,1.94,2.62A2.39,2.39,0,0,0,219,185a5.14,5.14,0,0,0,.77,7,5.08,5.08,0,0,0,7.5-2.46,3.42,3.42,0,0,0,4.51-.53,6.83,6.83,0,0,0,1.55-4.64C233.41,181.56,232.15,178.28,229.41,177.69Z" style="fill:#263238"></path><path d="M316.82,163.49s.56.12,1.63.11a8.55,8.55,0,0,0,4.42-1.38,8.44,8.44,0,0,0,2.44-2.32,7.34,7.34,0,0,0,1.29-3.75,8.51,8.51,0,0,0-1-4.48,8.1,8.1,0,0,0-3.66-3.56l-.26-.12.23-.18c2.69-2.05,3.87-6.25,2.55-10a7.85,7.85,0,0,0-3.85-4.52,5.46,5.46,0,0,0-3.05-.6,3.49,3.49,0,0,0-1.47.51,3.37,3.37,0,0,0-1.06,1.16,2.39,2.39,0,0,0,.25,2.92,3.09,3.09,0,0,0,3.09.46,3.65,3.65,0,0,0,2.27-2.38,7.93,7.93,0,0,0,.29-3.54,12.78,12.78,0,0,0-2.89-6.77,7.89,7.89,0,0,0-3-2.29,4.7,4.7,0,0,0-3.66,0l-.67.29.34-.65a13.7,13.7,0,0,0,.69-11.54,9.08,9.08,0,0,0-6.45-5.35,8.1,8.1,0,0,0-7.78,2l-.4-.31a5.06,5.06,0,0,0,0-5.19,6.88,6.88,0,0,0-4-3.37,10.27,10.27,0,0,0-5.22-.13,19.48,19.48,0,0,0-4.83,1.75l-.38.19,0-.43a8.92,8.92,0,0,0-2.06-6.48,8.41,8.41,0,0,0-5.59-3.11,9,9,0,0,0-5.81,1.47,8.76,8.76,0,0,0-3.47,4.31l-.1.29-.21-.22a14,14,0,0,0-9-4.36A15.88,15.88,0,0,0,249,93a14.38,14.38,0,0,0-4.1,2.54c-.4.37-.68.69-.88.89l-.31.3a16.42,16.42,0,0,1,1.13-1.27A13.69,13.69,0,0,1,249,92.79a15.9,15.9,0,0,1,7.64-1.14,14.65,14.65,0,0,1,4.72,1.22,13.28,13.28,0,0,1,4.48,3.18l-.3.06a9.16,9.16,0,0,1,3.59-4.52A9.41,9.41,0,0,1,275.16,90c4.47.38,8.54,4.94,8.07,10.07l-.34-.24A21,21,0,0,1,287.83,98a10.77,10.77,0,0,1,5.46.14,7.31,7.31,0,0,1,4.3,3.61,6.52,6.52,0,0,1,.8,2.82,4.92,4.92,0,0,1-.79,2.88l-.4-.31a8.56,8.56,0,0,1,8.26-2.18,9.93,9.93,0,0,1,4.08,2,10.06,10.06,0,0,1,2.74,3.67,14.23,14.23,0,0,1-.71,12l-.33-.35a5.18,5.18,0,0,1,4.05,0,8.39,8.39,0,0,1,3.16,2.44,13.34,13.34,0,0,1,3,7,8.31,8.31,0,0,1-.32,3.77,4.88,4.88,0,0,1-1,1.64,3.88,3.88,0,0,1-1.61,1,3.51,3.51,0,0,1-3.57-.58,2.57,2.57,0,0,1-.76-1.7,3.21,3.21,0,0,1,.44-1.78,3.89,3.89,0,0,1,1.21-1.31,4.07,4.07,0,0,1,1.67-.58,5.86,5.86,0,0,1,3.29.65,8.28,8.28,0,0,1,4.05,4.79c1.36,3.91.11,8.27-2.73,10.41l0-.3a8.42,8.42,0,0,1,3.79,3.74,8.77,8.77,0,0,1,1,4.63A7.63,7.63,0,0,1,325.5,160a8.79,8.79,0,0,1-7.05,3.66A6.24,6.24,0,0,1,316.82,163.49Z" style="fill:#455a64"></path><path d="M184.54,205.08a6.29,6.29,0,0,1-1.63-.35,9,9,0,0,1-4-2.69,9.16,9.16,0,0,1-1.79-3,8.22,8.22,0,0,1-.34-4.2,9.45,9.45,0,0,1,2.1-4.39,9,9,0,0,1,4.63-2.95l.11.31a4,4,0,0,1-3.11.1,5.75,5.75,0,0,1-2.65-1.94c-1.42-1.85-1.55-4.42-1.13-6.79a25.39,25.39,0,0,1,.9-3.61,12.23,12.23,0,0,1,1.69-3.49,6.57,6.57,0,0,1,3.19-2.45,4.81,4.81,0,0,1,4.13.32l.24.15-.21.2a7,7,0,0,1-7.22,1.13,6.8,6.8,0,0,1-3.12-2.42,8.07,8.07,0,0,1-1.39-3.78,8.94,8.94,0,0,1,2.88-7.55,11.43,11.43,0,0,1,7.93-2.87h.36l-.13.34a2.11,2.11,0,0,1-1.17,1.16,2.9,2.9,0,0,1-1.62.14,3.93,3.93,0,0,1-2.64-1.72,4.5,4.5,0,0,1-.39-3.17,10.3,10.3,0,0,1,1.18-2.94c.52-.92,1.1-1.79,1.69-2.67a19.49,19.49,0,0,1,1.95-2.54,8,8,0,0,1,5.76-2.85,5,5,0,0,1,2.54.65l.75.43-.86.06a8.59,8.59,0,0,1-7.37-3.72,7.7,7.7,0,0,1-1.4-3.94,8.17,8.17,0,0,1,.85-4,8.36,8.36,0,0,1,6.35-4.66,6.25,6.25,0,0,1,3.87.94,4.51,4.51,0,0,1,1.42,1.43,3.36,3.36,0,0,1,.46,2l0,.16-.15.05a3.41,3.41,0,0,1-2.62-.25,5,5,0,0,1-1.88-1.77,5.58,5.58,0,0,1-.63-4.87,9.11,9.11,0,0,1,2.87-3.86,23.78,23.78,0,0,1,3.92-2.5l-.12.24a11.91,11.91,0,0,1,1.58-8.11,11.3,11.3,0,0,1,5.92-4.94,12,12,0,0,1,7.15-.18,11.74,11.74,0,0,1,5.56,3.43l-.3.1a11.45,11.45,0,0,1,1.73-5.7,11.8,11.8,0,0,1,3.71-3.76,10.56,10.56,0,0,1,4.3-1.54,11.63,11.63,0,0,1,3.82.15A11.41,11.41,0,0,1,237,98.45a8.1,8.1,0,0,1,1.31,1.24l-.34-.31a11.35,11.35,0,0,0-1-.86,11.6,11.6,0,0,0-4.72-2,11.29,11.29,0,0,0-3.75-.11,10.29,10.29,0,0,0-4.18,1.55,11.46,11.46,0,0,0-3.6,3.69,11.15,11.15,0,0,0-1.65,5.55v.43l-.29-.32a11.38,11.38,0,0,0-5.4-3.3,11.6,11.6,0,0,0-6.91.21,11,11,0,0,0-5.7,4.78,11.49,11.49,0,0,0-1.49,7.81l0,.17-.15.07a22.46,22.46,0,0,0-3.83,2.46,8.59,8.59,0,0,0-2.72,3.66,5.09,5.09,0,0,0,.59,4.45,4.45,4.45,0,0,0,1.69,1.59,2.94,2.94,0,0,0,2.25.22l-.17.22a3.23,3.23,0,0,0-1.67-3,5.79,5.79,0,0,0-3.55-.86,7.84,7.84,0,0,0-5.93,4.39,7.64,7.64,0,0,0-.79,3.79,7.19,7.19,0,0,0,1.31,3.68,8.07,8.07,0,0,0,6.9,3.49l-.11.48a4.6,4.6,0,0,0-2.28-.58,6.4,6.4,0,0,0-3,.77,8.81,8.81,0,0,0-2.42,1.92,32.65,32.65,0,0,0-3.57,5.1,9.58,9.58,0,0,0-1.13,2.79,4,4,0,0,0,.32,2.8,3.48,3.48,0,0,0,2.3,1.49,1.91,1.91,0,0,0,2.23-1l.22.35a10.87,10.87,0,0,0-7.58,2.73,8.45,8.45,0,0,0-2.73,7.13,7.6,7.6,0,0,0,1.3,3.56,6.38,6.38,0,0,0,2.9,2.26,6.49,6.49,0,0,0,6.75-1l0,.35a4.4,4.4,0,0,0-3.75-.28,6.15,6.15,0,0,0-3,2.29,12.13,12.13,0,0,0-1.65,3.37,27.43,27.43,0,0,0-.9,3.54c-.42,2.32-.28,4.79,1,6.51s3.58,2.62,5.34,1.76l.11.31a8.84,8.84,0,0,0-4.49,2.81,9.14,9.14,0,0,0-2.06,4.26,8,8,0,0,0,.28,4.08,9.44,9.44,0,0,0,5.59,5.72C184,205,184.55,205,184.54,205.08Z" style="fill:#455a64"></path><path d="M149.77,194.42s-.16.06-.47.14a2.8,2.8,0,0,1-.61.11,3.75,3.75,0,0,1-.85,0,7.26,7.26,0,0,1-5-2.43,8.57,8.57,0,0,1-2-3.54,10.83,10.83,0,0,1-.16-4.87,17.63,17.63,0,0,1,2-5.27A21.7,21.7,0,0,1,144.3,176a4.07,4.07,0,0,1,2.76-1.78l0,.36a4.37,4.37,0,0,1-3.16-.86,6.21,6.21,0,0,1-2.11-2.72c-.9-2.26-.38-4.86.58-7.16a18.6,18.6,0,0,1,4.28-6.51,10.26,10.26,0,0,1,3.48-2.22,5.6,5.6,0,0,1,4.25.18l-.22.42a6,6,0,0,1-2.77-4.12,12.85,12.85,0,0,1,.09-5.13,18.45,18.45,0,0,1,1.77-4.95,8.56,8.56,0,0,1,3.84-3.8,6.14,6.14,0,0,1,5.49.2,4.06,4.06,0,0,1,1.82,2.24,2.46,2.46,0,0,1,0,1.52,2,2,0,0,1-1,1.18,2.93,2.93,0,0,1-2.94-.24,4.6,4.6,0,0,1-1.62-2.47,11.78,11.78,0,0,1-.08-5.81c1.27-5.53,6-10.07,11.48-10.68l0,.5a4.64,4.64,0,0,1-2.84-2.11,6.81,6.81,0,0,1-.95-3.35,7.75,7.75,0,0,1,2.57-6.14,13.26,13.26,0,0,1,5.88-2.78,40.83,40.83,0,0,1,6.22-.78l-.19.35a9.24,9.24,0,0,1-.22-8.3,10.62,10.62,0,0,1,5.54-5.57,13.68,13.68,0,0,1,7.31-.88,17.6,17.6,0,0,1,6.4,2.25l-.22,0a20.5,20.5,0,0,1,10.46-5.32,21.91,21.91,0,0,1,8.86.15,20.53,20.53,0,0,1,5.23,2c.55.32.95.61,1.22.78a4.3,4.3,0,0,1,.41.29l-.43-.24c-.29-.16-.69-.44-1.25-.74A21.11,21.11,0,0,0,219,91.91a21.82,21.82,0,0,0-8.77-.07A20.28,20.28,0,0,0,200,97.13l-.1.1-.12-.07A17.3,17.3,0,0,0,193.5,95a13.23,13.23,0,0,0-7.09.88,10.21,10.21,0,0,0-5.3,5.36,8.76,8.76,0,0,0,.22,7.88l.19.33-.38,0a39.24,39.24,0,0,0-6.14.79,12.63,12.63,0,0,0-5.66,2.68,7.2,7.2,0,0,0-2.39,5.74,6.36,6.36,0,0,0,.88,3.1,4.1,4.1,0,0,0,2.52,1.88l1.45.35-1.48.16c-5.22.57-9.81,5-11,10.29a11.41,11.41,0,0,0,.07,5.54,4.17,4.17,0,0,0,1.43,2.2,2.45,2.45,0,0,0,2.41.2,1.67,1.67,0,0,0,.74-2.09,3.54,3.54,0,0,0-1.6-1.95,5.65,5.65,0,0,0-5-.18,8.14,8.14,0,0,0-3.6,3.58,18.35,18.35,0,0,0-1.73,4.81,12.43,12.43,0,0,0-.1,4.93,5.54,5.54,0,0,0,2.54,3.81l-.22.42a5.17,5.17,0,0,0-3.9-.18,9.91,9.91,0,0,0-3.32,2.12,18.11,18.11,0,0,0-4.2,6.34c-.95,2.25-1.44,4.75-.6,6.85s2.82,3.66,4.85,3.37l0,.36a3.74,3.74,0,0,0-2.51,1.63,20.75,20.75,0,0,0-1.65,2.54,17.69,17.69,0,0,0-2,5.16,10.67,10.67,0,0,0,.11,4.76,8.42,8.42,0,0,0,1.95,3.47,7.24,7.24,0,0,0,4.84,2.46A7.66,7.66,0,0,0,149.77,194.42Z" style="fill:#455a64"></path><path d="M222,178a3.6,3.6,0,0,1-1.25.58,5.72,5.72,0,0,1-3.9-.4,6.63,6.63,0,0,1-2.28-1.71,6.52,6.52,0,0,1-1.47-3,10.08,10.08,0,0,1,1.94-7.76l.11.32a9.57,9.57,0,0,1-4.93-3.55,9.82,9.82,0,0,1-1.94-6.38c.23-4.78,5-9.21,10.36-8.83l0,.51a2.63,2.63,0,0,1-1.43-.21,3.79,3.79,0,0,1-2-2.1,6.44,6.44,0,0,1-.34-2.77A17.19,17.19,0,0,1,216,137.4a7.69,7.69,0,0,1,1.41-2.22,5.06,5.06,0,0,1,2.19-1.37,4.91,4.91,0,0,1,2.52-.12,3.4,3.4,0,0,1,2.06,1.36l.46.65-.74-.3a9.66,9.66,0,0,1-4.51-3.87,11.14,11.14,0,0,1-1.16-2.54,10.84,10.84,0,0,1-.42-2.61,8.84,8.84,0,0,1,1.16-4.62,10.12,10.12,0,0,1,8-5,6.47,6.47,0,0,1,2,.14,19.18,19.18,0,0,0-2,0,10,10,0,0,0-5.13,2,9.61,9.61,0,0,0-2.58,3,8.57,8.57,0,0,0-1.06,4.44,10.57,10.57,0,0,0,.43,2.5,10.89,10.89,0,0,0,1.13,2.43,9.28,9.28,0,0,0,4.32,3.66l-.29.35a3.59,3.59,0,0,0-4-1,5.42,5.42,0,0,0-3.28,3.32,17.09,17.09,0,0,0-1.08,5,6.09,6.09,0,0,0,.32,2.55,3.33,3.33,0,0,0,1.68,1.82,2.24,2.24,0,0,0,1.15.17l0,.52c-5.05-.38-9.62,3.85-9.83,8.35a9.42,9.42,0,0,0,1.82,6.07,9.18,9.18,0,0,0,4.68,3.42l.28.09-.17.24a9.76,9.76,0,0,0-2,7.44,6.32,6.32,0,0,0,3.52,4.61,5.72,5.72,0,0,0,3.77.49A9.71,9.71,0,0,0,222,178Z" style="fill:#455a64"></path><path d="M271.71,117.37a5.68,5.68,0,0,0-1-2,8.62,8.62,0,0,0-5.4-2.49,16.86,16.86,0,0,0-4.2,0,8.85,8.85,0,0,0-4.39,1.73,5.72,5.72,0,0,0-2.28,4.45,3.58,3.58,0,0,0,1,2.42,2.6,2.6,0,0,0,2.48.65,3.66,3.66,0,0,0,2.21-1.53,6.25,6.25,0,0,0,1-2.54,8.57,8.57,0,0,0-.74-5.13,8.85,8.85,0,0,0-3.06-3.58,8,8,0,0,0-3.9-1.33,9.29,9.29,0,0,0-5.78,1.49,16.36,16.36,0,0,0-1.74,1.43,6.37,6.37,0,0,1,1.62-1.6,9.28,9.28,0,0,1,5.92-1.68,8.29,8.29,0,0,1,4.12,1.32,9.28,9.28,0,0,1,3.25,3.75,9,9,0,0,1,.81,5.41,6.64,6.64,0,0,1-1.06,2.76,4.23,4.23,0,0,1-2.53,1.74,3.13,3.13,0,0,1-3-.8,4.1,4.1,0,0,1-1.13-2.76,6.15,6.15,0,0,1,2.49-4.84,9.31,9.31,0,0,1,4.63-1.79,16.63,16.63,0,0,1,4.31.06,8.62,8.62,0,0,1,5.51,2.72,4.58,4.58,0,0,1,.79,1.51A2.14,2.14,0,0,1,271.71,117.37Z" style="fill:#455a64"></path><path d="M335.05,117.41s.05-.54,0-1.56a10.88,10.88,0,0,0-1.18-4.26,10.11,10.11,0,0,0-5-4.72,10.58,10.58,0,0,0-8.94.31l-.3.16,0-.34c.23-3.14.57-6.63-.27-10.19a12.56,12.56,0,0,0-2.43-5,8.35,8.35,0,0,0-4.86-3.08,5,5,0,0,0-2.92.3,3.26,3.26,0,0,0-1.79,2.24,2.47,2.47,0,0,0,.1,1.45,2.09,2.09,0,0,0,1,1.05,3.14,3.14,0,0,0,2.94-.16A3,3,0,0,0,312.81,91a4.89,4.89,0,0,0-1-3c-1.39-1.75-3.75-2.49-6-2.75a20.66,20.66,0,0,0-12.59,2.57l-.54.3.17-.6a8,8,0,0,0,.29-2.28,9.49,9.49,0,0,0-.4-2.24,10.06,10.06,0,0,0-2.32-3.81,11.57,11.57,0,0,0-7.71-3.35A19.24,19.24,0,0,0,274.77,77a7.54,7.54,0,0,0-2.94,2.15,3.5,3.5,0,0,0-.75,1.52,2.32,2.32,0,0,0,.29,1.57l.75,1.31-1.06-1.08a14.66,14.66,0,0,0-8.95-4.18,16.23,16.23,0,0,0-7.52,1,15,15,0,0,0-4.19,2.42c-.42.36-.71.67-.93.86l-.32.29a2.06,2.06,0,0,1,.28-.33c.2-.2.48-.53.9-.91A14.5,14.5,0,0,1,254.51,79,16.52,16.52,0,0,1,262.14,78a14.94,14.94,0,0,1,9.2,4.22l-.31.23a2.69,2.69,0,0,1-.34-1.83,3.92,3.92,0,0,1,.81-1.71,8.08,8.08,0,0,1,3.1-2.29,19.55,19.55,0,0,1,8.07-1.29,12,12,0,0,1,8,3.46,10.62,10.62,0,0,1,2.44,4,9.9,9.9,0,0,1,.43,2.38,8.83,8.83,0,0,1-.31,2.44l-.37-.3a21.21,21.21,0,0,1,12.9-2.64,13.1,13.1,0,0,1,3.49.85,7.07,7.07,0,0,1,2.9,2.11A5.37,5.37,0,0,1,313.33,91,3.53,3.53,0,0,1,311.66,94a3.62,3.62,0,0,1-3.44.17A2.6,2.6,0,0,1,307,92.9a3.06,3.06,0,0,1-.13-1.74A3.69,3.69,0,0,1,309,88.58a5.31,5.31,0,0,1,3.21-.33,8.81,8.81,0,0,1,5.13,3.26,13,13,0,0,1,2.49,5.19c.85,3.67.48,7.19.23,10.33l-.28-.18a10.8,10.8,0,0,1,9.24-.25,10.19,10.19,0,0,1,5.05,4.89,10.43,10.43,0,0,1,1.11,4.35A7.37,7.37,0,0,1,335.05,117.41Z" style="fill:#455a64"></path><path d="M345.57,176.16a4.56,4.56,0,0,1,1,.91,7.53,7.53,0,0,1,1.63,3.44,7.28,7.28,0,0,1-1.24,5.83,7.88,7.88,0,0,1-7.2,3.09l-.51-.07.44-.26a3.59,3.59,0,0,1,2.91-.3,4.87,4.87,0,0,1,2.51,1.82,5.36,5.36,0,0,1,.9,3.13,8.6,8.6,0,0,1-.73,3.32,12.79,12.79,0,0,1-12,7.43V204a3.92,3.92,0,0,1,2.6.87,5.62,5.62,0,0,1,1.68,2.21,7.48,7.48,0,0,1-.12,5.58,27.86,27.86,0,0,1-2.65,5.11,23.83,23.83,0,0,1-3.74,4.57,12,12,0,0,1-3.86,2.47,7.47,7.47,0,0,1-4.5.29l.27-.39a16.43,16.43,0,0,1,3.09,8.64,9.9,9.9,0,0,1-.87,4.38,7.87,7.87,0,0,1-2.9,3.22,8.2,8.2,0,0,1-4,1.3,5.61,5.61,0,0,1-3.84-1.16,3.73,3.73,0,0,1-1.63-3.44,2.13,2.13,0,0,1,1.18-1.54,1.74,1.74,0,0,1,1.89.14l.07.06v.09a10.22,10.22,0,0,1-1.62,5.6,10.54,10.54,0,0,1-3.82,3.57,9.18,9.18,0,0,1-4.42,1.12,10.51,10.51,0,0,1-8.05-3.9,7.26,7.26,0,0,1-1-1.59s.3.57,1.07,1.52a10.28,10.28,0,0,0,4.25,3,9.88,9.88,0,0,0,3.7.67,8.9,8.9,0,0,0,4.26-1.12,10.27,10.27,0,0,0,3.66-3.48,9.82,9.82,0,0,0,1.53-5.39l.07.15c-.79-.66-2.25.09-2.39,1.16a3.34,3.34,0,0,0,1.48,3,5.19,5.19,0,0,0,3.55,1,7.56,7.56,0,0,0,3.73-1.24,7.15,7.15,0,0,0,2.71-3,9.27,9.27,0,0,0,.81-4.16,16,16,0,0,0-3-8.36l-.39-.57.67.17a7,7,0,0,0,4.19-.27A11.56,11.56,0,0,0,330.7,222a23.2,23.2,0,0,0,3.65-4.46,28.4,28.4,0,0,0,2.61-5,7,7,0,0,0,.14-5.21,4.21,4.21,0,0,0-3.8-2.79V204a12.38,12.38,0,0,0,11.55-7.11c.89-2,1-4.38-.1-6.05s-3.37-2.38-4.91-1.45l-.06-.33a7.57,7.57,0,0,0,6.92-2.9,7.14,7.14,0,0,0,1.28-5.63,7.77,7.77,0,0,0-1.52-3.41C345.92,176.46,345.55,176.18,345.57,176.16Z" style="fill:#455a64"></path><path d="M343.27,153.54a2.45,2.45,0,0,1,.37-.39l1.1-1.07a17,17,0,0,0,3.41-4.37,8.27,8.27,0,0,0,.89-3.66,6.29,6.29,0,0,0-1.48-4,12.19,12.19,0,0,0-3.72-3,8.14,8.14,0,0,0-4.95-1c-.29,0-.57.13-.83.2l-.13-.5a5.16,5.16,0,0,0,3.58-3.06,9,9,0,0,0,.59-4.55c-.33-3-1.08-5.68-2.46-7.46a6.28,6.28,0,0,0-4.45-2.57,6.71,6.71,0,0,0-1.93.21,1.55,1.55,0,0,1,.47-.21,4.41,4.41,0,0,1,1.47-.2,6.41,6.41,0,0,1,4.73,2.55c1.48,1.85,2.28,4.6,2.65,7.63A9.42,9.42,0,0,1,342,133a5.63,5.63,0,0,1-4,3.36l-.12-.5a7.58,7.58,0,0,1,.91-.22,8.43,8.43,0,0,1,5.26,1,12.34,12.34,0,0,1,3.87,3.17,6.71,6.71,0,0,1,1.53,4.25,8.5,8.5,0,0,1-1,3.82,16,16,0,0,1-3.6,4.36c-.5.44-.9.77-1.17,1A2,2,0,0,1,343.27,153.54Z" style="fill:#455a64"></path><path d="M108,244c6-4.53,12.18-9.19,16.27-15.52,1.69-2.61,3-5.5,5.31-7.61,2.13-2,4.92-3.11,7.19-4.93,2.93-2.34,4.83-5.69,6.66-9l5.91-10.54L159.93,204c-5,2.27-10.09,4.62-14,8.43-4.35,4.21-7.12,10.05-12.17,13.37a28.83,28.83,0,0,0-2.62,1.72,18.65,18.65,0,0,0-2.68,2.86,54.29,54.29,0,0,1-16,13" style="fill:#263238"></path><path d="M168.24,202.18a2.33,2.33,0,0,1-.19.64c-.14.4-.36,1-.69,1.76a15.48,15.48,0,0,1-1.44,2.63,8.1,8.1,0,0,1-2.94,2.71,15.81,15.81,0,0,1-4.69,1.14,8.89,8.89,0,0,0-2.48.76,5.2,5.2,0,0,0-1.93,1.86c-.51.79-.93,1.7-1.48,2.58-.28.43-.63.83-1,1.25a12.19,12.19,0,0,1-1.18,1.09,18.11,18.11,0,0,1-5.93,2.85c-2.15.67-4.27,1.2-6.22,1.94a16.51,16.51,0,0,0-5.17,3,33,33,0,0,0-3.77,4c-1.1,1.32-2.11,2.57-3.08,3.67a28.76,28.76,0,0,1-2.81,2.82c-.46.36-.89.7-1.31,1s-.8.53-1.18.71l-1,.47c-.29.11-.55.19-.76.25a2.48,2.48,0,0,1-.64.18,3.4,3.4,0,0,1,.61-.27c.19-.09.45-.17.73-.3l1-.51c.35-.19.71-.47,1.13-.73s.81-.64,1.26-1a28.84,28.84,0,0,0,2.72-2.83c1-1.11,1.93-2.37,3-3.71a32.07,32.07,0,0,1,3.79-4,16.64,16.64,0,0,1,5.3-3.08c2-.76,4.12-1.29,6.24-2a17.71,17.71,0,0,0,5.77-2.75,11.15,11.15,0,0,0,1.13-1c.31-.39.64-.77.91-1.18.53-.84,1-1.74,1.5-2.57a5.49,5.49,0,0,1,2.12-2,8.71,8.71,0,0,1,2.62-.78,15.89,15.89,0,0,0,4.59-1,8,8,0,0,0,2.87-2.54,18.09,18.09,0,0,0,1.5-2.56c.35-.73.6-1.32.78-1.71A4.62,4.62,0,0,1,168.24,202.18Z" style="fill:#455a64"></path><path d="M124.68,228.68a1.8,1.8,0,0,1-.24-.5,4.24,4.24,0,0,1-.23-1.59,7.46,7.46,0,0,1,2.81-5.05c1.86-1.75,4.8-2.57,7.72-3.88a12,12,0,0,0,4.08-2.82c1.16-1.28,2-2.92,3.35-4.33a24.53,24.53,0,0,1,4.49-3.19,18.09,18.09,0,0,0,3.75-3.34,20.49,20.49,0,0,0,4-7.45,20.08,20.08,0,0,0,.83-5.7c0-1.36-.12-2.12-.06-2.13a2.57,2.57,0,0,1,.11.55,13.44,13.44,0,0,1,.15,1.58,19.08,19.08,0,0,1-.67,5.8,20.42,20.42,0,0,1-4,7.66,18.16,18.16,0,0,1-3.82,3.45c-1.47,1-3.16,1.79-4.4,3.13s-2.14,3-3.35,4.31a12.18,12.18,0,0,1-4.27,2.91c-3,1.32-5.86,2.08-7.67,3.73a7.4,7.4,0,0,0-2.84,4.79A5.55,5.55,0,0,0,124.68,228.68Z" style="fill:#455a64"></path><path d="M121.3,213.14c0-.2.79-.14,2-.39a15,15,0,0,0,4.94-2.1,6.65,6.65,0,0,0,2.35-2.42,4.41,4.41,0,0,0,.31-3.45,2.91,2.91,0,0,0-1-1.39,3.21,3.21,0,0,0-1.66-.66,2.07,2.07,0,0,0-1.53.46,2.47,2.47,0,0,0-.81,1.5,1.59,1.59,0,0,0,.43,1.41,2.57,2.57,0,0,0,1.56.67,4.76,4.76,0,0,0,3.5-1.54,11.33,11.33,0,0,0,3.34-6.77,13.76,13.76,0,0,0-.37-5.33c-.35-1.24-.66-1.94-.49-2s.74.42,1.43,1.67a11.75,11.75,0,0,1,1.27,5.85,12.66,12.66,0,0,1-3.5,8.34,8.78,8.78,0,0,1-2.26,1.69,6,6,0,0,1-3.11.67,5,5,0,0,1-3.2-1.38,4.17,4.17,0,0,1-1-1.66,4.35,4.35,0,0,1-.15-1.92,5,5,0,0,1,1.74-3.16,4.63,4.63,0,0,1,3.41-1,5.56,5.56,0,0,1,4.72,3.84,6.53,6.53,0,0,1-.71,5.27,8.24,8.24,0,0,1-3.3,2.94,12.42,12.42,0,0,1-5.79,1.52C122,213.71,121.26,213.29,121.3,213.14Z" style="fill:#263238"></path><path d="M169.76,273.57c.05-.06.16-.11.14-.21a1,1,0,0,1,0-.31,8.88,8.88,0,0,1,.61-1.61,55.63,55.63,0,0,1,2.73-5c2.29-3.76,4.41-6.69,5.06-6.37s-.48,3.86-2.83,7.72a29.23,29.23,0,0,1-3.43,4.65,10,10,0,0,1-1.35,1.23,1,1,0,0,1-.77.19C169.68,273.79,169.7,273.63,169.76,273.57Z" style="fill:#263238"></path><path d="M375.72,204.94c.06.13-.8.82-2.73,1.22a11.52,11.52,0,0,1-8-1.59,10.62,10.62,0,0,1-4-4.31,12.29,12.29,0,0,1,2-13.56,10.47,10.47,0,0,1,3.33-2.42,7.7,7.7,0,0,1,4.39-.65,6.39,6.39,0,0,1,4,2.34,5.22,5.22,0,0,1,1,2.19,5.36,5.36,0,0,1-.07,2.33,6.47,6.47,0,0,1-2.34,3.58,8.28,8.28,0,0,1-3.59,1.54,11.81,11.81,0,0,1-6.75-.84,12,12,0,0,1-4.63-3.58,11.38,11.38,0,0,1-2.07-4.32,11,11,0,0,1-.26-3.54c.2-2,.77-2.89.91-2.84s0,1.08.1,2.85a11.26,11.26,0,0,0,2.73,6.67,10.44,10.44,0,0,0,4,2.76,9.86,9.86,0,0,0,5.46.49,6.06,6.06,0,0,0,2.52-1.15,4,4,0,0,0,1.4-2.2,2.72,2.72,0,0,0-.5-2.36,3.84,3.84,0,0,0-2.36-1.35,6.54,6.54,0,0,0-5.44,2.25,10.21,10.21,0,0,0-1.87,10.87,9.31,9.31,0,0,0,1.34,2.12A9.94,9.94,0,0,0,366,203a11.53,11.53,0,0,0,6.91,2.12C374.66,205.09,375.64,204.75,375.72,204.94Z" style="fill:#263238"></path><path d="M379.73,160c.11.09-.3.94-1.67,1.86a9.14,9.14,0,0,1-6.78,1.28,8.84,8.84,0,0,1-4.41-2.33,9.94,9.94,0,0,1-2.82-5,8.81,8.81,0,0,1,.9-6.42,6.41,6.41,0,0,1,2.72-2.55,5.64,5.64,0,0,1,3.95-.3,4.73,4.73,0,0,1,1.87,1.06,4.66,4.66,0,0,1,1.16,1.77,5.76,5.76,0,0,1,0,3.8,6,6,0,0,1-.83,1.66,7.17,7.17,0,0,1-1.18,1.27,9.47,9.47,0,0,1-2.75,1.61,16,16,0,0,1-10.18.23,14.9,14.9,0,0,1-5.89-3.33c-1.16-1.1-1.58-1.89-1.46-2s.81.41,2.08,1.2a17.56,17.56,0,0,0,5.73,2.35,15,15,0,0,0,8.81-.67,5.37,5.37,0,0,0,3.24-3.09,3.34,3.34,0,0,0,0-2.12,2,2,0,0,0-1.36-1.25,3.09,3.09,0,0,0-2.11.17,3.92,3.92,0,0,0-1.63,1.51,6.57,6.57,0,0,0-.74,4.61,8.21,8.21,0,0,0,2,4,7.25,7.25,0,0,0,3.32,2.06,9,9,0,0,0,5.86-.38C378.93,160.38,379.59,159.81,379.73,160Z" style="fill:#263238"></path><path d="M182.36,206.55a8,8,0,0,0-2.58,2.63,8.35,8.35,0,0,0-1.13,4,7.1,7.1,0,0,0,1.8,5l.53.58-.75-.21a10.93,10.93,0,0,0-6.23.25,10.52,10.52,0,0,0-5.5,4.22,11,11,0,0,0-1.37,8.83l.2.7-.58-.44a11,11,0,0,0-6.63-2.17,12.4,12.4,0,0,0-5.42,1.21,12.53,12.53,0,0,0-3.93,3,1,1,0,0,1,.18-.29,6.48,6.48,0,0,1,.63-.78,10.79,10.79,0,0,1,3-2.25,12.28,12.28,0,0,1,5.56-1.35,11.31,11.31,0,0,1,6.92,2.19l-.38.26a11.44,11.44,0,0,1,1.4-9.24,11,11,0,0,1,5.78-4.42,11.32,11.32,0,0,1,6.5-.2l-.22.37a7.4,7.4,0,0,1-1.83-5.31,8.36,8.36,0,0,1,1.26-4.17,6.9,6.9,0,0,1,1.94-2,6.19,6.19,0,0,1,.64-.36C182.28,206.57,182.36,206.54,182.36,206.55Z" style="fill:#455a64"></path><path d="M190.51,254.5a2.76,2.76,0,0,1-.58.15,3.32,3.32,0,0,1-.73.11,5.31,5.31,0,0,1-1,0,9.37,9.37,0,0,1-5.83-2.45,9.09,9.09,0,0,1-2.52-3.65,8.16,8.16,0,0,1-.52-2.45,8.27,8.27,0,0,1,.36-2.63,8.62,8.62,0,0,1,1.21-2.5,10,10,0,0,1,4.57-3.65,8.16,8.16,0,0,1,3-.61,6.26,6.26,0,0,1,3.06.65,2.62,2.62,0,0,1,1.13,1.15,2.14,2.14,0,0,1,.12,1.61,1.64,1.64,0,0,1-1.21,1.07,2.88,2.88,0,0,1-1.52-.13,7.42,7.42,0,0,1-2.38-1.48,8.83,8.83,0,0,1,.72-14,6.15,6.15,0,0,1,2.09-1,14.18,14.18,0,0,0-2,1.2,9,9,0,0,0-3.33,5.14,8.67,8.67,0,0,0,2.81,8.29,7.06,7.06,0,0,0,2.22,1.37,2.44,2.44,0,0,0,1.25.11,1.13,1.13,0,0,0,.84-.74,1.7,1.7,0,0,0-.1-1.23,2.1,2.1,0,0,0-.92-.92,5.86,5.86,0,0,0-2.81-.57,7.37,7.37,0,0,0-2.86.57,9.61,9.61,0,0,0-4.34,3.44,8.1,8.1,0,0,0-1.16,2.36,7.92,7.92,0,0,0-.36,2.48,7.59,7.59,0,0,0,.46,2.31,8.9,8.9,0,0,0,2.37,3.53,9.37,9.37,0,0,0,5.59,2.52A17.6,17.6,0,0,0,190.51,254.5Z" style="fill:#455a64"></path><path d="M139.8,149.14c0,.05-.55.15-1.49.51a10.44,10.44,0,0,0-3.52,2.28,9.65,9.65,0,0,0-2.83,5.43,10.11,10.11,0,0,0,1.68,7.23,10.51,10.51,0,0,0,.68.87l.33.38-.49,0a9.74,9.74,0,0,0-6.26,3.24,9.31,9.31,0,0,0-2.27,5.31,10.31,10.31,0,0,0,.4,3.92c.28.9.52,1.36.48,1.38a1.41,1.41,0,0,1-.21-.32,5.51,5.51,0,0,1-.45-1,9.72,9.72,0,0,1,1.69-9.6,10.1,10.1,0,0,1,6.57-3.44l-.17.43c-.24-.28-.5-.59-.73-.92a10.5,10.5,0,0,1-1.72-7.6,10.08,10.08,0,0,1,6.76-7.83,7,7,0,0,1,1.14-.29A1.07,1.07,0,0,1,139.8,149.14Z" style="fill:#455a64"></path><path d="M158.55,118.8s-.57-.27-1.66-.55a9,9,0,0,0-4.7.09,8.15,8.15,0,0,0-5.21,4.3,8.86,8.86,0,0,0,.37,8.17,7.55,7.55,0,0,0,.61.88l.24.35-.4.07a11.56,11.56,0,0,0-6.85,4.18,11.09,11.09,0,0,0-2.33,6.14,12,12,0,0,0,.53,4.45c.33,1,.61,1.54.57,1.56s-.1-.11-.24-.36A8.76,8.76,0,0,1,139,147,11.49,11.49,0,0,1,140.58,136a11.91,11.91,0,0,1,7.13-4.4l-.16.42a8.15,8.15,0,0,1-.64-.94,9.28,9.28,0,0,1-.36-8.65,7.92,7.92,0,0,1,2.49-3,9,9,0,0,1,7.9-1.39,6.2,6.2,0,0,1,1.22.5C158.43,118.7,158.56,118.78,158.55,118.8Z" style="fill:#455a64"></path><path d="M318.91,200.91a2.55,2.55,0,0,1,.54,0h.64l.87-.09a12.63,12.63,0,0,0,5.18-1.89,13.15,13.15,0,0,0,5.2-6.17,10.8,10.8,0,0,0,.76-4.7,6,6,0,0,0-.67-2.39,4.15,4.15,0,0,0-1.78-1.74,3.16,3.16,0,0,0-2-.32l-.55.11.28-.49a21.78,21.78,0,0,0,3.11-8.73,10.26,10.26,0,0,0-.38-4,9.43,9.43,0,0,0-1.64-3,7.42,7.42,0,0,0-4.12-2.69,11.53,11.53,0,0,0-1.83-.18,4.38,4.38,0,0,1,1.87,0,7.44,7.44,0,0,1,4.35,2.65,9.66,9.66,0,0,1,1.77,3.13,10.93,10.93,0,0,1,.45,4.13,21.78,21.78,0,0,1-3.13,8.95l-.27-.39a3.67,3.67,0,0,1,2.29.36,4.73,4.73,0,0,1,2,2,6.58,6.58,0,0,1,.72,2.59,11.15,11.15,0,0,1-.83,4.93,13.27,13.27,0,0,1-5.45,6.3A12.11,12.11,0,0,1,321,201l-.89.05-.65-.05A1.6,1.6,0,0,1,318.91,200.91Z" style="fill:#455a64"></path><path d="M143.19,251.92c-.15.09-.68-.4-1.49-1.42a16.09,16.09,0,0,1-2.72-4.93,10.51,10.51,0,0,1-.48-4.07,7.64,7.64,0,0,1,2-4.53,7.77,7.77,0,0,1,4.94-2.46,6.72,6.72,0,0,1,5.68,2.17,5.27,5.27,0,0,1,.9,1.45,4.47,4.47,0,0,1,.36,1.73,5.12,5.12,0,0,1-1.06,3.13,4.19,4.19,0,0,1-2.94,1.65,4.37,4.37,0,0,1-3-.95,7.21,7.21,0,0,1-2.51-4.32,10.43,10.43,0,0,1,0-4.1,9.85,9.85,0,0,1,2.69-5.07c1-.94,1.7-1.21,1.8-1.08s-.36.69-1,1.72a10.94,10.94,0,0,0-1.65,4.72,9.09,9.09,0,0,0,.27,3.32,5.06,5.06,0,0,0,1.83,2.88,2,2,0,0,0,1.35.4,1.67,1.67,0,0,0,1.12-.72,2.59,2.59,0,0,0,.5-1.55,2.42,2.42,0,0,0-.64-1.51,4.26,4.26,0,0,0-3.49-1.33,5.46,5.46,0,0,0-5,4.71,9.06,9.06,0,0,0,.11,3.34,23.89,23.89,0,0,0,1.8,4.87C143.09,251.13,143.34,251.82,143.19,251.92Z" style="fill:#263238"></path><path d="M332.81,253.48c0-.15.49-.32,1.34-.72a10,10,0,0,0,3.16-2.3,8.07,8.07,0,0,0,2.16-5.2,8.2,8.2,0,0,0-2.73-6.35l-3.8-3.29,4.91,1.19a13.53,13.53,0,0,0,9.47-1.42,14.54,14.54,0,0,0,4.38-3.62,12.48,12.48,0,0,0,2.3-4.7,14.63,14.63,0,0,0-.83-9,16,16,0,0,0-3.55-5.19l-.74-.7-.57-.49c-.3-.29-.45-.47-.4-.55s.27-.05.67.09c.2.08.46.17.74.31l.93.55a13.75,13.75,0,0,1,4.58,5.19,15.66,15.66,0,0,1,1.51,10.27,14.39,14.39,0,0,1-2.63,5.75,16.6,16.6,0,0,1-5.15,4.34,15.44,15.44,0,0,1-11.32,1.49l1.11-2.09a10.11,10.11,0,0,1,3.18,8.31,9.29,9.29,0,0,1-3.17,6.15,8.56,8.56,0,0,1-4,2C333.38,253.71,332.82,253.6,332.81,253.48Z" style="fill:#263238"></path><path d="M191.38,78.19c-.1-.09.24-.73,1.16-1.68a14.21,14.21,0,0,1,4.74-3.05,16,16,0,0,1,8.57-.95,9.78,9.78,0,0,1,5.05,2.19,6.13,6.13,0,0,1,1.76,2.73,5,5,0,0,1-.18,3.56L210.12,80A15.09,15.09,0,0,1,214,74a15.75,15.75,0,0,1,12.61-4.35,14.09,14.09,0,0,1,5.61,2A15.88,15.88,0,0,1,236.12,75a14.12,14.12,0,0,1,3.13,6.54c.26,1.7.07,2.64-.07,2.65s-.37-.89-.91-2.39a15.84,15.84,0,0,0-3.52-5.57,13.06,13.06,0,0,0-18.93-.31,12.84,12.84,0,0,0-3.28,5l-2.37-1a3.14,3.14,0,0,0-.92-3.43,7.74,7.74,0,0,0-3.81-1.78,15.4,15.4,0,0,0-7.61.32,18.32,18.32,0,0,0-4.72,2.18C192.07,77.88,191.51,78.31,191.38,78.19Z" style="fill:#263238"></path><path d="M291.67,75.7c-.21-.06.18-1.47.11-4A17,17,0,0,0,288.15,62a15,15,0,0,0-2.43-2.41,12.5,12.5,0,0,0-3.15-1.87,13,13,0,0,0-3.79-1,14.56,14.56,0,0,0-4.16.09,15.43,15.43,0,0,0-8,3.74,13,13,0,0,0-2.82,3.64,6.16,6.16,0,0,0-.68,4.2,3.5,3.5,0,0,0,2.43,2.69,3.55,3.55,0,0,0,3.26-1.37,3.69,3.69,0,0,0,.77-1.64,4.25,4.25,0,0,0-.11-1.87A6,6,0,0,0,267.29,63c-2.11-1.55-5-1.69-7.47-1.19a16.29,16.29,0,0,0-6.46,3,18.89,18.89,0,0,0-6.22,8.4c-.84,2.39-.95,3.85-1.17,3.83s-.39-1.49.2-4.12a18.35,18.35,0,0,1,6-9.55,17.84,17.84,0,0,1,7.15-3.63,14.09,14.09,0,0,1,4.58-.34,9.75,9.75,0,0,1,4.76,1.7,8.38,8.38,0,0,1,3.19,4.4,6.87,6.87,0,0,1,.21,3,6.2,6.2,0,0,1-1.28,2.83,6.66,6.66,0,0,1-2.47,1.91,5.57,5.57,0,0,1-3.3.4,5.39,5.39,0,0,1-2.91-1.72A6.73,6.73,0,0,1,260.63,69a8.68,8.68,0,0,1,.88-6,15.46,15.46,0,0,1,3.43-4.37,17.51,17.51,0,0,1,9.34-4.23,16.77,16.77,0,0,1,4.8,0,15,15,0,0,1,4.37,1.28A14.18,14.18,0,0,1,287,58a16.55,16.55,0,0,1,2.62,2.85,17.76,17.76,0,0,1,2.74,6,16,16,0,0,1,.43,4.89C292.54,74.42,291.8,75.75,291.67,75.7Z" style="fill:#263238"></path><path d="M139.44,357.64s5.54-35.38,13.14-57.19,31.57-27,31.57-27l10.31,89.25Z" style="fill:#18A0FB"></path><path d="M180.82,351.08s-26.94-57.81-14.76-68.86,54.29-19.49,54.29-19.49c22.85,26.52,56.34,14.22,66.32-3.93l44.43,9.79,8.82,3.16-7.83,160.49,24.14,48.21H183.7l25.94-48.21Z" style="fill:#18A0FB"></path><g style="opacity:0.30000000000000004"><path d="M187.08,476.55c4.21,2.66,9.81,1.72,14.29-.46s8.34-5.48,12.83-7.63c11.79-5.64,25.63-2.67,38.56-.8a206.38,206.38,0,0,0,81.86-4.72c4.55-1.55,7.24-2.42,10.85-4,0,0-5.82-11.42-8.18-16.8H249.42l-36.09,7.37-26.25,20.82Z"></path></g><path d="M165.43,452.54s-7.15-1-7-3.68,4.53-13.44,9.12-17.19S209,423.43,209,423.43l16.78,3.24-5.66,29.27s-26.34,20.24-33.2,19.69-12.72,1.8-12.86-7.51c0,0-6.2-3.91-5.05-9.87C169,458.25,163.33,461.41,165.43,452.54Z" style="fill:#ae7461"></path><path d="M322.71,410.44,211.83,424l1.89,32.22s52.65,7.83,91.49,4.24c19.69-1.82,32.32-4.6,40-6.9a18.68,18.68,0,0,0,12.71-13.17c3.56-13.57,9.71-38.92,10-53.12.41-20,5.73-105-24.33-107.35,0,0-11.34-.58-12.61,31.08S322.71,410.44,322.71,410.44Z" style="fill:#ae7461"></path><path d="M322.71,376.33l54.81-9.88s-6.53-41-9.39-53c-9.58-40.23-36-44.47-36-44.47s-.44,11.3-5,34.32c-4,20-1.84,44.67-1.84,44.67Z" style="fill:#18A0FB"></path><path d="M318.82,396.08c20.14-34.78,11-72.4,12.25-90.49" style="fill:#18A0FB"></path><path d="M331.07,305.59a1.1,1.1,0,0,1,0,.24v.7c0,.66,0,1.57,0,2.7s.08,2.62.12,4.27.19,3.57.31,5.66c.47,8.36,1.37,20,.44,32.79a124.72,124.72,0,0,1-2.62,17.88l-1.05,3.93c-.36,1.27-.62,2.52-1.06,3.68s-.8,2.3-1.17,3.38-.7,2.14-1.15,3.09l-2.27,5.2c-.72,1.51-1.45,2.75-2,3.79s-1,1.79-1.3,2.37c-.14.25-.25.45-.35.61a.82.82,0,0,1-.13.2.76.76,0,0,1,.09-.23l.3-.63,1.21-2.41c.52-1.06,1.23-2.3,1.92-3.82s1.38-3.29,2.18-5.21a32.71,32.71,0,0,0,1.12-3.09c.36-1.09.74-2.21,1.13-3.38s.69-2.41,1-3.67l1-3.91a127.17,127.17,0,0,0,2.57-17.82c.93-12.76.09-24.36-.29-32.73-.11-2.1-.16-4-.23-5.67s0-3.09,0-4.28.1-2,.14-2.7l0-.7A.92.92,0,0,1,331.07,305.59Z" style="fill:#263238"></path><path d="M169.47,315.08a1.65,1.65,0,0,1,.1.29c.06.21.13.49.23.84.21.73.46,1.83.86,3.23l1.54,5.07c.64,2,1.33,4.21,2.16,6.67,3.28,9.87,8.07,23.41,13.46,38.34s10.28,28.41,13.83,38.22c1.76,4.9,3.15,8.87,4.09,11.62.45,1.35.8,2.42,1,3.18.11.34.19.62.26.83a1,1,0,0,1,.07.29s-.05-.09-.12-.27l-.31-.81q-.41-1.14-1.14-3.15c-1-2.77-2.46-6.71-4.24-11.56-3.6-9.76-8.59-23.24-14-38.17S177.2,341.2,174,331.3c-.81-2.48-1.48-4.73-2.09-6.71s-1-3.7-1.45-5.1-.6-2.52-.77-3.26l-.19-.85A1.73,1.73,0,0,1,169.47,315.08Z" style="fill:#263238"></path><path d="M340.07,433.48c-.09,0-.57-1.56-1.6-4a43.85,43.85,0,0,0-5.07-9,38.76,38.76,0,0,0-7.22-7.41c-2.1-1.64-3.52-2.49-3.47-2.57a4.67,4.67,0,0,1,1,.53,27.85,27.85,0,0,1,2.65,1.74,35.23,35.23,0,0,1,7.42,7.4,39.62,39.62,0,0,1,5,9.21c.47,1.26.8,2.29,1,3A4.64,4.64,0,0,1,340.07,433.48Z" style="fill:#6f4439"></path><path d="M269.51,341.23a4.94,4.94,0,0,1,.15.84c.06.56.22,1.38.28,2.45a47.37,47.37,0,0,1-.12,9.06,49.74,49.74,0,0,1-36.65,42.84,46.91,46.91,0,0,1-8.93,1.52c-1.07.11-1.9.08-2.46.1a5.08,5.08,0,0,1-.86,0,4.74,4.74,0,0,1,.85-.09c.56-.06,1.39-.06,2.45-.2a50.49,50.49,0,0,0,8.85-1.68,51.43,51.43,0,0,0,12.25-5.23,50.72,50.72,0,0,0,24.42-46.29c0-1.07-.16-1.89-.19-2.45A5.55,5.55,0,0,1,269.51,341.23Z" style="fill:#263238"></path><g style="opacity:0.30000000000000004"><path d="M224.54,397.59a35.1,35.1,0,0,0,36-6.08c9.57-8.54,12.26-22.73,8.72-35.05-1.49,6.25-4.15,15.94-12.63,25.37-7,7.77-21.68,14.58-32.06,15.76"></path></g><path d="M293.44,261.92s0,.08-.11.21l-.37.58a26,26,0,0,1-1.48,2.18,42.6,42.6,0,0,1-6.66,7.07,51,51,0,0,1-5.41,4,51.85,51.85,0,0,1-6.82,3.58,49.35,49.35,0,0,1-8.07,2.75,47.79,47.79,0,0,1-9,1.4,50.26,50.26,0,0,1-9.15-.34,52.08,52.08,0,0,1-8.31-1.88A45.21,45.21,0,0,1,225.17,275a38.33,38.33,0,0,1-7.1-6.61c-.77-.85-1.23-1.62-1.61-2.09-.15-.23-.28-.41-.39-.56s-.13-.2-.12-.2.06.05.16.17l.44.53c.4.45.88,1.19,1.67,2a40.79,40.79,0,0,0,7.17,6.45A46.08,46.08,0,0,0,238.16,281a51.47,51.47,0,0,0,8.24,1.83,50.11,50.11,0,0,0,9,.33,47.91,47.91,0,0,0,8.95-1.38,49.73,49.73,0,0,0,8-2.69,51.8,51.8,0,0,0,6.78-3.51,49.36,49.36,0,0,0,5.4-3.9,44.49,44.49,0,0,0,6.74-6.9c.73-.87,1.19-1.64,1.56-2.11l.4-.56A1.22,1.22,0,0,1,293.44,261.92Z" style="fill:#263238"></path><path d="M146,303.26l25.51,50.61,11.21,2.71c-.17-.48,23.39,62.89,25.81,71.5,6.34,22.51-12.88,35.57-37.23,20.35s-52.26-133.34-52.26-133.34Z" style="fill:#ae7461"></path><path d="M147.05,305.25s2.27-4.28-5.48-11.63l-25.51-18.16-.28-10.76,6.82-1.53s6.81,2.27,8.55-2.54h0a3.35,3.35,0,0,0-2.61-3.09l-4.07-.91s0-2.14-1.07-2.54S110.31,250,110.31,250l-6.94,1.33,2.8-3.07s8.66-5.19,5.73-12.8l-.58-.78L101,240.73s-.26-4.81-3.2-5.88c0,0-18.33,12.09-20.57,15.76C75.1,254,74.78,279.2,76,283.47s28.05,19.77,32.45,23.65,9.22,6.54,13.63,12.15" style="fill:#ae7461"></path><path d="M122.07,319.27s-.14-.14-.4-.44-.63-.75-1.15-1.32A43.59,43.59,0,0,0,115.6,313c-1.14-.93-2.44-1.91-3.86-3-.7-.54-1.44-1.11-2.19-1.73s-1.5-1.3-2.34-1.91c-3.39-2.43-7.44-4.95-11.87-7.83s-9.34-6-14.35-9.76a38.77,38.77,0,0,1-3.67-3.09,6.33,6.33,0,0,1-1.51-2,15.33,15.33,0,0,1-.41-2.5c-.29-3.34-.34-6.78-.34-10.32s.12-7.17.37-10.89c.12-1.85.3-3.73.56-5.62l.24-1.42.35-1.42A5.92,5.92,0,0,1,78.26,249a91.44,91.44,0,0,1,9.28-7.39c3.26-2.35,6.63-4.67,10.08-7l.11-.08.12.05a4.19,4.19,0,0,1,1.49,1,6.36,6.36,0,0,1,1,1.53,10.59,10.59,0,0,1,.89,3.57l-.39-.21,5.31-3.13,5-3,.2-.12.14.19.58.79,0,0v0a9.43,9.43,0,0,1,.58,3.9,9.69,9.69,0,0,1-1.13,3.73,16,16,0,0,1-5.28,5.48l0-.05-2.8,3.07-.24-.42,7-1.33h.06l.06,0,8.06,2.55,3.93,1.25,1,.31a1.48,1.48,0,0,1,.88.73,4.52,4.52,0,0,1,.47,2.08l-.18-.24,2.34.53,1.16.26a6.38,6.38,0,0,1,1.18.33,3.62,3.62,0,0,1,1.79,1.68,3.51,3.51,0,0,1,.36,1.18l0,.16v.07h0s0-.09,0,.09v.05l-.13.28-.26.54a4.85,4.85,0,0,1-1.72,1.65,6.46,6.46,0,0,1-2.24.65,11.76,11.76,0,0,1-4.47-.5h.12l-6.83,1.52.17-.21c.09,3.77.18,7.34.26,10.75l-.08-.15,25.47,18.23h0c3.19,3,5,6,5.54,8.3a6.53,6.53,0,0,1,.13,2.57,2.7,2.7,0,0,1-.27.84,3.72,3.72,0,0,0,.21-.85,6.6,6.6,0,0,0-.19-2.53c-.53-2.21-2.38-5.16-5.58-8.16h0l-25.56-18.1-.08-.06v-.1c-.09-3.41-.19-7-.3-10.75v-.18l.17,0,6.82-1.55h.06l.06,0a11.43,11.43,0,0,0,4.28.47,6.17,6.17,0,0,0,2.07-.6,4.36,4.36,0,0,0,1.54-1.48l.23-.5.12-.25v-.05c0,.19,0,.05,0,.09h0v-.2a3.09,3.09,0,0,0-.32-1,3.13,3.13,0,0,0-1.56-1.46,7.26,7.26,0,0,0-1.1-.3l-1.16-.26-2.34-.52-.18,0v-.19a4.2,4.2,0,0,0-.41-1.84,1,1,0,0,0-.63-.52l-1-.3-3.93-1.24-8.05-2.54h.12l-6.94,1.34-.76.15.52-.57L106,248l0,0,0,0a15.59,15.59,0,0,0,5.09-5.28,9.41,9.41,0,0,0,1.08-3.53,8.93,8.93,0,0,0-.56-3.68l0,.06-.58-.78.34.07-5,3L101.1,241l-.36.21,0-.42a10.5,10.5,0,0,0-.84-3.37A5.72,5.72,0,0,0,99,236a3.5,3.5,0,0,0-1.29-.88l.23,0c-3.44,2.29-6.81,4.6-10.06,6.94a90.4,90.4,0,0,0-9.23,7.34,5.34,5.34,0,0,0-1.56,2.24L76.72,253l-.24,1.4c-.26,1.86-.44,3.73-.57,5.58-.25,3.69-.36,7.32-.38,10.85s0,7,.31,10.28L76,282.3c.07.4.14.8.24,1.18a6.12,6.12,0,0,0,1.4,1.85,39.89,39.89,0,0,0,3.62,3.06c5,3.76,9.87,6.89,14.29,9.8s8.46,5.43,11.84,7.9c.86.62,1.59,1.32,2.34,1.93s1.48,1.2,2.18,1.75c1.41,1.1,2.7,2.09,3.83,3a40.85,40.85,0,0,1,4.88,4.65A22,22,0,0,1,122.07,319.27Z" style="fill:#6f4439"></path><path d="M104.59,251.05a8.1,8.1,0,0,1-1.21.34c-.78.19-1.9.47-3.28.86a34.58,34.58,0,0,0-4.72,1.68A7.52,7.52,0,0,0,93,255.51a8.28,8.28,0,0,0-1,2.89,46.47,46.47,0,0,0-.71,6.11c-.12,1.89-.17,3.6-.2,5S91,272,91,273a7.38,7.38,0,0,1-.07,1.25,5.08,5.08,0,0,1-.14-1.25c0-.8-.09-2-.1-3.41s0-3.16.09-5.06a43.3,43.3,0,0,1,.68-6.19,8.56,8.56,0,0,1,1.15-3.09,7.63,7.63,0,0,1,2.56-1.7,29.47,29.47,0,0,1,4.83-1.6c1.4-.35,2.55-.58,3.34-.71A4.49,4.49,0,0,1,104.59,251.05Z" style="fill:#6f4439"></path><path d="M124.47,256.63s-.49-.11-1.37-.26a20.82,20.82,0,0,0-3.79-.25,40.9,40.9,0,0,0-5.62.46,29.36,29.36,0,0,0-6.65,1.71,4.37,4.37,0,0,0-1.43.9,5.25,5.25,0,0,0-.64,1.53,26.61,26.61,0,0,0-.62,3.26c-.3,2.1-.46,4-.58,5.63-.23,3.22-.28,5.21-.28,5.21s-.22-2-.08-5.23c.07-1.62.19-3.55.46-5.68a27.07,27.07,0,0,1,.61-3.33,5.38,5.38,0,0,1,.73-1.71,4.78,4.78,0,0,1,1.62-1.06,27.78,27.78,0,0,1,6.79-1.7,35.17,35.17,0,0,1,5.69-.36,18.06,18.06,0,0,1,3.83.42,6.62,6.62,0,0,1,1,.3C124.36,256.56,124.48,256.61,124.47,256.63Z" style="fill:#6f4439"></path><path d="M101,240.73a7.52,7.52,0,0,1-1.09.86l-3.05,2.23c-1.28,1-2.81,2.08-4.47,3.37a56,56,0,0,0-5.17,4.45c-1.77,1.66-2.38,4-2.91,6a52.81,52.81,0,0,0-1,5.49c-.2,1.58-.33,2.86-.42,3.75a10.08,10.08,0,0,1-.17,1.38,5.59,5.59,0,0,1,0-1.39c0-.9.1-2.19.26-3.78a45.42,45.42,0,0,1,.89-5.56,21.27,21.27,0,0,1,1-3.21,8.89,8.89,0,0,1,2-3,51,51,0,0,1,5.26-4.47c1.68-1.28,3.23-2.38,4.55-3.29s2.39-1.62,3.15-2.1A7.1,7.1,0,0,1,101,240.73Z" style="fill:#6f4439"></path><path d="M196.47,418.82a2.85,2.85,0,0,1-.12-.3c-.07-.23-.17-.52-.3-.89l-1.1-3.44c-.46-1.5-1.08-3.32-1.81-5.42L192,405.39l-1.36-3.76c-1.88-5.28-4.34-11.49-7.13-18.36s-6.09-14.33-9.62-22.13c-7.09-15.58-13.92-29.5-18.87-39.57-2.46-5-4.46-9.08-5.87-11.92l-1.58-3.26-.39-.85a1.23,1.23,0,0,1-.12-.29,1.48,1.48,0,0,1,.16.27c.12.21.26.48.45.83.4.76,1,1.84,1.66,3.2l6,11.85c5,10,11.92,23.93,19,39.53,3.53,7.8,6.76,15.29,9.58,22.16s5.19,13.11,7,18.42c.46,1.32.91,2.58,1.33,3.77l1.11,3.4c.7,2.11,1.29,3.94,1.72,5.45l1,3.47c.11.38.19.68.26.91A1.21,1.21,0,0,1,196.47,418.82Z" style="fill:#6f4439"></path><path d="M207.42,425.63a4.73,4.73,0,0,1,.24.81c.15.53.34,1.33.56,2.36a43.22,43.22,0,0,1,.94,8.85,23.64,23.64,0,0,1-.82,6.12,13.52,13.52,0,0,1-3.61,6.08,23.52,23.52,0,0,1-14.65,6.41,20.31,20.31,0,0,1-8.33-1.14,30.32,30.32,0,0,1-6.79-3.9,60.73,60.73,0,0,1-9.71-9,51.92,51.92,0,0,1-5.29-7.15c-.55-.9-.94-1.62-1.19-2.11a4.93,4.93,0,0,1-.36-.77,7.22,7.22,0,0,1,.45.72c.28.48.7,1.17,1.27,2.05a57.84,57.84,0,0,0,5.4,7,61.76,61.76,0,0,0,9.71,8.8,29.52,29.52,0,0,0,6.69,3.81,19.91,19.91,0,0,0,8.11,1.1,23.18,23.18,0,0,0,14.35-6.23,13.06,13.06,0,0,0,3.54-5.86,23.67,23.67,0,0,0,.86-6,46.28,46.28,0,0,0-.77-8.81c-.19-1-.34-1.83-.46-2.37A6.28,6.28,0,0,1,207.42,425.63Z" style="fill:#6f4439"></path></g></svg>
