<svg width="481" height="481" viewBox="0 0 481 481" fill="none" xmlns="http://www.w3.org/2000/svg">
<path d="M240.5 468.802C365.27 468.802 466.416 410.403 466.416 338.364C466.416 266.326 365.27 207.927 240.5 207.927C115.73 207.927 14.5839 266.326 14.5839 338.364C14.5839 410.403 115.73 468.802 240.5 468.802Z" fill="#F5F5F5"/>
<path d="M335.911 270.072L145.089 380.221C143.519 381.126 141.739 381.602 139.928 381.602C138.116 381.602 136.336 381.126 134.767 380.221L124.694 374.449C124.129 374.123 123.659 373.655 123.333 373.09C123.006 372.525 122.834 371.884 122.834 371.231C122.834 370.579 123.006 369.938 123.333 369.373C123.659 368.808 124.129 368.339 124.694 368.013L315.536 257.816C317.104 256.913 318.882 256.438 320.692 256.438C322.502 256.438 324.28 256.913 325.849 257.816L335.921 263.636C336.483 263.965 336.95 264.435 337.274 265C337.598 265.565 337.768 266.206 337.767 266.857C337.766 267.508 337.594 268.148 337.268 268.712C336.943 269.276 336.475 269.745 335.911 270.072Z" fill="#E0E0E0"/>
<path d="M306.666 393.632C329.326 393.632 347.696 383.028 347.696 369.947C347.696 356.867 329.326 346.263 306.666 346.263C284.007 346.263 265.637 356.867 265.637 369.947C265.637 383.028 284.007 393.632 306.666 393.632Z" fill="#E0E0E0"/>
<path d="M386.108 304.011C403.848 304.011 418.23 295.707 418.23 285.464C418.23 275.22 403.848 266.917 386.108 266.917C368.368 266.917 353.987 275.22 353.987 285.464C353.987 295.707 368.368 304.011 386.108 304.011Z" fill="#E0E0E0"/>
<path d="M95.161 419.827C112.901 419.827 127.282 411.523 127.282 401.279C127.282 391.036 112.901 382.732 95.161 382.732C77.421 382.732 63.0399 391.036 63.0399 401.279C63.0399 411.523 77.421 419.827 95.161 419.827Z" fill="#E0E0E0"/>
<path d="M132.525 156.181L326.118 44.4253C328.34 43.1459 330.332 43.2421 331.746 44.4253L338.48 49.0622L333.814 54.6995V210.784C333.814 216.508 330.341 223.146 326.051 225.628L134.42 336.258L134.064 342.347L127.003 337.537C125.599 336.479 124.733 334.391 124.733 331.534V171.015C124.762 165.291 128.235 158.653 132.525 156.181Z" fill="#18A0FB"/>
<path opacity="0.4" d="M132.525 156.181L326.118 44.4253C328.34 43.1459 330.332 43.2421 331.746 44.4253L338.48 49.0622L333.814 54.6995V210.784C333.814 216.508 330.341 223.146 326.051 225.628L134.42 336.258L134.064 342.347L127.003 337.537C125.599 336.479 124.733 334.391 124.733 331.534V171.015C124.762 165.291 128.235 158.653 132.525 156.181Z" fill="white"/>
<path d="M131.351 336.036V175.546C131.434 172.301 132.331 169.129 133.958 166.32L127.042 162.357C125.614 165.025 124.833 167.99 124.762 171.015V331.505C124.762 334.391 125.628 336.45 127.032 337.508L133.535 341.962C132.188 340.885 131.351 338.836 131.351 336.036Z" fill="#18A0FB"/>
<path opacity="0.2" d="M131.351 336.036V175.546C131.434 172.301 132.331 169.129 133.958 166.32L127.042 162.357C125.614 165.025 124.833 167.99 124.762 171.015V331.505C124.762 334.391 125.628 336.45 127.032 337.508L133.535 341.962C132.188 340.885 131.351 338.836 131.351 336.036Z" fill="white"/>
<path d="M139.115 341.914L332.669 230.159C336.96 227.687 340.433 221.039 340.433 215.325V54.8344C340.433 49.1201 336.96 46.4939 332.669 48.9662L139.115 160.712C134.824 163.194 131.351 169.832 131.351 175.546V336.037C131.351 341.761 134.824 344.396 139.115 341.914Z" fill="#18A0FB"/>
<path d="M139.115 341.914L332.669 230.159C336.96 227.687 340.433 221.039 340.433 215.325V54.8344C340.433 49.1201 336.96 46.4939 332.669 48.9662L139.115 160.712C134.824 163.194 131.351 169.832 131.351 175.546V336.037C131.351 341.761 134.824 344.396 139.115 341.914Z" fill="#18A0FB"/>
<path opacity="0.7" d="M139.115 341.914L332.669 230.159C336.96 227.687 340.433 221.039 340.433 215.325V54.8344C340.433 49.1201 336.96 46.4939 332.669 48.9662L139.115 160.712C134.824 163.194 131.351 169.832 131.351 175.546V336.037C131.351 341.761 134.824 344.396 139.115 341.914Z" fill="white"/>
<path d="M139.115 160.712L332.669 48.9662C336.96 46.4939 340.433 49.1201 340.433 54.8344V62.6843L131.351 183.396V175.546C131.351 169.832 134.824 163.194 139.115 160.712Z" fill="#18A0FB"/>
<path opacity="0.5" d="M139.115 160.712L332.669 48.9662C336.96 46.4939 340.433 49.1201 340.433 54.8344V62.6843L131.351 183.396V175.546C131.351 169.832 134.824 163.194 139.115 160.712Z" fill="white"/>
<path d="M335.738 48.7927C338.114 48.7927 339.663 51.1688 339.663 54.8341V215.324C339.663 220.789 336.344 227.157 332.275 229.504L138.74 341.25C137.929 341.764 136.996 342.053 136.036 342.087C133.651 342.087 132.111 339.711 132.111 336.036V175.546C132.111 170.082 135.421 163.723 139.5 161.366L333.054 49.62C333.867 49.1119 334.799 48.8266 335.757 48.7927M335.757 48.0327C334.661 48.0747 333.595 48.4067 332.669 48.9947L139.115 160.712C134.824 163.194 131.351 169.832 131.351 175.546V336.036C131.351 340.298 133.275 342.838 136.036 342.838C137.129 342.791 138.19 342.459 139.115 341.876L332.669 230.12C336.96 227.648 340.433 221 340.433 215.286V54.8341C340.433 50.582 338.508 48.0327 335.757 48.0327Z" fill="#18A0FB"/>
<path d="M148.773 298.711C148.328 298.711 147.895 298.565 147.542 298.294C147.189 298.023 146.935 297.643 146.82 297.213C146.704 296.783 146.735 296.327 146.905 295.916C147.076 295.505 147.377 295.162 147.763 294.94L205.868 261.395C206.098 261.244 206.356 261.142 206.626 261.095C206.897 261.048 207.174 261.056 207.441 261.12C207.709 261.183 207.96 261.301 208.18 261.465C208.401 261.629 208.585 261.836 208.723 262.074C208.86 262.311 208.948 262.574 208.98 262.847C209.013 263.12 208.989 263.396 208.911 263.66C208.833 263.923 208.702 264.168 208.526 264.379C208.35 264.589 208.133 264.762 207.888 264.887L149.783 298.432C149.479 298.616 149.129 298.713 148.773 298.711Z" fill="#FAFAFA"/>
<path d="M148.773 311.371C148.327 311.376 147.892 311.232 147.537 310.963C147.181 310.693 146.925 310.313 146.81 309.882C146.694 309.451 146.725 308.994 146.897 308.583C147.07 308.171 147.375 307.829 147.763 307.61L230.495 259.817C230.725 259.685 230.979 259.599 231.242 259.564C231.505 259.53 231.773 259.547 232.029 259.616C232.285 259.685 232.526 259.803 232.736 259.965C232.947 260.127 233.123 260.328 233.256 260.558C233.389 260.788 233.475 261.042 233.509 261.305C233.544 261.568 233.526 261.836 233.458 262.092C233.389 262.348 233.27 262.589 233.109 262.799C232.947 263.01 232.745 263.186 232.515 263.319L149.783 311.102C149.476 311.279 149.128 311.372 148.773 311.371Z" fill="#FAFAFA"/>
<path d="M240.683 270.976C240.237 270.981 239.802 270.838 239.446 270.568C239.091 270.299 238.835 269.918 238.719 269.487C238.603 269.057 238.634 268.599 238.807 268.188C238.98 267.777 239.284 267.434 239.673 267.215L296.921 234.161C297.151 234.01 297.409 233.908 297.68 233.861C297.95 233.814 298.228 233.822 298.495 233.886C298.762 233.949 299.013 234.067 299.234 234.231C299.454 234.395 299.638 234.602 299.776 234.84C299.914 235.077 300.001 235.341 300.033 235.613C300.066 235.886 300.042 236.162 299.964 236.426C299.886 236.689 299.755 236.934 299.579 237.145C299.403 237.356 299.186 237.529 298.942 237.653L241.683 270.707C241.379 270.883 241.034 270.976 240.683 270.976Z" fill="#FAFAFA"/>
<path d="M148.773 324.04C148.328 324.041 147.895 323.894 147.542 323.623C147.189 323.353 146.935 322.973 146.82 322.543C146.704 322.113 146.735 321.657 146.905 321.246C147.076 320.834 147.377 320.491 147.763 320.269L221.616 277.633C222.08 277.365 222.632 277.293 223.15 277.432C223.668 277.571 224.109 277.91 224.377 278.374C224.645 278.838 224.717 279.39 224.578 279.908C224.439 280.426 224.1 280.867 223.636 281.135L149.783 323.771C149.476 323.948 149.128 324.041 148.773 324.04Z" fill="#FAFAFA"/>
<path d="M148.773 193.545C148.328 193.546 147.895 193.399 147.542 193.128C147.189 192.857 146.935 192.478 146.82 192.048C146.704 191.618 146.735 191.162 146.905 190.75C147.076 190.339 147.377 189.996 147.763 189.774L205.868 156.229C206.098 156.079 206.356 155.977 206.626 155.93C206.897 155.882 207.174 155.891 207.441 155.954C207.709 156.018 207.96 156.135 208.18 156.299C208.401 156.463 208.585 156.67 208.723 156.908C208.86 157.146 208.948 157.409 208.98 157.682C209.013 157.954 208.989 158.231 208.911 158.494C208.833 158.757 208.702 159.002 208.526 159.213C208.35 159.424 208.133 159.597 207.888 159.721L149.783 193.276C149.476 193.453 149.128 193.546 148.773 193.545Z" fill="#FAFAFA"/>
<path d="M148.773 206.214C148.328 206.215 147.895 206.068 147.542 205.797C147.189 205.527 146.935 205.147 146.82 204.717C146.704 204.287 146.735 203.831 146.905 203.42C147.076 203.009 147.377 202.665 147.763 202.443L230.495 154.661C230.725 154.51 230.983 154.408 231.254 154.361C231.524 154.314 231.801 154.322 232.069 154.386C232.336 154.449 232.587 154.567 232.808 154.731C233.028 154.895 233.212 155.102 233.35 155.34C233.487 155.577 233.575 155.841 233.607 156.113C233.64 156.386 233.616 156.662 233.538 156.926C233.46 157.189 233.329 157.434 233.153 157.645C232.977 157.856 232.76 158.029 232.515 158.153L149.783 205.935C149.479 206.12 149.129 206.217 148.773 206.214Z" fill="#FAFAFA"/>
<path d="M240.683 165.82C240.238 165.821 239.805 165.674 239.452 165.403C239.098 165.132 238.844 164.753 238.729 164.323C238.614 163.893 238.644 163.437 238.815 163.026C238.985 162.614 239.287 162.271 239.673 162.049L296.921 128.995C297.151 128.844 297.409 128.742 297.68 128.695C297.95 128.648 298.228 128.656 298.495 128.72C298.762 128.783 299.013 128.901 299.234 129.065C299.454 129.229 299.638 129.436 299.776 129.674C299.914 129.911 300.001 130.175 300.033 130.447C300.066 130.72 300.042 130.996 299.964 131.26C299.886 131.523 299.755 131.768 299.579 131.979C299.403 132.19 299.186 132.363 298.942 132.487L241.683 165.541C241.382 165.724 241.036 165.821 240.683 165.82Z" fill="#FAFAFA"/>
<path d="M148.773 218.874C148.327 218.879 147.892 218.735 147.537 218.466C147.181 218.196 146.925 217.816 146.81 217.385C146.694 216.954 146.725 216.497 146.897 216.086C147.07 215.674 147.375 215.332 147.763 215.113L221.616 172.477C222.077 172.243 222.609 172.195 223.105 172.342C223.6 172.489 224.02 172.82 224.279 173.267C224.537 173.714 224.615 174.243 224.495 174.746C224.376 175.248 224.068 175.686 223.636 175.969L149.783 218.605C149.476 218.782 149.128 218.875 148.773 218.874Z" fill="#FAFAFA"/>
<path d="M147.831 165.599C147.779 166.606 147.491 167.586 146.989 168.46C146.488 169.334 145.787 170.078 144.945 170.63C143.338 171.592 142.059 170.803 142.059 168.956C142.11 167.95 142.398 166.97 142.9 166.095C143.401 165.221 144.102 164.478 144.945 163.925C146.532 162.992 147.831 163.742 147.831 165.599Z" fill="white"/>
<path d="M158.076 159.692C158.024 160.699 157.736 161.679 157.235 162.553C156.733 163.427 156.033 164.171 155.19 164.724C153.583 165.686 152.304 164.897 152.304 163.05C152.355 162.043 152.643 161.063 153.145 160.189C153.646 159.315 154.347 158.571 155.19 158.018C156.806 157.076 158.076 157.826 158.076 159.692Z" fill="white"/>
<path d="M168.35 153.766C168.299 154.773 168.01 155.753 167.509 156.627C167.007 157.502 166.307 158.245 165.464 158.798C163.857 159.76 162.578 158.971 162.578 157.124C162.629 156.117 162.918 155.137 163.419 154.263C163.921 153.389 164.621 152.645 165.464 152.093C167.022 151.159 168.35 151.91 168.35 153.766Z" fill="white"/>
<path d="M188.696 205.147L184.569 203.357V160.577L188.696 162.366V205.147Z" fill="#18A0FB"/>
<path opacity="0.6" d="M188.696 205.147L184.569 203.357V160.577L188.696 162.366V205.147Z" fill="black"/>
<path d="M356.556 65.2431L188.696 162.367L184.569 160.577L352.419 63.4634L356.556 65.2431Z" fill="#18A0FB"/>
<path opacity="0.4" d="M356.556 65.2431L188.696 162.367L184.569 160.577L352.419 63.4634L356.556 65.2431Z" fill="black"/>
<path d="M356.556 108.023L188.696 205.147V162.367L356.556 65.2432V108.023Z" fill="#18A0FB"/>
<path opacity="0.3" d="M356.556 108.023L188.696 205.147V162.367L356.556 65.2432V108.023Z" fill="black"/>
<path d="M258.157 130.552L251.793 161.478L248.255 163.512L254.618 132.586L258.157 130.552Z" fill="white"/>
<path d="M400.99 174.776L404.319 178.749C404.731 182.408 405.518 186.016 406.666 189.514C408.59 195.719 408.263 198.345 408.263 198.345L415.324 197.797L412.506 175.671C412.312 174.192 411.804 172.771 411.015 171.506L409.302 168.745L400.99 174.776Z" fill="#945959"/>
<path d="M404.858 286.84C404.858 286.84 400.423 290.293 400.846 292.333C401.269 294.372 408.186 295.344 411.544 291.371C413.035 289.61 414.093 286.022 414.228 281.645C414.295 279.461 417.046 276.229 414.228 273.949C411.409 271.669 410.283 271.13 409.581 271.419C408.879 271.708 404.858 286.84 404.858 286.84Z" fill="#37474F"/>
<path d="M401.548 270.149L404.155 275.71C404.155 275.71 405.002 283.742 404.858 286.84C404.858 286.84 408.879 289.303 410.072 284.637C410.53 282.422 410.743 280.164 410.707 277.903C410.267 276.339 410.082 274.715 410.158 273.093C410.226 272.592 410.197 272.082 410.072 271.592L408.879 266.686L401.548 270.149Z" fill="#945959"/>
<path d="M365.406 279.327C365.406 279.327 363.8 280.404 362.674 281.202C361.548 282.001 356.835 285.916 363.424 287.119C365.068 287.353 366.743 287.209 368.322 286.697C369.9 286.185 371.341 285.319 372.535 284.165C375.776 280.972 378.124 281.962 379.269 280.693C380.413 279.423 379.576 272.333 377.97 272.66L365.406 279.327Z" fill="#37474F"/>
<path d="M370.889 266.84L371.399 271.428C371.44 271.819 371.377 272.214 371.217 272.573C370.745 273.583 369.379 275.786 365.445 279.307C365.445 279.307 365.377 282.857 370.36 281.145C371.72 280.508 373.01 279.731 374.208 278.826C374.79 278.413 375.27 277.874 375.613 277.248C376.206 276.115 376.986 275.091 377.922 274.218L378.441 266.82L370.889 266.84Z" fill="#945959"/>
<path d="M366.522 189.148C366.522 189.148 365.137 196.027 365.425 209.081C365.608 217.855 365.791 224.415 365.877 227.782C365.924 229.453 366.062 231.12 366.291 232.775L370.87 266.84C372.028 267.452 373.317 267.772 374.627 267.772C375.936 267.772 377.226 267.452 378.383 266.84C378.383 266.84 379.038 259.326 379.788 255.382C380.461 251.89 381.346 241.683 379.576 236.335C379.08 234.782 378.954 233.134 379.211 231.525L384.415 197.21L366.522 189.148Z" fill="#455A64"/>
<path d="M370.081 197.037C370.668 198.587 371.569 199.998 372.728 201.182C373.887 202.366 375.279 203.297 376.815 203.915L380.615 222.444L384.463 197.249L370.081 197.037Z" fill="#37474F"/>
<path d="M368.071 188.793C368.071 188.793 367.109 197.153 374.083 200.414C375.462 201.138 376.931 201.678 378.451 202.02C378.451 202.02 384.155 236.037 385.185 238.576C386.214 241.116 401.539 270.13 401.539 270.13C401.539 270.13 407.599 271.4 408.869 266.676C408.869 266.676 407.532 260.481 405.839 253.718C404.415 248.023 402.741 241.578 399.807 238.422C398.683 237.249 398.064 235.68 398.085 234.055C398.21 228.523 398.46 216.912 398.509 213.786C398.586 209.63 400.134 196.383 397.46 191.034L389.206 183.492L368.071 188.793Z" fill="#455A64"/>
<path d="M362.347 142.126L356.132 138.432C356.132 138.432 352.179 133.439 348.975 128.995C345.772 124.55 344.425 122.261 344.425 122.261C345.432 120.728 346.016 118.955 346.118 117.124C346.118 114.449 345.974 113.18 346.474 112.189C346.974 111.198 346.474 110.149 345.137 110.573C343.8 110.996 342.809 113.872 343.213 115.748L335.748 120.077C335.748 120.077 336.989 123.396 338.701 124.945C338.701 124.945 345.541 141.424 348.215 144.098C350.89 146.773 355.565 150.399 355.565 150.399L362.347 142.126Z" fill="#945959"/>
<path d="M375.113 149.707L362.347 142.126C362.347 142.126 356.44 142.54 355.613 150.37L366.782 158.74L375.113 149.707Z" fill="#18A0FB"/>
<path opacity="0.2" d="M375.113 149.707L362.347 142.126C362.347 142.126 356.44 142.54 355.613 150.37L366.782 158.74L375.113 149.707Z" fill="black"/>
<path d="M377.585 149.707L386.108 150.13L391.678 150.409L392.64 163.579C392.64 163.579 391.168 171.188 390.043 173.862C388.917 176.537 396.306 187.532 397.508 191.053C397.508 191.053 392.785 191.688 390.389 186.243C389.304 188.853 387.453 191.072 385.082 192.609C382.71 194.146 379.929 194.928 377.104 194.853C370.312 194.853 366.522 189.149 366.522 189.149L368.071 179.529C367.128 176.587 366.606 173.526 366.522 170.438C366.522 170.438 362.674 169.024 363.549 163.328C364.425 157.633 375.093 149.735 375.093 149.735L377.585 149.707Z" fill="#18A0FB"/>
<path d="M394.997 128.437C394.997 128.437 399.875 124.406 404.088 128.995C410.149 135.604 397.046 148.581 408.667 148.86C408.667 148.86 407.33 150.409 402.818 150.409C398.306 150.409 394.439 145.743 395.209 137.162L394.997 128.437Z" fill="#263238"/>
<path d="M393.458 128.225C393.458 128.225 395.016 127.263 395.613 127.956C396.209 128.648 396.998 134.026 395.218 137.162C394.372 138.644 392.688 136.604 392.688 136.604L393.458 128.225Z" fill="#18A0FB"/>
<path d="M367.32 128.995C367.32 128.995 367.388 134.565 363.8 133.016C364.095 133.754 364.615 134.381 365.287 134.808C365.959 135.234 366.748 135.439 367.542 135.392C369.514 135.392 370.649 133.468 370.649 131.958L367.32 128.995Z" fill="#263238"/>
<path d="M386.162 136.241C391.328 133.182 393.037 126.515 389.978 121.349C386.919 116.183 380.251 114.474 375.085 117.533C369.919 120.592 368.211 127.26 371.27 132.426C374.329 137.592 380.996 139.3 386.162 136.241Z" fill="#263238"/>
<path d="M394.574 131.958C394.574 137.961 389.216 145.589 383.213 145.589C381.786 145.591 380.372 145.311 379.053 144.765C377.735 144.22 376.536 143.42 375.527 142.412C374.517 141.403 373.716 140.205 373.17 138.887C372.623 137.569 372.342 136.156 372.342 134.728C372.342 128.726 377.21 121.886 383.213 121.886C389.216 121.886 394.574 123.925 394.574 131.958Z" fill="#263238"/>
<path d="M377.96 125.58C377.962 126.842 377.59 128.076 376.89 129.126C376.19 130.176 375.195 130.995 374.03 131.479C372.864 131.963 371.582 132.091 370.344 131.846C369.106 131.601 367.969 130.994 367.076 130.103C366.183 129.211 365.574 128.075 365.327 126.837C365.08 125.6 365.206 124.317 365.689 123.151C366.171 121.985 366.989 120.988 368.038 120.287C369.087 119.586 370.32 119.211 371.582 119.211C373.272 119.211 374.893 119.882 376.089 121.076C377.285 122.27 377.958 123.89 377.96 125.58Z" fill="#263238"/>
<path d="M377.585 143.858V149.707C377.585 149.707 372.121 155.2 377.441 155.681C382.761 156.162 386.099 150.13 386.099 150.13V138.98L377.585 143.858Z" fill="#945959"/>
<path d="M386.012 137.22V137.566C384.088 145.06 379.172 146.696 377.585 147.071L377.527 135.469H385.772L386.012 137.22Z" fill="#703838"/>
<path d="M379.124 120.529C376.398 120.705 373.848 121.939 372.019 123.968C370.19 125.997 369.225 128.66 369.331 131.39C369.235 139.692 370.505 146.022 374.805 146.282C379.105 146.542 388.715 142.665 389.168 131.852C389.62 121.039 382.193 120.25 379.124 120.529Z" fill="#945959"/>
<path d="M375.142 134.729L375.219 139.596L372.352 138.769L375.142 134.729Z" fill="#703838"/>
<path d="M379.422 134.594C379.422 134.782 379.367 134.966 379.263 135.123C379.159 135.28 379.012 135.403 378.839 135.477C378.666 135.551 378.475 135.572 378.29 135.539C378.105 135.506 377.933 135.419 377.797 135.289C377.661 135.159 377.565 134.992 377.523 134.809C377.481 134.626 377.493 134.434 377.559 134.258C377.624 134.081 377.74 133.928 377.892 133.817C378.043 133.705 378.224 133.641 378.412 133.632C378.543 133.625 378.673 133.645 378.795 133.691C378.918 133.736 379.029 133.806 379.124 133.896C379.218 133.986 379.294 134.094 379.345 134.214C379.396 134.334 379.423 134.463 379.422 134.594Z" fill="#263238"/>
<path d="M372.881 133.997C372.881 134.187 372.824 134.373 372.719 134.532C372.613 134.69 372.463 134.813 372.287 134.886C372.111 134.959 371.918 134.978 371.731 134.941C371.545 134.904 371.373 134.812 371.239 134.677C371.104 134.543 371.012 134.371 370.975 134.185C370.938 133.998 370.957 133.805 371.03 133.629C371.103 133.453 371.226 133.303 371.384 133.197C371.543 133.092 371.729 133.035 371.919 133.035C372.174 133.035 372.419 133.137 372.599 133.317C372.779 133.497 372.881 133.742 372.881 133.997Z" fill="#263238"/>
<path d="M370.649 131.958L372.573 130.774C372.573 130.774 371.823 130.014 371.082 130.486C370.871 130.66 370.716 130.893 370.639 131.155C370.562 131.418 370.566 131.697 370.649 131.958Z" fill="#18A0FB"/>
<path d="M374.574 141.299C375.58 140.813 376.56 140.274 377.508 139.683C377.508 139.683 378.124 141.28 376.825 141.934C376.434 142.104 375.997 142.134 375.586 142.018C375.176 141.902 374.818 141.648 374.574 141.299Z" fill="#703838"/>
<path d="M370.649 131.958L372.573 130.774C372.573 130.774 371.823 130.014 371.082 130.486C370.871 130.66 370.716 130.893 370.639 131.155C370.562 131.418 370.566 131.697 370.649 131.958Z" fill="#263238"/>
<path d="M384.309 134.142C384.309 134.142 384.117 137.634 386.128 137.634H390.072V130.977C390.072 123.512 384.406 115.71 372.352 121.876C372.352 121.876 371.765 131.843 384.309 134.142Z" fill="#263238"/>
<path d="M385.829 137.787C385.803 137.027 385.951 136.27 386.262 135.575C386.413 135.142 386.688 134.763 387.052 134.484C387.416 134.205 387.854 134.039 388.311 134.007C390.659 134.007 390.947 136.229 390.909 137.037C390.81 138.282 390.231 139.441 389.294 140.266C388.357 141.092 387.135 141.521 385.887 141.462L385.829 137.787Z" fill="#945959"/>
<path d="M390.909 150.371C390.909 150.371 385.368 155.892 392.438 164.416C399.509 172.939 400.99 174.777 400.99 174.777C400.99 174.777 408.244 175.488 409.302 168.793C409.302 168.793 400.779 156.816 398.451 153.795C396.123 150.775 394.006 150.525 390.909 150.371Z" fill="#18A0FB"/>
<path opacity="0.2" d="M390.909 150.371C390.909 150.371 385.368 155.892 392.438 164.416C399.509 172.939 400.99 174.777 400.99 174.777C400.99 174.777 408.244 175.488 409.302 168.793C409.302 168.793 400.779 156.816 398.451 153.795C396.123 150.775 394.006 150.525 390.909 150.371Z" fill="black"/>
<path opacity="0.3" d="M374.786 171.121C374.786 171.121 383.27 173.487 386.108 165.416C386.108 165.464 384.646 175.488 374.786 171.121Z" fill="black"/>
<path d="M408.263 198.374C408.263 198.374 406.916 199.163 406.599 201.982C406.503 202.79 405.021 204.589 405.243 205.041C405.464 205.493 406.945 206.109 408.542 203.463C408.832 204.805 408.851 206.192 408.6 207.542C408.167 209.629 407.417 212.304 410.139 211.717C412.862 211.13 416.873 208.975 416.238 204.916C415.651 201 415.324 197.826 415.324 197.826L408.263 198.374Z" fill="#945959"/>
<path d="M248.013 250.909L243.877 249.129V206.349L248.013 208.129V250.909Z" fill="#18A0FB"/>
<path opacity="0.6" d="M248.013 250.909L243.877 249.129V206.349L248.013 208.129V250.909Z" fill="black"/>
<path d="M344.521 152.294L248.013 208.129L243.877 206.349L340.384 150.515L344.521 152.294Z" fill="#18A0FB"/>
<path opacity="0.4" d="M344.521 152.294L248.013 208.129L243.877 206.349L340.384 150.515L344.521 152.294Z" fill="black"/>
<path d="M344.521 195.075L248.013 250.909V208.129L344.521 152.294V195.075Z" fill="#18A0FB"/>
<path opacity="0.3" d="M344.521 195.075L248.013 250.909V208.129L344.521 152.294V195.075Z" fill="black"/>
<path d="M290.811 199.727L286.87 201.992C286.798 201.445 286.651 201.007 286.429 200.678C286.207 200.342 285.922 200.111 285.574 199.986C285.226 199.861 284.824 199.843 284.368 199.932C283.918 200.018 283.429 200.212 282.901 200.515C281.947 201.064 281.116 201.815 280.408 202.768C279.7 203.715 279.152 204.819 278.762 206.081C278.372 207.336 278.177 208.701 278.177 210.174C278.177 211.69 278.372 212.851 278.762 213.658C279.158 214.461 279.709 214.922 280.417 215.042C281.125 215.161 281.944 214.953 282.874 214.418C283.396 214.118 283.879 213.761 284.323 213.347C284.773 212.929 285.172 212.468 285.52 211.964C285.868 211.452 286.156 210.91 286.384 210.336C286.618 209.759 286.78 209.16 286.87 208.541L290.811 206.297C290.709 207.331 290.454 208.419 290.046 209.56C289.644 210.69 289.101 211.808 288.417 212.914C287.74 214.009 286.93 215.035 285.988 215.992C285.052 216.938 283.993 217.751 282.811 218.43C281.167 219.375 279.697 219.79 278.402 219.677C277.112 219.56 276.092 218.904 275.342 217.709C274.598 216.511 274.226 214.756 274.226 212.445C274.226 210.127 274.604 207.938 275.36 205.877C276.116 203.816 277.142 201.988 278.438 200.392C279.733 198.79 281.191 197.523 282.811 196.592C283.879 195.978 284.869 195.582 285.781 195.404C286.699 195.223 287.512 195.261 288.22 195.518C288.927 195.768 289.503 196.244 289.947 196.943C290.397 197.64 290.685 198.567 290.811 199.727Z" fill="white"/>
<path d="M298.573 198.78V190.285L300.431 189.208V197.703L298.573 198.78ZM295.828 197.199V195.051L303.176 190.789V192.937L295.828 197.199ZM298.573 218.78V210.285L300.431 209.208V217.703L298.573 218.78ZM295.828 217.199V215.051L303.176 210.789V212.937L295.828 217.199Z" fill="white"/>
<path d="M332.015 368.542C332.015 368.542 335.94 366.349 336.431 363.906C336.921 361.462 332.583 355.834 332.583 355.834C332.583 355.834 329.398 357.653 332.015 368.542Z" fill="#18A0FB"/>
<path opacity="0.2" d="M332.015 368.542C332.015 368.542 335.94 366.349 336.431 363.906C336.921 361.462 332.583 355.834 332.583 355.834C332.583 355.834 329.398 357.653 332.015 368.542Z" fill="black"/>
<path d="M283.963 376.113L289.687 372.737L290.437 367.003L288.465 366.542L283.963 376.113Z" fill="#18A0FB"/>
<path opacity="0.3" d="M283.963 376.113L289.687 372.737L290.437 367.003L288.465 366.542L283.963 376.113Z" fill="black"/>
<path d="M317.864 343.155L323.213 351.698L326.782 363.53C326.782 363.53 333.371 362.712 329.225 347.522L326.118 338.364L317.864 343.155Z" fill="#FFA8A7"/>
<path d="M282.828 346.32L283.954 359.933L280.019 370.37C280.019 370.37 281.991 375.248 288.186 364.925C291.476 359.442 291.582 358.355 291.582 358.355L292.881 346.33L282.828 346.32Z" fill="#FFA8A7"/>
<path d="M287.936 213.718L285.926 217.701C285.896 217.759 285.879 217.823 285.876 217.888C285.874 217.953 285.885 218.018 285.91 218.078C285.934 218.138 285.972 218.193 286.019 218.237C286.067 218.282 286.124 218.315 286.185 218.336L288.571 219.125L287.936 213.718Z" fill="#F28F8F"/>
<path d="M290.726 207.042C290.726 207.042 287.638 208.687 287.638 218.115C287.638 223.3 287.994 226.609 290.688 226.407C293.381 226.205 301.135 225.185 301.135 225.185V207.042H290.726Z" fill="#FFA8A7"/>
<path d="M290.726 226.407C291.688 226.33 293.246 226.157 294.882 225.964V225.002C293.404 225.641 291.858 226.109 290.274 226.397C290.424 226.415 290.575 226.418 290.726 226.407Z" fill="#F28F8F"/>
<path d="M294.42 224.599V230.524H302.52V222.203L294.42 224.599Z" fill="#FFA8A7"/>
<path d="M308.283 245.387L313.545 256.19L309.6 261.356L312.323 270.582L320.779 260.606C321.514 259.741 322.001 258.693 322.189 257.574C322.377 256.454 322.259 255.305 321.847 254.247C319.519 248.263 314.891 236.488 313.641 234.401C311.948 231.582 309.928 230.081 306.907 230.178C303.886 230.274 308.283 245.387 308.283 245.387Z" fill="#FFA8A7"/>
<path d="M310.822 263.136C312.044 266.801 314.67 271.957 314.593 289.283C314.516 301.394 314.593 308.215 314.709 311.217C314.729 312.291 315.147 313.319 315.882 314.103C317.171 315.43 319.365 318.287 321.433 323.723C323.274 328.509 324.838 333.398 326.118 338.364C326.118 338.364 324.617 343.251 317.854 343.174L300.942 315.998C300.267 314.905 299.831 313.682 299.663 312.409L295.219 278.653V264.829L310.822 263.136Z" fill="#18A0FB"/>
<path opacity="0.6" d="M310.822 263.136C312.044 266.801 314.67 271.957 314.593 289.283C314.516 301.394 314.593 308.215 314.709 311.217C314.729 312.291 315.147 313.319 315.882 314.103C317.171 315.43 319.365 318.287 321.433 323.723C323.274 328.509 324.838 333.398 326.118 338.364C326.118 338.364 324.617 343.251 317.854 343.174L300.942 315.998C300.267 314.905 299.831 313.682 299.663 312.409L295.219 278.653V264.829L310.822 263.136Z" fill="black"/>
<path d="M298.797 305.704L303.492 288.869C303.492 288.869 310.091 282.135 307.744 270.591L297.768 283.155L298.268 302.318L298.797 305.704Z" fill="#18A0FB"/>
<path opacity="0.7" d="M298.797 305.704L303.492 288.869C303.492 288.869 310.091 282.135 307.744 270.591L297.768 283.155L298.268 302.318L298.797 305.704Z" fill="black"/>
<path d="M283.299 264.079C283.02 269.524 280.067 303.424 280.49 313.285C280.914 323.145 282.828 346.32 282.828 346.32C282.828 346.32 289.206 348.956 292.871 346.32C292.871 346.32 294.42 337.181 295.43 329.966C296.047 326.232 295.92 322.414 295.055 318.73C294.704 317.377 294.704 315.956 295.055 314.603L302.251 286.984C302.251 286.984 308.465 282.626 308.465 270.572V261.529L283.299 264.079Z" fill="#18A0FB"/>
<path opacity="0.6" d="M283.299 264.079C283.02 269.524 280.067 303.424 280.49 313.285C280.914 323.145 282.828 346.32 282.828 346.32C282.828 346.32 289.206 348.956 292.871 346.32C292.871 346.32 294.42 337.181 295.43 329.966C296.047 326.232 295.92 322.414 295.055 318.73C294.704 317.377 294.704 315.956 295.055 314.603L302.251 286.984C302.251 286.984 308.465 282.626 308.465 270.572V261.529L283.299 264.079Z" fill="black"/>
<path d="M300.586 226.359L287.638 231.111C287.638 231.111 281.577 236.373 281.577 246.426C281.577 249.245 284.3 251.775 284.3 251.775C284.3 251.775 283.338 260.606 283.261 264.079C283.261 264.079 289.879 268.725 302.222 266.898C305.312 266.272 308.232 264.989 310.784 263.136C310.784 263.136 308.86 255.344 308.619 254.594C308.379 253.843 311.255 244.733 311.255 237.499L300.586 226.359Z" fill="#455A64"/>
<path d="M289.148 209.149C289.148 209.149 289.668 213.699 292.583 214.921C292.583 214.921 290.274 218.086 293.699 219.471V217.027L295.132 219.827C295.132 219.827 291.101 236.181 298.095 236.181C299.312 236.201 300.496 235.784 301.433 235.007C301.433 235.007 302.51 239.279 308.985 239.279C315.459 239.279 316.681 232.939 316.681 232.939C316.681 232.939 312.361 234.247 312.361 229.745C312.361 225.243 312.034 210.774 311.794 208.581C311.358 206.273 310.185 204.168 308.45 202.584C306.715 201 304.512 200.022 302.174 199.798C297.123 199.192 290.572 199.23 286.782 204.445C282.991 209.659 288.398 211.121 288.398 211.121C288.398 211.121 288.523 210.938 289.148 209.149Z" fill="#263238"/>
<path d="M293.699 217.047C293.699 217.047 293.487 213.064 296.585 213.372C300.125 213.718 298.999 220.106 294.661 220.106L293.699 217.047Z" fill="#FFA8A7"/>
<path d="M313.429 204.906C312.611 203.627 311.5 202.562 310.187 201.799C309.763 201.601 309.303 201.49 308.835 201.471C308.367 201.453 307.9 201.528 307.462 201.692C307.023 201.856 306.621 202.105 306.28 202.426C305.939 202.746 305.664 203.132 305.473 203.559C305.109 204.313 304.914 205.137 304.903 205.974C304.891 206.811 305.064 207.64 305.408 208.404C305.752 209.167 306.259 209.845 306.894 210.391C307.528 210.937 308.275 211.337 309.081 211.563C309.396 211.649 309.718 211.71 310.043 211.746C310.945 211.827 311.845 211.58 312.579 211.05C313.313 210.519 313.83 209.742 314.035 208.86C314.162 208.405 314.229 207.937 314.237 207.465C314.246 206.548 313.963 205.652 313.429 204.906Z" fill="#18A0FB"/>
<path d="M316.075 205.868C316.073 206.872 315.773 207.854 315.214 208.688C314.655 209.522 313.861 210.171 312.932 210.554C312.004 210.937 310.983 211.036 309.999 210.839C309.014 210.642 308.11 210.158 307.4 209.447C306.691 208.736 306.208 207.831 306.013 206.846C305.818 205.861 305.919 204.84 306.304 203.913C306.688 202.985 307.339 202.192 308.174 201.635C309.01 201.077 309.991 200.779 310.995 200.779C311.663 200.779 312.324 200.911 312.941 201.167C313.558 201.423 314.119 201.798 314.59 202.27C315.062 202.743 315.436 203.304 315.691 203.922C315.946 204.539 316.076 205.2 316.075 205.868Z" fill="#263238"/>
<path d="M287.638 231.111C287.638 231.111 291.996 231.775 291.996 237.595C291.996 243.415 281.289 246.051 276.219 247.927C273.333 249.014 269.418 250.534 266.676 251.631C265.621 252.05 264.47 252.17 263.352 251.976C262.233 251.783 261.189 251.283 260.336 250.534C254.996 245.864 250.159 240.647 245.906 234.969C245.906 234.969 239.788 232.804 239.971 226.792C240.154 220.779 243.819 219.096 243.819 219.096V221.097C243.818 221.751 243.968 222.396 244.257 222.984C244.545 223.571 244.965 224.084 245.483 224.483L246.705 225.445C246.84 225.549 246.997 225.62 247.164 225.652C247.332 225.684 247.504 225.677 247.668 225.63C247.832 225.583 247.983 225.498 248.108 225.383C248.233 225.267 248.329 225.124 248.388 224.964C248.812 223.81 249.552 222.309 250.659 221.809C252.535 220.962 251.88 224.608 251.409 226.349C251.128 227.347 251.002 228.382 251.034 229.418L264.742 241.53C264.742 241.53 279.788 233.612 287.638 231.111Z" fill="#FFA8A7"/>
<path d="M291.582 358.374C290.603 358.538 289.675 358.928 288.873 359.515C288.071 360.101 287.418 360.867 286.965 361.751C285.464 364.752 282.645 373.208 280.019 370.409L280.914 368.052C280.914 368.052 270.399 370.351 272.91 373.102C275.421 375.854 283.299 377.075 283.963 376.133C284.627 375.19 288.186 368.437 288.186 368.437L290.158 377.45C290.445 377.7 290.813 377.837 291.193 377.837C291.573 377.837 291.94 377.7 292.227 377.45C292.227 377.45 294.795 360.154 291.582 358.374Z" fill="#18A0FB"/>
<path d="M326.782 363.53C327.538 363.146 328.15 362.527 328.523 361.765C328.896 361.003 329.011 360.14 328.85 359.307C328.475 356.113 326.041 349.754 329.225 347.522C330.639 346.56 333.775 350.851 336.431 356.017C339.086 361.183 339.836 362.684 339.836 362.684C339.836 362.684 339.547 364.069 338.335 364.001L332.515 357.989C332.14 359.825 332.203 361.723 332.698 363.53C333.545 366.349 333.66 367.984 330.591 369.35C327.522 370.716 319.124 372.583 323.617 366.916C324.505 365.642 325.571 364.502 326.782 363.53Z" fill="#18A0FB"/>
<path d="M101.27 379.095L102.02 386.859C102.02 386.859 102.857 388.455 106.715 388.455C110.572 388.455 109.716 385.165 109.716 385.165L110.091 379.095H101.27Z" fill="#FFA8A7"/>
<path d="M112.843 300.51C112.843 304.541 112.467 343.886 112.439 346.522C112.443 346.615 112.443 346.708 112.439 346.801C112.285 348.995 110.38 375.969 110.101 379.096C110.101 379.096 105.503 382.597 101.279 379.096C101.279 379.096 100.144 369.581 99.769 366.763C99.3938 363.944 97.9797 351.371 99.769 347.224L95.1707 323.376V304.223L112.843 300.51Z" fill="#37474F"/>
<path d="M107.629 306.551C107.629 306.551 106.667 312.573 99.7594 315.863L96.7291 331.495L95.161 324.194V307.128L107.629 306.551Z" fill="#263238"/>
<path d="M71.7748 385.166L71.0245 390.938C71.0245 390.938 73.0351 396.18 79.1726 393.65L80.2982 387.647L71.7748 385.166Z" fill="#FFA8A7"/>
<path d="M80.2981 301.212C79.8748 305.714 78.6338 317.172 78.1625 331.996C77.6911 346.82 77.6911 346.734 77.6911 346.734C76.0029 350.367 74.8525 354.227 74.276 358.191C73.6892 363.752 71.7748 385.127 71.7748 385.127C72.8433 386.265 74.1995 387.093 75.6999 387.523C77.2003 387.953 78.7891 387.97 80.2981 387.571L91.6305 351.977C91.9358 351.007 92.1705 350.017 92.3327 349.014L97.8835 314.026C97.8835 314.026 107.561 312.718 109.716 300.221L80.2981 301.212Z" fill="#37474F"/>
<path d="M115.94 273.526L126.849 282.261V269.581L122.982 265.637L115.94 273.526Z" fill="#F28F8F"/>
<path d="M105.3 253.737C107.887 253.545 110.453 254.323 112.496 255.921C115.873 258.595 122.982 265.637 122.982 265.637C122.721 267.502 121.913 269.247 120.659 270.651C119.406 272.055 117.763 273.056 115.94 273.526L108.966 268.533L105.3 253.737Z" fill="#18A0FB"/>
<path opacity="0.2" d="M105.3 253.737C107.887 253.545 110.453 254.323 112.496 255.921C115.873 258.595 122.982 265.637 122.982 265.637C122.721 267.502 121.913 269.247 120.659 270.651C119.406 272.055 117.763 273.056 115.94 273.526L108.966 268.533L105.3 253.737Z" fill="white"/>
<path d="M91.1398 253.805C91.1398 253.805 83.9633 254.526 80.7214 255.228L79.5285 268.177C79.5285 268.177 82.0489 282.607 82.0489 284.637C82.0489 286.667 80.2981 301.212 80.2981 301.212C80.2981 301.212 85.2524 304.454 99.6728 304.454C104.331 304.307 108.87 302.947 112.843 300.51V271.736C112.843 266.137 110.659 257.306 105.3 253.737H100.895L91.1398 253.805Z" fill="#18A0FB"/>
<path opacity="0.2" d="M91.1398 253.805C91.1398 253.805 83.9633 254.526 80.7214 255.228L79.5285 268.177C79.5285 268.177 82.0489 282.607 82.0489 284.637C82.0489 286.667 80.2981 301.212 80.2981 301.212C80.2981 301.212 85.2524 304.454 99.6728 304.454C104.331 304.307 108.87 302.947 112.843 300.51V271.736C112.843 266.137 110.659 257.306 105.3 253.737H100.895L91.1398 253.805Z" fill="black"/>
<path d="M130.976 293.324L126.849 291.544V248.764L130.976 250.543V293.324Z" fill="#18A0FB"/>
<path opacity="0.6" d="M130.976 293.324L126.849 291.544V248.764L130.976 250.543V293.324Z" fill="black"/>
<path d="M227.484 194.709L130.976 250.543L126.849 248.764L223.348 192.929L227.484 194.709Z" fill="#18A0FB"/>
<path opacity="0.4" d="M227.484 194.709L130.976 250.543L126.849 248.764L223.348 192.929L227.484 194.709Z" fill="black"/>
<path d="M227.484 237.489L130.976 293.324V250.543L227.484 194.709V237.489Z" fill="#18A0FB"/>
<path opacity="0.3" d="M227.484 237.489L130.976 293.324V250.543L227.484 194.709V237.489Z" fill="black"/>
<path d="M164.943 247.586L161.002 249.851C160.93 249.305 160.783 248.867 160.561 248.538C160.339 248.201 160.054 247.971 159.706 247.846C159.358 247.72 158.956 247.702 158.5 247.791C158.05 247.877 157.561 248.071 157.033 248.375C156.079 248.923 155.248 249.674 154.54 250.627C153.832 251.574 153.283 252.678 152.893 253.94C152.504 255.195 152.309 256.56 152.309 258.034C152.309 259.549 152.504 260.71 152.893 261.517C153.289 262.321 153.841 262.782 154.549 262.901C155.257 263.02 156.076 262.812 157.006 262.278C157.528 261.978 158.011 261.621 158.455 261.206C158.905 260.789 159.304 260.328 159.652 259.823C160 259.312 160.288 258.769 160.516 258.195C160.75 257.618 160.912 257.02 161.002 256.401L164.943 254.156C164.841 255.19 164.586 256.278 164.178 257.419C163.776 258.549 163.233 259.668 162.549 260.773C161.871 261.869 161.062 262.895 160.12 263.851C159.184 264.797 158.125 265.61 156.943 266.289C155.299 267.234 153.829 267.65 152.534 267.536C151.244 267.42 150.224 266.764 149.474 265.569C148.73 264.37 148.358 262.615 148.358 260.304C148.358 257.986 148.736 255.797 149.492 253.736C150.248 251.676 151.274 249.848 152.57 248.252C153.865 246.649 155.323 245.382 156.943 244.451C158.011 243.838 159.001 243.442 159.913 243.264C160.831 243.082 161.643 243.12 162.351 243.377C163.059 243.628 163.635 244.103 164.079 244.803C164.529 245.499 164.817 246.427 164.943 247.586ZM177.735 238.906C177.663 238.11 177.354 237.637 176.808 237.487C176.262 237.337 175.521 237.531 174.586 238.069C173.95 238.435 173.413 238.847 172.975 239.306C172.537 239.759 172.201 240.232 171.967 240.726C171.739 241.217 171.625 241.691 171.625 242.148C171.613 242.535 171.682 242.828 171.832 243.025C171.988 243.219 172.201 243.342 172.471 243.395C172.741 243.44 173.053 243.437 173.407 243.386C173.761 243.328 174.139 243.235 174.541 243.108L176.196 242.613C177 242.359 177.738 242.212 178.41 242.171C179.082 242.131 179.664 242.222 180.156 242.445C180.648 242.667 181.029 243.043 181.299 243.573C181.575 244.1 181.716 244.804 181.722 245.686C181.716 246.99 181.428 248.284 180.858 249.566C180.294 250.838 179.478 252.044 178.41 253.184C177.348 254.313 176.067 255.309 174.568 256.171C173.08 257.026 171.784 257.508 170.68 257.616C169.582 257.721 168.724 257.436 168.106 256.76C167.494 256.074 167.173 254.975 167.143 253.463L170.914 251.296C170.956 251.984 171.133 252.477 171.445 252.776C171.763 253.063 172.186 253.177 172.714 253.115C173.248 253.044 173.851 252.815 174.523 252.429C175.182 252.05 175.755 251.61 176.241 251.109C176.733 250.605 177.114 250.078 177.384 249.528C177.654 248.979 177.789 248.448 177.789 247.936C177.789 247.458 177.666 247.128 177.42 246.944C177.18 246.757 176.826 246.683 176.358 246.724C175.896 246.761 175.329 246.879 174.658 247.079L172.651 247.651C171.097 248.108 169.87 248.131 168.97 247.721C168.07 247.311 167.623 246.319 167.629 244.745C167.623 243.461 167.92 242.166 168.52 240.86C169.126 239.55 169.957 238.321 171.013 237.175C172.069 236.028 173.269 235.069 174.613 234.296C175.98 233.51 177.174 233.094 178.194 233.048C179.22 232.998 180.018 233.29 180.588 233.924C181.158 234.558 181.452 235.504 181.47 236.759L177.735 238.906ZM158.68 284.857C158.608 284.061 158.299 283.588 157.753 283.439C157.207 283.289 156.466 283.483 155.53 284.021C154.894 284.386 154.357 284.798 153.919 285.258C153.481 285.71 153.145 286.183 152.911 286.678C152.684 287.168 152.57 287.642 152.57 288.099C152.558 288.486 152.627 288.779 152.776 288.976C152.932 289.17 153.145 289.294 153.415 289.346C153.685 289.392 153.997 289.389 154.351 289.338C154.705 289.279 155.083 289.187 155.485 289.06L157.141 288.565C157.945 288.31 158.683 288.163 159.355 288.123C160.027 288.083 160.609 288.174 161.101 288.396C161.592 288.618 161.973 288.995 162.243 289.524C162.519 290.051 162.66 290.755 162.666 291.638C162.66 292.942 162.372 294.235 161.802 295.518C161.239 296.79 160.423 297.996 159.355 299.135C158.293 300.264 157.012 301.26 155.512 302.122C154.024 302.977 152.728 303.459 151.625 303.567C150.527 303.672 149.669 303.387 149.051 302.711C148.439 302.025 148.118 300.926 148.088 299.414L151.859 297.247C151.901 297.935 152.078 298.429 152.39 298.727C152.708 299.015 153.13 299.128 153.658 299.067C154.192 298.995 154.795 298.766 155.467 298.38C156.127 298.001 156.7 297.561 157.186 297.06C157.678 296.556 158.059 296.029 158.329 295.48C158.599 294.93 158.734 294.399 158.734 293.887C158.734 293.41 158.611 293.079 158.365 292.895C158.125 292.708 157.771 292.635 157.303 292.675C156.841 292.712 156.274 292.831 155.602 293.03L153.595 293.602C152.042 294.059 150.815 294.083 149.915 293.673C149.015 293.263 148.568 292.27 148.574 290.696C148.568 289.413 148.865 288.118 149.465 286.811C150.071 285.501 150.902 284.273 151.958 283.126C153.013 281.98 154.213 281.02 155.557 280.248C156.925 279.462 158.119 279.045 159.139 278.999C160.165 278.949 160.963 279.241 161.533 279.876C162.102 280.51 162.396 281.455 162.414 282.711L158.68 284.857Z" fill="white"/>
<path d="M109.668 226.513C109.668 226.513 115.276 231.438 110.399 242.415L104.694 227.581L109.668 226.513Z" fill="#263238"/>
<path d="M91.1399 253.805C91.1399 253.805 93.0639 258.951 98.4222 258.951C103.781 258.951 100.895 253.737 100.895 253.737L91.1399 253.805Z" fill="#FFA8A7"/>
<path d="M91.1399 253.804L100.895 253.737V238.816H91.1399V253.804Z" fill="#FFA8A7"/>
<path d="M100.895 253.141C97.2966 251.746 92.7271 249.437 92.7271 247.234L91.5439 239.817H100.895V253.141Z" fill="#F28F8F"/>
<path d="M98.6531 223.473C102.097 223.473 109.408 225.397 110.255 234.401C111.101 243.405 109.783 251.063 105.637 251.063C97.4987 251.063 89.6872 250.024 89.6199 236.71C89.5622 224.964 95.2957 223.473 98.6531 223.473Z" fill="#FFA8A7"/>
<path d="M91.1495 244.598L92.4674 240.5C92.5667 240.585 92.6881 240.639 92.8172 240.657C92.9463 240.674 93.0778 240.655 93.1962 240.6C93.3145 240.545 93.4148 240.458 93.4851 240.348C93.5554 240.239 93.5928 240.111 93.593 239.981V232.718C93.593 232.718 96.9792 231.756 96.6233 228.918C96.6233 228.918 98.3549 230.466 104.993 230.466C111.63 230.466 113.247 224.839 112.583 221.703C112.583 221.703 111.351 222.972 107.84 222.972C104.329 222.972 89.7161 218.567 89.3409 227.398C89.3409 227.398 88.1 225.589 86.1086 227.398L88.6772 228.956C88.6772 228.956 85.6372 228.86 86.1086 233.314C86.4838 236.835 87.946 243.502 88.5521 246.166C88.7237 246.904 89.1667 247.549 89.7931 247.975L91.1495 248.889V244.598Z" fill="#263238"/>
<path d="M103.829 237.104V242.414L106.936 241.452L103.829 237.104Z" fill="#F28F8F"/>
<path d="M98.3067 238.018C98.3048 238.234 98.3672 238.445 98.4859 238.625C98.6046 238.806 98.7743 238.946 98.9733 239.03C99.1724 239.113 99.3917 239.136 99.6035 239.094C99.8152 239.052 100.01 238.949 100.162 238.796C100.315 238.644 100.419 238.449 100.46 238.237C100.502 238.025 100.48 237.806 100.396 237.607C100.313 237.408 100.172 237.238 99.9917 237.12C99.8115 237.001 99.6 236.939 99.3842 236.94C99.2427 236.94 99.1026 236.968 98.9719 237.022C98.8411 237.077 98.7224 237.156 98.6223 237.256C98.5223 237.356 98.4429 237.475 98.3888 237.606C98.3346 237.736 98.3067 237.876 98.3067 238.018Z" fill="#263238"/>
<path d="M106.397 237.268C106.397 237.483 106.461 237.693 106.58 237.872C106.7 238.05 106.87 238.19 107.068 238.272C107.267 238.354 107.485 238.376 107.696 238.334C107.907 238.292 108.101 238.188 108.253 238.036C108.405 237.884 108.508 237.691 108.55 237.48C108.592 237.269 108.571 237.05 108.489 236.852C108.406 236.653 108.267 236.483 108.088 236.364C107.909 236.244 107.699 236.181 107.484 236.181C107.196 236.181 106.919 236.295 106.716 236.499C106.512 236.703 106.397 236.979 106.397 237.268Z" fill="#263238"/>
<path d="M108.802 235.007L106.686 233.756C106.686 233.756 107.494 232.91 108.302 233.42C108.536 233.603 108.709 233.853 108.798 234.136C108.887 234.419 108.889 234.723 108.802 235.007Z" fill="#263238"/>
<path d="M97.162 235.796L99.2688 234.536C99.2688 234.536 98.4607 233.689 97.6526 234.199C97.4197 234.385 97.2483 234.637 97.1607 234.922C97.0732 235.207 97.0736 235.511 97.162 235.796Z" fill="#263238"/>
<path d="M105.291 244.559C104.269 244.631 103.252 244.356 102.405 243.78C102.405 243.78 102.203 245.319 103.492 245.608C103.866 245.664 104.249 245.59 104.576 245.4C104.903 245.209 105.155 244.913 105.291 244.559Z" fill="#F28F8F"/>
<path d="M91.948 239.009C93.1697 241.135 92.8522 243.713 91.1495 244.598C90.0432 245.166 86.8013 243.944 85.5795 241.818C84.3578 239.692 85.0408 237.874 86.7051 236.912C88.3693 235.95 90.7166 236.883 91.948 239.009Z" fill="#FFA8A7"/>
<path d="M92.5637 240.586L88.8215 236.527L91.5151 234.911L92.5637 240.586Z" fill="#253239"/>
<path d="M98.124 270.716L103.271 276.421C103.271 276.421 107.475 275.825 112.352 275.575C116.222 275.169 120.06 274.498 123.838 273.564C123.838 273.564 124.8 269.447 126.859 267.792V271.015C126.859 271.015 129.62 271.977 130.986 270.611C133.343 268.292 135.45 266.157 135.45 271.015C135.45 277.797 132.564 280.548 124.771 280.404C124.771 280.404 105.098 288.648 100.385 287.725C97.4987 287.176 89.5718 279.702 89.5718 279.702L98.124 270.716Z" fill="#FFA8A7"/>
<path d="M76.96 257.104C80.2693 253.737 84.0499 255.305 87.3688 258.624C90.6877 261.943 98.124 270.717 98.124 270.717C98.124 270.717 97.3736 277.557 89.5718 279.731C89.5718 279.731 79.0475 268.773 77.7007 267.282C75.2573 264.55 73.8239 260.318 76.96 257.104Z" fill="#18A0FB"/>
<path opacity="0.2" d="M76.96 257.104C80.2693 253.737 84.0499 255.305 87.3688 258.624C90.6877 261.943 98.124 270.717 98.124 270.717C98.124 270.717 97.3736 277.557 89.5718 279.731C89.5718 279.731 79.0475 268.773 77.7007 267.282C75.2573 264.55 73.8239 260.318 76.96 257.104Z" fill="white"/>
<path d="M146.763 284.214C146.847 283.123 147.153 282.061 147.663 281.094C148.172 280.126 148.874 279.272 149.726 278.586C154.161 275.2 153.978 278.586 154.084 279.981C154.189 281.376 149.976 286.33 145.358 285.022L146.763 284.214Z" fill="#FFA8A7"/>
<path d="M71.0245 390.899C71.2609 391.425 71.5864 391.907 71.9865 392.323C72.0823 392.404 72.1984 392.457 72.3222 392.477C72.446 392.497 72.573 392.483 72.6896 392.437C72.8061 392.391 72.9079 392.313 72.984 392.214C73.0601 392.114 73.1076 391.995 73.1216 391.871C73.1331 391.552 73.228 391.242 73.3968 390.972C73.5656 390.702 73.8025 390.481 74.0836 390.331C74.7474 390.052 80.048 389.956 80.0961 391.034C80.0985 391.848 80.0147 392.661 79.846 393.458C79.846 393.458 80.7022 400.75 82.328 403.636C83.9537 406.522 86.6089 411.188 81.0196 412.554C75.4304 413.92 71.2072 410.957 71.0148 407.012C70.8224 403.068 70.9186 400.278 70.5435 399.595C70.1683 398.912 68.1962 398.556 68.9465 394.949C69.6969 391.341 69.8123 389.177 71.2553 389.062L71.0245 390.899Z" fill="#455A64"/>
<path d="M74.834 397.595C74.7528 397.597 74.6722 397.579 74.5999 397.542C74.5276 397.505 74.4658 397.45 74.4203 397.383C74.3442 397.274 74.3137 397.14 74.3352 397.008C74.3568 396.877 74.4288 396.76 74.5358 396.681C75.4196 396.125 76.4284 395.8 77.4702 395.735C78.5121 395.669 79.5537 395.865 80.5002 396.306C80.5633 396.332 80.6206 396.371 80.6689 396.42C80.7171 396.468 80.7552 396.526 80.7811 396.589C80.807 396.653 80.8202 396.721 80.8198 396.789C80.8195 396.858 80.8057 396.925 80.7791 396.989C80.7526 397.052 80.7139 397.109 80.6652 397.157C80.6165 397.206 80.5588 397.244 80.4954 397.27C80.432 397.295 80.3641 397.309 80.2956 397.308C80.2271 397.308 80.1593 397.294 80.0961 397.268C79.3065 396.901 78.4388 396.735 77.5697 396.784C76.7006 396.833 75.8568 397.094 75.113 397.547C75.0265 397.589 74.9297 397.606 74.834 397.595Z" fill="#EBEBEB"/>
<path d="M75.6613 401.154C75.5806 401.153 75.5013 401.134 75.4295 401.097C75.3577 401.061 75.2954 401.008 75.2476 400.943C75.1725 400.832 75.1435 400.697 75.1669 400.566C75.1903 400.435 75.2641 400.318 75.3727 400.24C76.2554 399.683 77.2639 399.355 78.3058 399.288C79.3478 399.221 80.39 399.416 81.3371 399.856C81.4592 399.912 81.5545 400.014 81.603 400.14C81.6514 400.265 81.6492 400.405 81.5968 400.529C81.5403 400.651 81.4378 400.746 81.3116 400.793C81.1855 400.84 81.046 400.835 80.9234 400.779C80.1359 400.411 79.2694 400.244 78.4015 400.293C77.5337 400.341 76.6913 400.604 75.9499 401.058C75.8677 401.122 75.7657 401.156 75.6613 401.154Z" fill="#EBEBEB"/>
<path d="M76.96 404.665C76.8789 404.667 76.7987 404.649 76.7265 404.612C76.6543 404.575 76.5924 404.521 76.5463 404.454C76.4712 404.344 76.4422 404.208 76.4656 404.077C76.489 403.946 76.5628 403.829 76.6714 403.752C77.5552 403.196 78.564 402.871 79.6059 402.805C80.6477 402.74 81.6893 402.936 82.6358 403.376C82.6968 403.402 82.7519 403.44 82.7981 403.488C82.8442 403.536 82.8804 403.592 82.9046 403.654C82.9288 403.716 82.9404 403.782 82.9389 403.848C82.9373 403.914 82.9226 403.98 82.8955 404.04C82.8389 404.16 82.7386 404.254 82.6152 404.302C82.4918 404.35 82.3546 404.349 82.2317 404.3C81.4419 403.934 80.5743 403.769 79.7053 403.817C78.8364 403.866 77.9927 404.128 77.2486 404.579C77.1633 404.636 77.0627 404.666 76.96 404.665Z" fill="#EBEBEB"/>
<path d="M102.02 386.859C103.016 387.528 104.198 387.864 105.397 387.821C105.397 387.821 104.829 385.599 106.474 384.848C108.119 384.098 110.745 383.107 111.284 384.002C111.664 385.025 111.872 386.104 111.9 387.196C111.9 387.196 115.815 390.745 118.72 391.746C121.626 392.746 125.454 393.766 125.089 396.45C124.723 399.134 120.394 403.02 114.507 400.346C108.619 397.672 107.561 397.576 105.676 397.287C103.79 396.998 100.279 397.152 100.423 394.006C100.567 390.861 100.298 385.656 101.866 385.233L102.02 386.859Z" fill="#455A64"/>
<path d="M108.764 391.669C108.706 391.678 108.648 391.678 108.591 391.669C108.465 391.623 108.362 391.53 108.305 391.409C108.247 391.289 108.239 391.151 108.283 391.024C108.669 390.122 109.291 389.339 110.083 388.759C110.874 388.178 111.808 387.821 112.785 387.725C112.895 387.739 112.997 387.79 113.075 387.869C113.153 387.948 113.202 388.051 113.215 388.161C113.229 388.271 113.205 388.382 113.148 388.478C113.091 388.573 113.004 388.646 112.9 388.687C112.11 388.763 111.354 389.049 110.71 389.514C110.066 389.978 109.557 390.606 109.235 391.332C109.199 391.429 109.135 391.512 109.051 391.572C108.967 391.632 108.867 391.666 108.764 391.669Z" fill="#EBEBEB"/>
<path d="M111.765 393.651H111.602C111.539 393.63 111.481 393.597 111.432 393.554C111.382 393.511 111.342 393.458 111.313 393.398C111.284 393.339 111.268 393.275 111.264 393.209C111.261 393.143 111.271 393.078 111.294 393.016C111.646 392.114 112.24 391.328 113.011 390.742C113.781 390.157 114.698 389.795 115.661 389.697C115.772 389.71 115.875 389.76 115.954 389.838C116.033 389.916 116.084 390.019 116.099 390.129C116.113 390.24 116.09 390.352 116.033 390.448C115.977 390.544 115.89 390.618 115.786 390.659C115.014 390.741 114.279 391.029 113.656 391.493C113.033 391.957 112.546 392.579 112.246 393.295C112.214 393.397 112.15 393.487 112.063 393.551C111.977 393.615 111.873 393.65 111.765 393.651Z" fill="#EBEBEB"/>
<path d="M115.555 395.219H115.44C115.309 395.193 115.194 395.117 115.118 395.008C115.043 394.898 115.013 394.763 115.036 394.632C115.219 393.688 115.738 392.843 116.497 392.254C117.256 391.665 118.204 391.371 119.163 391.428C119.296 391.433 119.423 391.491 119.514 391.588C119.606 391.685 119.656 391.814 119.654 391.948C119.654 392.015 119.64 392.081 119.614 392.143C119.587 392.204 119.548 392.259 119.5 392.305C119.451 392.351 119.394 392.387 119.331 392.41C119.268 392.433 119.201 392.442 119.134 392.438C118.417 392.396 117.709 392.612 117.138 393.048C116.568 393.485 116.173 394.112 116.027 394.815C116.004 394.924 115.945 395.024 115.86 395.097C115.774 395.17 115.668 395.213 115.555 395.219Z" fill="#EBEBEB"/>
<path d="M182.309 80.077L174.122 84.7331V81.8471C174.122 81.6355 174.122 81.4335 174.122 81.2314C174.122 81.0294 174.122 80.837 174.122 80.6446V80.5773C173.824 76.7293 170.919 75.267 167.388 77.3161C165.782 78.2927 164.407 79.6055 163.357 81.1641C162.578 75.9982 158.307 74.0742 153.17 77.0467C147.455 80.3464 142.828 88.3599 142.828 94.9496V101.154C142.829 101.645 142.7 102.128 142.455 102.553C142.21 102.979 141.858 103.332 141.433 103.579L136.623 106.407C135.579 107.018 134.713 107.892 134.112 108.942C133.511 109.992 133.196 111.181 133.198 112.391C133.208 112.888 133.345 113.374 133.598 113.803C133.851 114.231 134.21 114.587 134.641 114.836C135.071 115.085 135.559 115.218 136.056 115.223C136.554 115.227 137.044 115.103 137.479 114.863L182.184 89.0429C183.366 88.3592 184.349 87.3778 185.034 86.1963C185.719 85.0149 186.083 83.6746 186.089 82.3089C186.095 81.8634 185.983 81.4244 185.765 81.0361C185.546 80.6478 185.229 80.324 184.846 80.0975C184.462 79.8711 184.025 79.7499 183.58 79.7463C183.134 79.7427 182.696 79.8568 182.309 80.077Z" fill="#E6E6E6"/>
<path d="M108.061 89.6972L101.972 93.1412V90.9959C101.972 90.842 101.972 90.6881 101.972 90.5438C101.972 90.3995 101.972 90.2456 101.972 90.1109C101.751 87.2249 99.6055 86.1859 96.9792 87.6963C95.7905 88.431 94.7761 89.4158 94.0066 90.5823C93.4102 86.7343 90.2645 85.3394 86.4646 87.5327C84.2297 88.9792 82.3679 90.9329 81.0306 93.2347C79.6933 95.5365 78.9182 98.1216 78.7686 100.779V105.368C78.7687 105.73 78.6737 106.086 78.4931 106.4C78.3124 106.714 78.0525 106.976 77.7392 107.158L74.1798 109.245C73.407 109.699 72.7661 110.347 72.3206 111.125C71.8752 111.903 71.6406 112.784 71.6401 113.68C71.641 114.051 71.7395 114.415 71.9256 114.736C72.1117 115.057 72.3789 115.324 72.7005 115.509C73.0221 115.694 73.3867 115.791 73.7578 115.791C74.1289 115.791 74.4934 115.693 74.8147 115.508L107.888 96.4024C108.766 95.8955 109.495 95.1662 110.002 94.2881C110.509 93.4099 110.775 92.4138 110.774 91.4C110.766 91.0832 110.679 90.7734 110.522 90.4981C110.365 90.2228 110.142 89.9907 109.874 89.8222C109.605 89.6537 109.299 89.5541 108.983 89.5323C108.667 89.5105 108.35 89.5672 108.061 89.6972Z" fill="#E6E6E6"/>
</svg>
