<svg xmlns="http://www.w3.org/2000/svg" viewBox="0 0 500 500"><g id="freepik--Table--inject-666"><path d="M467,479.11c0,.14-97.58.26-217.92.26s-217.95-.12-217.95-.26,97.56-.26,218-.26S467,479,467,479.11Z" style="fill:#263238"></path></g><g id="freepik--Character--inject-666"><path d="M272.67,112.72a11.59,11.59,0,0,0,1.13-23,12.05,12.05,0,0,0-13.7-18.32,14.43,14.43,0,0,0-23.4-8.09,16.22,16.22,0,0,0-19.77,2.89,11.53,11.53,0,0,0-6.83,21" style="fill:#263238"></path><path d="M216.35,77.86l2.51-.42a49.17,49.17,0,0,1,55.73,36.61c5.77,23.13,11.84,48.75,13.77,61.34,4,26.09-21.39,34.45-21.39,34.45l7.38,30.91-19.37,24-44.14-15.47L186.49,136.73C179.69,110.09,189.53,83.92,216.35,77.86Z" style="fill:#ffbf9d"></path><path d="M267,209.84s-16.25,3.67-35.55-4.42c0,0,11.48,17.42,37.07,10.78Z" style="fill:#ff9a6c"></path><path d="M270.11,102.53s-9.56-15.17-18.05-17.68c-10.28-3-12.65,8.1-22.14,7.06s-19.3-4-27.41,4.59c-8.88,9.36-3.23,14-1.95,25.61,5.21,47.25-1.16,61.91-7.24,40.25-.66-2.37-7.69-3.18-10.37-13.23-3.48-13-6.65-29-5.25-38.9,1.18-8.33,4.79-14.55,11.89-21.93,11.21-11.63,28.73-14.74,40.86-15.51S267.82,81.93,270.11,102.53Z" style="fill:#263238"></path><path d="M194.86,161.38a7.16,7.16,0,0,0-8.75-5.55c-4.78,1.27-9.73,4.92-7.75,14.9,3.52,17.7,20.56,10.52,20.49,10C198.81,180.39,196.4,168.77,194.86,161.38Z" style="fill:#ffbf9d"></path><path d="M193.68,174.84c-.09,0-.26.28-.74.62a3.15,3.15,0,0,1-2.29.51c-2-.32-4.17-3-4.89-6.15a10.31,10.31,0,0,1,0-4.59,3.65,3.65,0,0,1,1.85-2.82,1.58,1.58,0,0,1,2,.48c.34.45.3.82.39.84s.33-.38,0-1.08a2,2,0,0,0-.92-1,2.37,2.37,0,0,0-1.79-.11,4.4,4.4,0,0,0-2.68,3.38,10.62,10.62,0,0,0-.09,5.15c.82,3.54,3.31,6.52,6,6.75a3.32,3.32,0,0,0,2.72-1C193.73,175.28,193.75,174.86,193.68,174.84Z" style="fill:#ff9a6c"></path><path d="M189.51,126.84c2.57,1.19,5.28,2.42,8.11,2.23s5.75-2.31,5.77-5.15c0-1.27-.54-2.66.12-3.75.78-1.3,2.63-1.24,4.15-1.33,5.27-.31,10.37-7,10.85-12.27a4.71,4.71,0,0,0,6.42.25,16.68,16.68,0,0,0,3.66-4.52c1.27-2,3.2-4,5.61-4.06,1.34,0,2.7.54,4,.21,2.3-.6,3-3.52,3-5.9s-.2-5.13,1.57-6.72,4.13-1.19,6.33-1.23,4.9-1,5.1-3.2a4.26,4.26,0,0,0-1.33-3.09,11.68,11.68,0,0,0-14.33-2.12,15.83,15.83,0,0,0-29.2,1.72,16.07,16.07,0,0,0-24.39,10,11.65,11.65,0,0,0-10.2,18.86c-2.89,2.36-5.11,6-4.56,9.68s4.74,6.77,8.13,5.22a6.45,6.45,0,0,0,12.06,4.52" style="fill:#263238"></path><path d="M240.7,81.21s0,.11.05.33.06.54.05,1a11.36,11.36,0,0,1-.73,3.64A12.84,12.84,0,0,1,236.82,91a12,12,0,0,1-6.95,3.29l.24-.45a6.57,6.57,0,0,1,.46,5,19,19,0,0,1-2.33,4.88,13.2,13.2,0,0,1-1.65,2.37,6.27,6.27,0,0,1-2.65,1.51,6.61,6.61,0,0,1-6.07-1.1l.64-.3a13.55,13.55,0,0,1-4.14,10.17,9.86,9.86,0,0,1-5.52,2.88,17.94,17.94,0,0,1-6-.31l.44-.29a14.18,14.18,0,0,1-3.31,6.19,7.57,7.57,0,0,1-5.92,2.72,9.94,9.94,0,0,1-8.81-6.43l.43.12a9.26,9.26,0,0,1-6,1.91,10.12,10.12,0,0,1-4.58-1.19,8.82,8.82,0,0,1-2.35-1.85,4.2,4.2,0,0,1-.6-.84,11,11,0,0,0,3.09,2.42,10,10,0,0,0,4.45,1,8.88,8.88,0,0,0,5.61-1.91l.3-.24.14.37a9.36,9.36,0,0,0,8.32,5.92,6.84,6.84,0,0,0,5.36-2.52,13.55,13.55,0,0,0,3.09-5.87l.09-.35.36.06a17.32,17.32,0,0,0,5.7.29,9.09,9.09,0,0,0,5.11-2.67,12.82,12.82,0,0,0,3.91-9.59l0-.86.67.56a5.83,5.83,0,0,0,5.35,1,5.57,5.57,0,0,0,2.35-1.32,13.14,13.14,0,0,0,1.57-2.22,18.26,18.26,0,0,0,2.28-4.69,5.91,5.91,0,0,0-.35-4.51l-.21-.4.45,0a11.61,11.61,0,0,0,6.67-3A12.9,12.9,0,0,0,239.76,86,13.92,13.92,0,0,0,240.7,81.21Z" style="fill:#455a64"></path><path d="M269.85,143.33a3.77,3.77,0,0,1-3,4.31,3.61,3.61,0,0,1-4.35-2.76,3.77,3.77,0,0,1,3-4.31A3.62,3.62,0,0,1,269.85,143.33Z" style="fill:#263238"></path><path d="M273.4,127c-.39.56-3.52-1.09-7.52-.46s-6.62,3.08-7.13,2.66c-.25-.19.09-1.14,1.22-2.26a10.27,10.27,0,0,1,5.61-2.73,10,10,0,0,1,6.09,1C273,126,273.59,126.77,273.4,127Z" style="fill:#263238"></path><path d="M238.91,169.57c.66-.17,1.94,3.14,5.37,5.29s7,2,7.13,2.67c.06.3-.81.8-2.41.9a10.32,10.32,0,0,1-6-1.62,10,10,0,0,1-3.95-4.73C238.48,170.61,238.6,169.63,238.91,169.57Z" style="fill:#263238"></path><path d="M235.93,147.66a3.76,3.76,0,0,1-3,4.31,3.59,3.59,0,0,1-4.35-2.76,3.76,3.76,0,0,1,3-4.31A3.6,3.6,0,0,1,235.93,147.66Z" style="fill:#263238"></path><path d="M234.33,134c-.38.56-3.52-1.09-7.52-.46s-6.62,3.08-7.13,2.66c-.24-.19.08-1.13,1.22-2.26a10.31,10.31,0,0,1,5.62-2.73,9.94,9.94,0,0,1,6.08,1C234,133,234.53,133.76,234.33,134Z" style="fill:#263238"></path><path d="M253.44,162.53c-.06-.23,2.36-1,6.31-2.18,1-.26,1.94-.62,2-1.34s-.48-1.81-1.15-2.92l-4.23-7.31c-5.9-10.43-10.35-19.06-9.93-19.3s5.56,8,11.46,18.45c1.43,2.58,2.8,5,4.11,7.38.56,1.1,1.43,2.31,1.14,3.93a2.6,2.6,0,0,1-1.44,1.75,7.25,7.25,0,0,1-1.7.51C256,162.34,253.49,162.75,253.44,162.53Z" style="fill:#263238"></path><path d="M234,118.31c-.19,1.15-4.26,1.38-8.82,2.81s-8.1,3.41-8.9,2.55c-.36-.41.1-1.55,1.43-2.88a16.12,16.12,0,0,1,13.5-4.09C233.07,117.07,234.09,117.76,234,118.31Z" style="fill:#263238"></path><path d="M268.52,113.75c-.6,1-3.69.59-7.22,1.14s-6.4,1.72-7.25.89c-.38-.41-.06-1.4,1.1-2.48a11.14,11.14,0,0,1,11.65-1.63C268.2,112.39,268.77,113.25,268.52,113.75Z" style="fill:#263238"></path><path d="M166.26,244.74l39.63-18.4s9.54,17.15,37.55,13.11c20.73-3,26-19.44,26-19.44l45.1,6,30.42,114.58-2.83,48.94,2.83,89.64H172.05c-1.94-3.66-.61-5.88,2.52-9.35L178,433.29,152.21,301.78Z" style="fill:#455a64"></path><g style="opacity:0.30000000000000004"><path d="M178.51,445.68c10.71-4.22,17.25-15,21.77-25.59a150.44,150.44,0,0,0,11.73-49c.19-2.85.27-5.87-1.08-8.39-2.13-4-7.12-5.51-11.64-5.78s-9.21.26-13.49-1.26l-9,71.26Z"></path></g><g style="opacity:0.30000000000000004"><path d="M231.3,407.49a90.36,90.36,0,0,0,110.23,22.8l1-28.07-65.28,18.89Z"></path></g><path d="M208.91,333.45s-2.06-1.2,3.76-10,18.83-16.68,19.26-16.94,13.95-2.61,13.95-2.61,30.93,1.91,31.19,1.91l14.08,6.65,11,8s7.62,12.62,7.78,13-3.34,10.09-3.34,10.09-14.29,9-14.72,8.9-25.5-2.05-25.5-2.05l-28.16.51-20.71-7.27Z" style="fill:#ebebeb"></path><path d="M209.14,329.31s-8.91,25.95,1.31,48.23,29.09,30.68,51.33,30.68c13.63,0,33.6-2.37,43-22.29s10-40.76,5-52.88c0,0-3.14,14.87-21,11.2s-23.59-8.12-23.59-8.12-15.46,12.32-33.29,7.34-21.49-14.16-21.49-14.16l-1.12-.61Z" style="fill:#18A0FB"></path><g style="opacity:0.2"><path d="M304.1,347.62a155.21,155.21,0,0,1-2,35.92C307.34,373.54,306.56,358.63,304.1,347.62Z"></path></g><g style="opacity:0.2"><path d="M223,381.15a155.5,155.5,0,0,1-6.73-35.33C213.58,356.78,217.94,371.06,223,381.15Z"></path></g><g style="opacity:0.2"><path d="M289.23,355.87a155.28,155.28,0,0,1-6.31,35.41C289.32,382,290.34,367.09,289.23,355.87Z"></path></g><g style="opacity:0.2"><path d="M238.34,371.68a25.06,25.06,0,0,0-1.22,9.35,13.39,13.39,0,0,0,4.21,8.31A64.91,64.91,0,0,1,238.34,371.68Z"></path></g><g style="opacity:0.2"><path d="M297,352.44a24.92,24.92,0,0,1,2.29,9.14,13.37,13.37,0,0,1-3.21,8.75A65.48,65.48,0,0,0,297,352.44Z"></path></g><g style="opacity:0.2"><path d="M243.37,350.51a35.19,35.19,0,0,0-1.2,10.64,16.47,16.47,0,0,0,3.74,9.41A91,91,0,0,1,243.37,350.51Z"></path></g><g style="opacity:0.2"><path d="M265.94,368.16a35.17,35.17,0,0,0-1.21,10.64,16.6,16.6,0,0,0,3.74,9.42A90.45,90.45,0,0,1,265.94,368.16Z"></path></g><g style="opacity:0.2"><path d="M227.38,359.65a19.45,19.45,0,0,0-1,7.36,10.57,10.57,0,0,0,3.32,6.56A51.38,51.38,0,0,1,227.38,359.65Z"></path></g><path d="M236.58,311.19c.63,0,20.79,3.39,20.79,3.39l17.43-5.82-14.49-2.19H243.93Z" style="opacity:0.30000000000000004"></path><path d="M265.17,336.13l-7.8-21.55,17.43-5.82,16.35,3.68,11,8,7.78,13s-3.27,13.06-17.56,11.31S265.17,336.13,265.17,336.13Z" style="fill:#e0e0e0"></path><path d="M214.13,321.43l22.45-10.24,7.35-4.62-12-.08S219,314.16,214.13,321.43Z" style="fill:#e0e0e0"></path><g style="opacity:0.2"><path d="M304.81,385.88c1-2.06,1.86-4.14,2.65-6.22a135.72,135.72,0,0,1-13.19,15c-.28-2.71-.57-5.41-.85-8.11A27.13,27.13,0,0,1,271.37,404c-9.79,1.09-23.75-3.65-25.31-12.1a17.92,17.92,0,0,0-2.36,6.76,130.61,130.61,0,0,1-12.63-19.51c-.86,5.29-1.41,10.17-.4,15.12-16.37-15.57-23.59-40.1-18.35-62.07a16.06,16.06,0,0,1-1.33-1.87L209.22,329l-.08.25s-8.91,25.95,1.31,48.23,29.09,30.68,51.33,30.68C275.41,408.16,295.38,405.8,304.81,385.88Z"></path></g><path d="M265.23,336.13a3,3,0,0,1-.48.4c-.33.24-.79.63-1.45,1.05a40,40,0,0,1-5.75,3.2,43.56,43.56,0,0,1-9.28,3,37.74,37.74,0,0,1-5.72.79,35.06,35.06,0,0,1-6.21-.13,38.39,38.39,0,0,1-11.52-3.2,40.12,40.12,0,0,1-8.35-5.06,40.66,40.66,0,0,1-4.83-4.47c-.53-.57-.9-1.05-1.16-1.36a2.39,2.39,0,0,1-.37-.5,4.17,4.17,0,0,1,.45.43c.29.29.67.75,1.23,1.29a44.88,44.88,0,0,0,4.91,4.32,42.3,42.3,0,0,0,8.32,4.92A38.8,38.8,0,0,0,236.4,344a34,34,0,0,0,6.12.14,38.65,38.65,0,0,0,5.66-.75,45.73,45.73,0,0,0,15-5.93c.67-.4,1.15-.76,1.5-1A2.51,2.51,0,0,1,265.23,336.13Z" style="fill:#263238"></path><path d="M264,333.59a14.86,14.86,0,0,1-1.25-2.61c-.7-1.64-1.59-3.94-2.49-6.51s-1.6-4.94-2.07-6.66a14.06,14.06,0,0,1-.63-2.82,16.71,16.71,0,0,1,1,2.72c.56,1.69,1.33,4,2.22,6.59s1.73,4.87,2.33,6.54A17.35,17.35,0,0,1,264,333.59Z" style="fill:#263238"></path><path d="M257.37,314.58a20.36,20.36,0,0,1-3.05-.39L247,313l-7.32-1.16a19.05,19.05,0,0,1-3-.6,17.48,17.48,0,0,1,3.07.24c1.89.21,4.49.56,7.36,1s5.44.92,7.3,1.31A16.66,16.66,0,0,1,257.37,314.58Z" style="fill:#263238"></path><path d="M309.11,335.71a2.4,2.4,0,0,1-.17.44,10.52,10.52,0,0,1-.61,1.19,15.06,15.06,0,0,1-3.16,3.77,15.81,15.81,0,0,1-6.44,3.42,21.09,21.09,0,0,1-8.93.08,120.25,120.25,0,0,1-15.58-4.36c-2-.68-3.53-1.25-4.61-1.66l-1.24-.48c-.28-.12-.43-.19-.42-.21a13.55,13.55,0,0,1,1.72.5l4.66,1.5a142.88,142.88,0,0,0,15.56,4.2,21.12,21.12,0,0,0,8.72,0,16,16,0,0,0,6.32-3.24A18.83,18.83,0,0,0,309.11,335.71Z" style="fill:#263238"></path><path d="M227.47,315.26a26.55,26.55,0,0,1-4.6,2.6A26.74,26.74,0,0,1,218,320a27.54,27.54,0,0,1,4.6-2.6A26.92,26.92,0,0,1,227.47,315.26Z" style="fill:#263238"></path><path d="M284.28,310.92a14.09,14.09,0,0,1-4.7-.42,14.26,14.26,0,0,1-4.48-1.45,44.34,44.34,0,0,1,4.59.94A43.6,43.6,0,0,1,284.28,310.92Z" style="fill:#263238"></path><path d="M255.62,379.74a12,12,0,0,1-1.08-2.52,50,50,0,0,1-1.82-6.37,51.79,51.79,0,0,1-1-6.55,12.4,12.4,0,0,1,0-2.74,16.37,16.37,0,0,1,.42,2.7c.23,1.67.58,4,1.13,6.48s1.17,4.75,1.66,6.37A17.11,17.11,0,0,1,255.62,379.74Z" style="fill:#263238"></path><path d="M251.33,357.42c-.14,0-.26-.33-.26-.74s.12-.74.26-.74.26.33.26.74S251.48,357.42,251.33,357.42Z" style="fill:#263238"></path><path d="M293.81,386.35c-.15-.06.88-2.4,1.47-5.46s.54-5.61.7-5.61a17.9,17.9,0,0,1-2.17,11.07Z" style="fill:#263238"></path><path d="M297.29,371.15c.12.08,0,.4,0,.77s-.15.69-.29.71-.33-.35-.22-.83S297.18,371.06,297.29,371.15Z" style="fill:#263238"></path><path d="M285.52,274l.91-2.44a2.41,2.41,0,0,0-1.29-3h0a2.41,2.41,0,0,0-3.18,1.27l-1.26,3Z" style="fill:#e0e0e0"></path><path d="M275.77,292.66c0,.29-9.44,18.89-9.44,18.89l-3.52,1.14,11.08-21.92Z" style="fill:#ae7461"></path><path d="M281.07,271.74l3.06,1.21,1.57.54L307,300.81a7.78,7.78,0,0,1-2.38.36c-.52-.17-.6.09-1.55.23s-1.25-1-2.31-.76-1.86.65-2.48-.24-2-.43-3.2-.25-1.75-.58-2.88-1.63-2.74,1-4.76-.53c-1.46-1.12-1.34-1.6-4-1.36-2,.19-2.17-.65-3.24-2.08s-2.17-.65-4.11-.6a1.88,1.88,0,0,1-1-.25,2.16,2.16,0,0,1-2.18-.55c-1.32-1.42-1.53-2.76-3.29-2.53s-2.5.68-3.75-.88c-1.66-2.07-1.93-1.65-3.75-1.91-2.52-.37-2.14-3-3.68-3.06s-2.47.05-3.18-.93-1.35-2.3-2.41-2.13-1.36-.65-1.9-1.61-1.58-.35-2.14-1.13-.44-1-.92-1.27a8.23,8.23,0,0,1-1.4-2Z" style="fill:#18A0FB"></path><path d="M284.82,273.19c.12-.08,4.29,6.17,9.32,14s9,14.17,8.88,14.25-4.29-6.17-9.32-14S284.7,273.27,284.82,273.19Z" style="fill:#263238"></path><path d="M284.13,273c.13-.05,2.43,6,5.13,13.43S294,299.94,293.9,300s-2.43-6-5.13-13.43S284,273,284.13,273Z" style="fill:#263238"></path><path d="M283.82,272.83c.14,0-.09,5.34-.51,11.9s-.89,11.88-1,11.87.08-5.34.51-11.9S283.67,272.82,283.82,272.83Z" style="fill:#263238"></path><path d="M282.77,272.42c.12.07-2.44,4.24-5.73,9.29s-6,9.09-6.16,9,2.44-4.24,5.73-9.29S282.65,272.34,282.77,272.42Z" style="fill:#263238"></path><path d="M282.18,272.18c.09.12-4.61,3.62-10.49,7.81s-10.72,7.5-10.8,7.38,4.61-3.61,10.49-7.81S282.1,272.07,282.18,272.18Z" style="fill:#263238"></path><path d="M253.8,282c-.05-.14,6.16-2.48,13.88-5.24s14-4.89,14.06-4.75-6.17,2.48-13.89,5.24S253.84,282.13,253.8,282Z" style="fill:#263238"></path><path d="M281.07,271.74c0,.15-7.2,1.83-16.15,3.78s-16.24,3.4-16.27,3.26,7.2-1.83,16.16-3.77S281,271.6,281.07,271.74Z" style="fill:#263238"></path><path d="M198.91,264.91l26.73,2.64a2.84,2.84,0,0,1,2.23,1.51c3,5.75,14.88,28.51,23,44.14l-4.94-.87L225,273a2.84,2.84,0,0,0-2.14-1.48l-24.48-2.27Z" style="fill:#18A0FB"></path><path d="M199,264.72s.23.2.42.64a3.46,3.46,0,0,1,.26,1.85,3.53,3.53,0,0,1-.75,1.72c-.31.37-.57.53-.59.51s.19-.23.45-.61a4,4,0,0,0,.65-1.65,4,4,0,0,0-.18-1.76A5.72,5.72,0,0,1,199,264.72Z" style="fill:#263238"></path><path d="M225.47,268.57a9.78,9.78,0,0,1-.77,1.68,9.32,9.32,0,0,1-.89,1.63,5.87,5.87,0,0,1,.67-1.74A5.79,5.79,0,0,1,225.47,268.57Z" style="fill:#263238"></path><path d="M227.08,268.33a9.63,9.63,0,0,1-1.24,1.86,10,10,0,0,1-1.44,1.72,11.09,11.09,0,0,1,1.25-1.86A10.84,10.84,0,0,1,227.08,268.33Z" style="fill:#263238"></path><path d="M227.69,270.4a7.2,7.2,0,0,1-1.49,1.17,8.06,8.06,0,0,1-1.62,1,7,7,0,0,1,1.48-1.17A7.69,7.69,0,0,1,227.69,270.4Z" style="fill:#263238"></path><path d="M279.47,349a5.82,5.82,0,0,1,.23,1.38,37,37,0,0,1,.21,3.81,42.4,42.4,0,0,1-.31,5.66c-.06.53-.14,1.07-.22,1.62a4.31,4.31,0,0,1-.56,1.7,1.9,1.9,0,0,1-1.73.91,2.15,2.15,0,0,1-1.5-1.28,10,10,0,0,1-1.11-6.15l.48.05a1.54,1.54,0,0,1-.73,1.21,2.3,2.3,0,0,1-1.25.37,2.22,2.22,0,0,1-1.21-.32,2.69,2.69,0,0,1-.81-.84,5.8,5.8,0,0,1-.56-3.66,16.11,16.11,0,0,0,.13-2.37c0-.55-.1-.84-.06-.85a1.94,1.94,0,0,1,.22.83,12.51,12.51,0,0,1,0,2.41,5.67,5.67,0,0,0,.6,3.42,1.86,1.86,0,0,0,1.67.92c.69,0,1.48-.43,1.5-1.14l.49,0a9.65,9.65,0,0,0,1.08,5.83c.28.51.65,1,1.12,1a1.37,1.37,0,0,0,1.23-.67,3.75,3.75,0,0,0,.5-1.5c.09-.54.17-1.08.24-1.6a54.54,54.54,0,0,0,.42-5.6c0-1.6,0-2.9-.05-3.79A9.9,9.9,0,0,1,279.47,349Z" style="fill:#fff"></path><path d="M234.9,351.54a3.19,3.19,0,0,1,.28,1.58,3,3,0,0,1-.47,1.74,2,2,0,0,1-2,.94,2.53,2.53,0,0,1-1.7-1.47,3.77,3.77,0,0,1-.25-1.77,3.44,3.44,0,0,1,.36-1.56,8.57,8.57,0,0,1,0,1.56,3.71,3.71,0,0,0,.32,1.57,2.13,2.13,0,0,0,1.37,1.16,1.52,1.52,0,0,0,1.53-.7,3,3,0,0,0,.51-1.49A9.79,9.79,0,0,1,234.9,351.54Z" style="fill:#fff"></path><path d="M279,378.24a2.8,2.8,0,0,1,.19,1.35,3.82,3.82,0,0,1-.28,1.5,2.38,2.38,0,0,1-1.38,1.35,1.69,1.69,0,0,1-1.91-.38,2.17,2.17,0,0,1-.48-1.51c.05-.87.27-1.35.33-1.34a9,9,0,0,1,0,1.33,1.91,1.91,0,0,0,.46,1.19,1.23,1.23,0,0,0,1.38.22,2.66,2.66,0,0,0,1.48-2.38A4.69,4.69,0,0,1,279,378.24Z" style="fill:#fff"></path><path d="M299.26,361.8c.38.76,4.35,7,5.87,12.12s.57,12.5,0,16.48-4.17,5.69-4.55,8.53-1.32,11.74-1.32,11.74L286.19,427s-21-5.11-23.87-5.49S235.8,409.16,234.1,408.4s-8.72,1.89-9.86-.19-8.9-19.51-9.28-21.6,4.17-1.89,6.82,1.52,6.82,11.55,6.82,11.55l3.6-.56s-4-20.08-2.65-22.92,6.63-3.22,6.63-3.22,1.7-5.12,5.3-5.31,7.39,5.12,8.91,15.16S254,395.71,254,395.71l6.46,7.76s-8.54-29.74-6.83-34.09,7.95-.57,8.71,3,6.06,18.94,6.06,18.94,3.79,9.28,7,9.47,16.67-9.47,17.62-16.29-2.28-13.64.19-19.32S299.26,361.8,299.26,361.8Z" style="fill:#ffbf9d"></path><path d="M292.1,401.25s18.59-10,30.42-19.48L336,370.69l-3.82-61.86-18.75-82.49s39.37,8.34,48.47,41.12,11.41,34.41,15.43,56.83c2.83,15.75,5.85,58,1.07,70.25s-17.54,18.54-26.19,19.91S286,427,286,427l-6.46-13.72Z" style="fill:#ffbf9d"></path><path d="M237.72,410a5.24,5.24,0,0,1-1.48-1.19,15.22,15.22,0,0,1-2.67-3.72,15,15,0,0,1-1.44-4.36,4.87,4.87,0,0,1-.09-1.89,28.92,28.92,0,0,0,2,6A29.68,29.68,0,0,0,237.72,410Z" style="fill:#ff9a6c"></path><path d="M253.09,410.6a1.76,1.76,0,0,1-.43-.13c-.26-.11-.67-.24-1.16-.49a19,19,0,0,1-3.9-2.5,28.05,28.05,0,0,1-8.4-12.63,56.69,56.69,0,0,1-2.57-15c-.11-1.95-.15-3.53-.17-4.62a9.38,9.38,0,0,1,0-1.7,12.47,12.47,0,0,1,.17,1.69c.09,1.17.2,2.73.34,4.6a61.48,61.48,0,0,0,2.69,14.89,28.84,28.84,0,0,0,8.14,12.52A27.52,27.52,0,0,0,253.09,410.6Z" style="fill:#ff9a6c"></path><path d="M358.64,369.86c0,.09-1.23-.61-3.29-1.36a21.68,21.68,0,0,0-3.71-1,22.68,22.68,0,0,0-4.69-.31,22.42,22.42,0,0,0-4.64.73,23,23,0,0,0-3.6,1.32c-2,.94-3.11,1.75-3.16,1.66a3.46,3.46,0,0,1,.74-.61,17.34,17.34,0,0,1,2.25-1.38,20.08,20.08,0,0,1,3.65-1.45,21.23,21.23,0,0,1,4.74-.79,21.51,21.51,0,0,1,4.79.35,20.68,20.68,0,0,1,3.76,1.12,17.37,17.37,0,0,1,2.37,1.17A3.31,3.31,0,0,1,358.64,369.86Z" style="fill:#ff9a6c"></path><path d="M312.91,225.72s47.13,4.43,55.93,43.72c9.72,43.43,11.25,54.7,11.25,54.7l-51,2.7Z" style="fill:#455a64"></path><path d="M300.5,411.29a21.73,21.73,0,0,1,.86-2.59,45.82,45.82,0,0,0,1.63-6.32,45.11,45.11,0,0,0,.67-6.5,19.39,19.39,0,0,1,.1-2.72,10.89,10.89,0,0,1,.26,2.72,32.79,32.79,0,0,1-.52,6.59,33.56,33.56,0,0,1-1.8,6.36A10.71,10.71,0,0,1,300.5,411.29Z" style="fill:#ff9a6c"></path><path d="M327.52,272.42c.15,0,1.41,11.65,2.82,26.06s2.44,26.1,2.3,26.12-1.41-11.66-2.82-26.07S327.38,272.43,327.52,272.42Z" style="fill:#263238"></path><path d="M166.47,245.35s-38.25,19.76-40.4,61.84,2.23,50.05,3.25,66.31c.86,13.65,1.78,68.78,23.1,68.9,25.68.14,37.76-18.68,42.49-35.74,1.73-6.23-14.59-20-23.84-39.78-.2-.42-2.28-35-2.28-35Z" style="fill:#ffbf9d"></path><path d="M135.28,400.84s8.2-11.72,22.59-16.64l27.47-39.4s18.4,17.81,18,18.87c0,0-5.19,42.34-14.32,55s-28.2,22.15-28.2,22.15S133.18,426.11,135.28,400.84Z" style="fill:#ffbf9d"></path><path d="M185.79,343.8c.15-.44,11.44-26.31,17-38.11,1.53-3.29,2.07-2.65,2.46-3.51,1.48-3.29,28.33-4,31.93-3.08s15.15,7.2,15.15,7.2l1.7,2.84s6.41,1.17,6.82,2.75a7.41,7.41,0,0,1-.76,5.74,8.1,8.1,0,0,1-6.39,4.6c-4.73.57-15.2.74-15.2.74l-13.6,4.54s20.8-4.92,21.37-.57-.38,5.31-5.12,6.45S221,338.12,221,338.12s-8.71,17.62-11.93,21.22a21.55,21.55,0,0,1-6.54,5.07l-19.88-13.77Z" style="fill:#ffbf9d"></path><path d="M237.13,299.1a2.27,2.27,0,0,1-.4-.05c-.25-.05-.65,0-1.15-.07-1,0-2.53,0-4.47,0-3.88.1-9.49.33-16.42.79a42.86,42.86,0,0,0-5.38.58,8.36,8.36,0,0,0-4.87,2.87,9.77,9.77,0,0,0-1.54,2.62l-1.3,2.94L198.88,315c-3.72,8.4-7.82,17.62-12.11,27.3l-.74,1.66v0l-27.1,39.28-.06.08h-.1a21.11,21.11,0,0,0-10.5,3.53,22.34,22.34,0,0,0-6.06,5.9,21.78,21.78,0,0,0-2.5,4.77c-.22.58-.34,1-.44,1.34a2.64,2.64,0,0,1-.17.46,3.43,3.43,0,0,1,.11-.47c.09-.31.19-.77.39-1.36a20.58,20.58,0,0,1,2.43-4.87,22.39,22.39,0,0,1,6.07-6,21.25,21.25,0,0,1,10.66-3.65l-.16.08,27-39.34,0,0,.74-1.66c4.31-9.68,8.42-18.89,12.15-27.28l2.74-6.13,1.31-2.93a10.11,10.11,0,0,1,1.62-2.72,8.76,8.76,0,0,1,5.11-3,21.16,21.16,0,0,1,2.79-.37l2.66-.18c6.93-.42,12.55-.59,16.44-.64,1.94,0,3.45,0,4.47.07a9.7,9.7,0,0,1,1.16.12A2.54,2.54,0,0,1,237.13,299.1Z" style="fill:#ff9a6c"></path><path d="M203.39,363.48a.81.81,0,0,1,0,.25l-.07.7c-.06.62-.15,1.54-.3,2.71-.28,2.35-.77,5.74-1.48,9.91s-1.66,9.12-2.94,14.57a156.31,156.31,0,0,1-5,17.5,70.17,70.17,0,0,1-8.29,16.2A42.54,42.54,0,0,1,174.91,436a27.4,27.4,0,0,1-9.09,4.19l-.81.22-.72.12-1.14.17-.71.1-.24,0a.64.64,0,0,1,.24-.07l.69-.15,1.13-.23.71-.14.8-.24a28,28,0,0,0,8.93-4.3,43.1,43.1,0,0,0,10.18-10.61,71.11,71.11,0,0,0,8.19-16.11,161.78,161.78,0,0,0,5.07-17.43c1.3-5.43,2.27-10.37,3-14.52s1.29-7.54,1.64-9.88c.17-1.13.3-2,.4-2.69,0-.28.08-.51.11-.7A.81.81,0,0,1,203.39,363.48Z" style="fill:#ff9a6c"></path><path d="M120.51,347.62h50.35l1.44-105.25s-41,9.29-48.28,54.23Z" style="fill:#455a64"></path><path d="M160.27,292.56a5.61,5.61,0,0,1,.14.66l.32,1.88c.27,1.7.65,4.06,1.11,6.94.94,5.86,2.32,13.93,3.88,22.85s2.89,17,3.74,22.89c.42,2.94.75,5.32.94,7l.23,1.9a3.28,3.28,0,0,1,0,.66,2.77,2.77,0,0,1-.15-.65l-.32-1.88c-.27-1.7-.65-4.06-1.11-6.94-.94-5.86-2.32-13.94-3.88-22.86s-2.89-17-3.73-22.89c-.42-2.93-.75-5.31-.95-7-.09-.78-.16-1.41-.22-1.9A2.61,2.61,0,0,1,160.27,292.56Z" style="fill:#263238"></path><path d="M222,315.24a8,8,0,0,1,1.46-.52c.95-.31,2.35-.69,4.09-1.08a56.68,56.68,0,0,1,27.67.75c1.72.49,3.1.94,4,1.31a9.8,9.8,0,0,1,1.43.59,8.09,8.09,0,0,1-1.5-.4c-.94-.31-2.33-.7-4.05-1.14A61.63,61.63,0,0,0,227.6,314c-1.74.34-3.14.66-4.11.91A10.1,10.1,0,0,1,222,315.24Z" style="fill:#ff9a6c"></path><path d="M219.86,305.63a6.57,6.57,0,0,1,1.33-.22c.86-.11,2.1-.21,3.64-.28a72.8,72.8,0,0,1,12.06.44A73.64,73.64,0,0,1,248.7,308c1.48.44,2.66.84,3.47,1.15a6.93,6.93,0,0,1,1.23.52,5.81,5.81,0,0,1-1.3-.33c-.82-.25-2-.59-3.5-1a85.06,85.06,0,0,0-23.75-2.88c-1.54,0-2.78.08-3.64.13A7.43,7.43,0,0,1,219.86,305.63Z" style="fill:#ff9a6c"></path></g></svg>
