<svg xmlns="http://www.w3.org/2000/svg" viewBox="0 0 500 500"><g id="freepik--Table--inject-1038"><path d="M478.59,477.11c0,.14-102.35.26-228.58.26s-228.6-.12-228.6-.26,102.33-.26,228.6-.26S478.59,477,478.59,477.11Z" style="fill:#263238"></path></g><g id="freepik--Character--inject-1038"><path d="M281.4,237.5l1.38-113.86C284.05,95.33,268.63,71,240.3,70.51l-2.63.11a50.67,50.67,0,0,0-48.54,48.62c-1,24.55-1.71,51.68-1,64.8,1.45,27.16,28.8,30.26,28.8,30.26s.17,16.53.16,24.51l12.77,21,31.22,10.42Z" style="fill:#ffbf9d"></path><path d="M216.93,214.3s17.17.3,34.95-11.92c0,0-7.67,20.78-34.88,19.45Z" style="fill:#ff9a6c"></path><path d="M201.66,141.93a3.88,3.88,0,0,0,3.91,3.76,3.71,3.71,0,0,0,3.85-3.66,3.88,3.88,0,0,0-3.9-3.76A3.72,3.72,0,0,0,201.66,141.93Z" style="fill:#263238"></path><path d="M195.41,131c.5.48,3.35-1.82,7.52-2s7.32,1.8,7.76,1.27c.21-.23-.32-1.13-1.69-2a10.68,10.68,0,0,0-6.24-1.64,10.16,10.16,0,0,0-6,2.2C195.56,129.86,195.16,130.79,195.41,131Z" style="fill:#263238"></path><path d="M239.14,141.93a3.88,3.88,0,0,0,3.91,3.76A3.71,3.71,0,0,0,246.9,142a3.88,3.88,0,0,0-3.9-3.76A3.72,3.72,0,0,0,239.14,141.93Z" style="fill:#263238"></path><path d="M236.37,130.28c.51.49,3.36-1.81,7.53-2s7.32,1.8,7.76,1.27c.21-.24-.31-1.13-1.69-2a10.63,10.63,0,0,0-6.24-1.65,10.22,10.22,0,0,0-6,2.2C236.53,129.13,236.13,130.07,236.37,130.28Z" style="fill:#263238"></path><path d="M222.72,163c0-.23-2.6-.58-6.83-.94-1.07-.07-2.09-.24-2.3-1s.12-1.92.58-3.19l2.82-8.24c3.9-11.74,6.68-21.38,6.2-21.53s-4,9.24-7.92,21c-.93,2.89-1.83,5.65-2.68,8.29-.35,1.23-1,2.63-.38,4.2a2.66,2.66,0,0,0,1.82,1.49,7.26,7.26,0,0,0,1.82.18C220.09,163.31,222.71,163.22,222.72,163Z" style="fill:#263238"></path><path d="M234.48,117.28c.61,1,4.62-.25,9.55-.56s9.07.29,9.52-.83c.2-.54-.67-1.46-2.44-2.25a16.59,16.59,0,0,0-14.53,1.06C234.94,115.74,234.21,116.78,234.48,117.28Z" style="fill:#263238"></path><path d="M194.71,118.74c.89.92,4.27-.15,8.35-.31s7.57.44,8.35-.57c.33-.49-.24-1.43-1.78-2.29a13.15,13.15,0,0,0-6.83-1.37,13,13,0,0,0-6.62,2.08C194.76,117.29,194.31,118.28,194.71,118.74Z" style="fill:#263238"></path><path d="M281.4,143.85c.45-.22,18.44-6.29,18.61,12.31s-18.53,14.94-18.57,14.4S281.4,143.85,281.4,143.85Z" style="fill:#ffbf9d"></path><path d="M287.05,163.46c.08-.06.33.23.88.47a3.24,3.24,0,0,0,2.42,0c2-.74,3.59-3.88,3.64-7.23a10.48,10.48,0,0,0-.95-4.63,3.73,3.73,0,0,0-2.46-2.46,1.65,1.65,0,0,0-1.9.9c-.24.53-.12.9-.22.93s-.4-.31-.26-1.08a2.06,2.06,0,0,1,.72-1.17,2.43,2.43,0,0,1,1.79-.49c1.43.08,2.74,1.39,3.41,2.85a10.94,10.94,0,0,1,1.17,5.17c-.08,3.75-2,7.28-4.65,8.08a3.5,3.5,0,0,1-3-.46C287.09,163.91,287,163.5,287.05,163.46Z" style="fill:#ff9a6c"></path><path d="M235.84,165.57c-.64,0-.67,4.23-4.34,7.25s-8.21,2.52-8.25,3.12c-.06.26,1,.83,2.93.89a10.62,10.62,0,0,0,6.89-2.36,9.29,9.29,0,0,0,3.36-6.08C236.6,166.61,236.13,165.55,235.84,165.57Z" style="fill:#263238"></path><path d="M151.59,94.77a4.45,4.45,0,0,1,2-2.59c2.12-1.29,4.58-1.15,7-1.21a39.19,39.19,0,0,0,17-4.47,19.49,19.49,0,0,1-5.05-3.45c-3-3-4.82-7.54-3.49-11.57a2.58,2.58,0,0,1,1.44-1.8c1.21-.38,2.28.79,3.13,1.72,2.8,3.07,5.38,4.37,9.51,3.9a16.48,16.48,0,0,0,7-2.17c.08-.09.15-.18.23-.26,1-1,1.89-2,2.81-2.91h0c6.92-7,12.89-11.9,19.05-14.46,9-3.76,24.21-5.42,33.71-3s18.08,10,19.51,19.65c5.26-4.55,13.23-4.61,19.73-2.08l.16-.07C292.56,72.44,296.74,80,299,87.33c.12.4.22.8.34,1.2a28.5,28.5,0,0,0,9.8,9.36c.7.4,1.5.89,1.6,1.69s-.57,1.45-1.22,1.93a14.28,14.28,0,0,1-5.8,2.48,32.11,32.11,0,0,0,2.45,5c.83,1.37,1.81,3,1.12,4.44a3.05,3.05,0,0,1-3.17,1.43,9,9,0,0,1-3.37-1.48c.83,1.91,1.65,3.82,2.48,5.74a17.19,17.19,0,0,1-7.84-.43c-1.45,6.88-2.46,19.61-4.18,24.29-4.93.14-6.14-.38-8.62.47-3.21,1.11-1.91,6.8-6.12,5.22-2.15-.8-5.51-8.85-6.25-11a106.24,106.24,0,0,1-5.11-44.9,34,34,0,0,0-10.63-7.49l.33.29c-7.64-2.56-16.27-5.06-23.45-1.41-5.56,2.84-8.79,8.68-12.92,13.36-7.83,8.88-16.75,13.67-28.57,14.31-1,8.22-1.14,21.65-1.45,29.32l-6.72-15.26V126a29.1,29.1,0,0,1-1.42-2.7l-.15-.27v0a46.56,46.56,0,0,0-2.2-4.34.46.46,0,0,0-.07.07c-4.11,3.71-10.3-1.82-7.07-6.32A10.68,10.68,0,0,1,173,110a7.59,7.59,0,0,1-7.2,2,6,6,0,0,1-4.27-5.83,5.07,5.07,0,0,1,3-4.09,17,17,0,0,1-9.73-2C152.87,99,151,97.19,151.59,94.77Z" style="fill:#263238"></path><path d="M256.91,75.33a23.53,23.53,0,0,1,2.76,2.46,19.58,19.58,0,0,1,4.28,9,33.88,33.88,0,0,1,.77,6.91c0,2.5-.13,5.19-.29,8a71.28,71.28,0,0,0-.1,8.93,30.75,30.75,0,0,0,.67,4.7,9.76,9.76,0,0,0,2,4.55,4.11,4.11,0,0,0,3.86,1.24,6.06,6.06,0,0,0,3.43-2c1.73-2.06,2.14-4.66,2.55-7l-.57.08a22.5,22.5,0,0,0,3.37,5.66,8.13,8.13,0,0,0,5.33,2.83,5.31,5.31,0,0,0,2.8-.53,4.55,4.55,0,0,0,1.89-1.9,4.67,4.67,0,0,0,.55-2.42,3.41,3.41,0,0,0-.9-2.11l-.29.27a17.78,17.78,0,0,0,5.9,4.32,17.36,17.36,0,0,0,1.82.68,2.68,2.68,0,0,0,.65.15,3.15,3.15,0,0,0-.61-.25c-.41-.16-1-.4-1.77-.77a18.18,18.18,0,0,1-5.7-4.39l-.28.26a3.48,3.48,0,0,1,.23,4,4.16,4.16,0,0,1-1.71,1.69,4.81,4.81,0,0,1-2.54.44,7.63,7.63,0,0,1-5-2.68,23,23,0,0,1-3.25-5.55l-.4-.87-.17.95c-.41,2.28-.84,4.78-2.42,6.64a5.53,5.53,0,0,1-3.07,1.78,3.46,3.46,0,0,1-3.28-1.06,9.35,9.35,0,0,1-1.83-4.25,32,32,0,0,1-.66-4.61,72.22,72.22,0,0,1,.07-8.85c.14-2.83.3-5.53.23-8.07a34,34,0,0,0-.86-7,19.18,19.18,0,0,0-4.54-9.05A10.92,10.92,0,0,0,256.91,75.33Z" style="fill:#455a64"></path><path d="M173,102.77a1.47,1.47,0,0,0,.22.19l.69.48a8.82,8.82,0,0,0,1.16.73,13.53,13.53,0,0,0,1.67.85,24.11,24.11,0,0,0,11.67,2,30.82,30.82,0,0,0,16.36-6.26c5.39-4,10.1-9.78,13.93-16.42,1.94-3.32,3.52-6.72,5.26-9.86a36.17,36.17,0,0,1,6-8.36,18.65,18.65,0,0,1,7.79-4.85,13.2,13.2,0,0,1,4.13-.52,14.38,14.38,0,0,1,3.79.68,15.81,15.81,0,0,1,8.84,7.31A19.3,19.3,0,0,1,256,72.77a1,1,0,0,0,0-.28c0-.23-.08-.5-.14-.84a13.61,13.61,0,0,0-1.06-3.06,15.67,15.67,0,0,0-3.1-4.1A16,16,0,0,0,245.81,61a14.89,14.89,0,0,0-3.92-.75,13.64,13.64,0,0,0-4.3.51,19,19,0,0,0-8.05,4.94,35.82,35.82,0,0,0-6.12,8.47c-1.77,3.16-3.35,6.55-5.27,9.84-3.8,6.59-8.44,12.34-13.73,16.27a30.71,30.71,0,0,1-16,6.28,24.45,24.45,0,0,1-11.54-1.74A38.51,38.51,0,0,1,173,102.77Z" style="fill:#455a64"></path><path d="M170.39,90.84a4.5,4.5,0,0,0,1,.67,21.33,21.33,0,0,0,2.91,1.43,27.58,27.58,0,0,0,4.6,1.45,29.75,29.75,0,0,0,11.74.25,28.72,28.72,0,0,0,4.65-1.26,21.55,21.55,0,0,0,3-1.32,5.05,5.05,0,0,0,1-.62c-.06-.11-1.55.68-4.12,1.51a31.29,31.29,0,0,1-4.61,1.11,34.81,34.81,0,0,1-5.77.41,35.67,35.67,0,0,1-5.75-.65,31.84,31.84,0,0,1-4.56-1.3C171.91,91.59,170.45,90.73,170.39,90.84Z" style="fill:#455a64"></path><path d="M279.35,220c-.14,0-.26-10.07-.26-22.48s.12-22.47.26-22.47.26,10.06.26,22.47S279.49,220,279.35,220Z" style="fill:#fff"></path><path d="M291.77,121.15a9.75,9.75,0,0,1,0,2.38c-.09,1.47-.29,3.49-.63,5.7s-.77,4.2-1.13,5.63a10.38,10.38,0,0,1-.71,2.27,10.87,10.87,0,0,1,.35-2.35c.27-1.44.63-3.42,1-5.63s.6-4.2.78-5.65A13.26,13.26,0,0,1,291.77,121.15Z" style="fill:#fff"></path><path d="M303.61,95.63a2.43,2.43,0,0,1-.79-.24,13.88,13.88,0,0,1-2-1,19.91,19.91,0,0,1-9.13-11.35,15.55,15.55,0,0,1-.51-2.19,2.89,2.89,0,0,1-.06-.83c.09,0,.29,1.14.92,2.9a22,22,0,0,0,9,11.16C302.56,95.1,303.64,95.54,303.61,95.63Z" style="fill:#fff"></path><path d="M305.21,110.16c-.14,0-.65-1.34-1.7-2.79s-2.19-2.38-2.1-2.5a7.33,7.33,0,0,1,3.8,5.29Z" style="fill:#fff"></path><path d="M240.9,72.94c0,.07-1,0-2.65.42a18.33,18.33,0,0,0-6.57,3.06,32.92,32.92,0,0,0-7.51,7.74c-2.42,3.29-4.71,7.2-7.66,10.94a36.55,36.55,0,0,1-4.81,5,35.16,35.16,0,0,1-15.55,7.52,30.77,30.77,0,0,1-7.34.66c-.87,0-1.54-.09-2-.12a3.57,3.57,0,0,1-.69-.1s1,0,2.69,0a33.53,33.53,0,0,0,7.26-.82,35.3,35.3,0,0,0,15.3-7.55,36,36,0,0,0,4.73-5c2.92-3.7,5.22-7.6,7.68-10.9a32.35,32.35,0,0,1,7.69-7.76,17.74,17.74,0,0,1,6.74-3,12.68,12.68,0,0,1,2-.23A4.67,4.67,0,0,1,240.9,72.94Z" style="fill:#fff"></path><path d="M336.32,219.64,424,196.76,389.7,97.45,416,88.94s62.83,93.55,61.88,113.1-31.78,42.75-60,53.29c-22.66,8.46-70.55,23.47-70.55,23.47Z" style="fill:#ffbf9d"></path><path d="M446.81,216.43a5.85,5.85,0,0,1-1.28-.09,11.78,11.78,0,0,1-1.48-.24,17.67,17.67,0,0,1-1.93-.49l-1.11-.34-1.17-.46a26.74,26.74,0,0,1-2.52-1.18,29.37,29.37,0,0,1-5.19-3.68,29,29,0,0,1-4.21-4.77,24,24,0,0,1-1.45-2.37,18.83,18.83,0,0,1-1.07-2.17,18.09,18.09,0,0,1-.71-1.86,12,12,0,0,1-.43-1.44,6.86,6.86,0,0,1-.25-1.26c.11,0,.5,1.76,1.73,4.41a20.55,20.55,0,0,0,1.1,2.11,26.6,26.6,0,0,0,1.47,2.3,29.62,29.62,0,0,0,4.17,4.66,30.45,30.45,0,0,0,5.07,3.65c.86.43,1.65.89,2.45,1.2.4.16.77.34,1.14.48l1.09.37C445,216.17,446.83,216.32,446.81,216.43Z" style="fill:#ff9a6c"></path><path d="M133.68,327.49s-3.34,82-3.29,95.52c0,10,10.73,53.73,10.73,53.73h43.19l-10.06-63.28,6.19-70Z" style="fill:#ffbf9d"></path><path d="M329.47,219.79l-47.88,2.1s-2.24,20.75-27.14,23.73c-22.59,2.69-36.85-18.17-36.85-18.17s-52,15.19-62,22.51l19.59,148.2,9.4,56.28s-4.87,7.37-4.87,15.28-1.52,7-1.52,7H353.1s1.09-5.7-2.11-13-2.61-8-2.61-8l-5.27-84.08-1-63.24Z" style="fill:#e0e0e0"></path><path d="M155.62,250a51.06,51.06,0,0,0-19.75,31c-4.16,20.81-13.33,72.61-13.33,72.61l74,2.92s-4.44-36-4.44-38.25-12.53-51.82-13.29-53S155.62,250,155.62,250Z" style="fill:#e0e0e0"></path><path d="M315.5,225.49s15.57-6.62,18.21-7.12,52.64-10.81,52.64-10.81l3.35,69-45.22,16.89-2.64,26.74Z" style="fill:#e0e0e0"></path><path d="M159.53,294.1c.14,0,5.87,35.86,12.8,80.13s12.42,80.19,12.28,80.21-5.87-35.84-12.8-80.13S159.39,294.13,159.53,294.1Z" style="fill:#263238"></path><path d="M348.29,246.79a6.35,6.35,0,0,1,0,.75c0,.54,0,1.26,0,2.15,0,1.87,0,4.57,0,7.91-.09,6.68-.5,15.91-1.58,26s-2.36,19.28-3.29,25.89c-.48,3.26-.88,5.92-1.16,7.82-.14.89-.25,1.59-.34,2.13a3.75,3.75,0,0,1-.15.73,3.84,3.84,0,0,1,.05-.75l.24-2.13c.24-1.91.58-4.58,1-7.85.84-6.62,2.07-15.76,3.14-25.89s1.55-19.34,1.74-26c.07-3.29.13-6,.18-7.9,0-.89,0-1.61.05-2.15A3.7,3.7,0,0,1,348.29,246.79Z" style="fill:#263238"></path><path d="M326.93,225.21c0,.14-8.35,1.14-18.68,2.22s-18.73,1.84-18.74,1.7,8.35-1.14,18.68-2.22S326.92,225.07,326.93,225.21Z" style="fill:#fff"></path><path d="M324.9,462.76a1.23,1.23,0,0,1-.33.05l-1,.1-3.77.32c-3.27.28-8,.6-13.86.94-11.72.68-27.93,1.26-45.84,1.18s-34.12-.84-45.83-1.63c-5.86-.39-10.59-.77-13.86-1.07l-3.76-.36-1-.11a1.23,1.23,0,0,1-.33-.05h.34l1,.05,3.77.26c3.27.25,8,.56,13.86.91,11.71.7,27.91,1.39,45.81,1.48s34.1-.44,45.82-1c5.86-.29,10.6-.56,13.87-.77l3.77-.22,1-.05Z" style="fill:#263238"></path><rect x="238.66" y="313.71" width="52.51" height="70.75" transform="translate(-26.55 21.85) rotate(-4.5)" style="fill:#fff"></rect><path d="M302.33,307.17a1.49,1.49,0,0,1-.07.27c-.06.21-.14.47-.24.79-.23.73-.56,1.74-1,3-.22.66-.45,1.38-.71,2.18s-.64,1.62-1,2.53c-.74,1.81-1.49,3.92-2.59,6.12-.52,1.12-1.07,2.29-1.65,3.5s-1.29,2.42-2,3.7c-1.32,2.58-3,5.19-4.72,8a121.64,121.64,0,0,1-28.76,30.87c-2.64,1.91-5.12,3.77-7.6,5.27-1.23.77-2.38,1.56-3.55,2.23l-3.37,1.89c-2.13,1.25-4.17,2.15-5.92,3-.89.42-1.7.83-2.46,1.17l-2.13.87-2.94,1.18-.76.29a1,1,0,0,1-.27.09s.08-.05.25-.13l.75-.35,2.89-1.27,2.1-.91c.76-.35,1.57-.77,2.44-1.2,1.74-.89,3.76-1.81,5.87-3.08l3.34-1.92c1.16-.67,2.31-1.47,3.53-2.24,2.46-1.51,4.92-3.38,7.54-5.29A134.24,134.24,0,0,0,275,353.58,135.26,135.26,0,0,0,288,337c1.72-2.75,3.41-5.33,4.74-7.9.68-1.27,1.4-2.46,2-3.67s1.13-2.36,1.67-3.47c1.12-2.19,1.89-4.28,2.65-6.07.37-.91.74-1.74,1-2.52l.76-2.16c.45-1.26.81-2.26,1.06-3,.12-.32.22-.57.29-.77A1,1,0,0,1,302.33,307.17Z" style="fill:#263238"></path><g style="opacity:0.30000000000000004"><path d="M244.79,399.59c6.19,3.28,13.52-1.12,19.08-5.38,9.28-7.11,18.56-14.4,26.06-23.37s14.48-20.93,15.47-32.58A278.08,278.08,0,0,1,244.79,399.59Z"></path></g><path d="M357.76,40.8c-.31.21.5,17.27,0,21.52s1.88,12.64,5,15.64,12.56,11.67,16.08,14.49c2.14,1.71,4.27,4,11.17,5.34l3.42,9L418.12,93s-4.05-19.29-4.3-24.92-1.38-13.14-1.38-16.14-2.25-6.26-8-4.63c0,0-.75-4.63-7-3.38,0,0-1-4-6-3.13s-19.05,1-21.16,2.13a10.91,10.91,0,0,0-3.49,3.25S364.77,36.17,357.76,40.8Z" style="fill:#ffbf9d"></path><rect x="368.72" y="245.69" width="29" height="6.25" style="fill:#18A0FB"></rect><path d="M362.1,161.76V179.4h41.55V161.76Zm8.42,11.1a2,2,0,1,1,2-2A2,2,0,0,1,370.52,172.86Zm8.5,0a2,2,0,1,1,2-2A2,2,0,0,1,379,172.86Zm8.51,0a2,2,0,1,1,2-2A2,2,0,0,1,387.53,172.86Zm8.51,0a2,2,0,1,1,2-2A2,2,0,0,1,396,172.86Z" style="fill:#18A0FB"></path><g style="opacity:0.30000000000000004"><path d="M362.1,161.76V179.4h41.55V161.76Zm8.42,11.1a2,2,0,1,1,2-2A2,2,0,0,1,370.52,172.86Zm8.5,0a2,2,0,1,1,2-2A2,2,0,0,1,379,172.86Zm8.51,0a2,2,0,1,1,2-2A2,2,0,0,1,387.53,172.86Zm8.51,0a2,2,0,1,1,2-2A2,2,0,0,1,396,172.86Z"></path></g><path d="M344.74,149.2l4.51-72.53a16.84,16.84,0,0,1,17-15.23h30.94A17,17,0,0,1,414.11,75.9l5.54,72.51Zm21.51-86.76a15.81,15.81,0,0,0-16,14.31l-4.45,71.44,72.71-.78L413.09,76a16,16,0,0,0-15.9-13.57Z" style="fill:#263238"></path><rect x="360.47" y="146.9" width="46.04" height="12.5" style="fill:#18A0FB"></rect><path d="M357.32,266.35c-4.52,0-15-.79-22.29-7.51-4.95-4.57-7.45-10.88-7.43-18.75s8.16-55,13-82.45A17.65,17.65,0,0,1,358,143.05H407.2a17.68,17.68,0,0,1,17.38,14.43c6.61,35.45,14.19,79.66,12.73,89-2.33,14.88-24.44,18.9-25.38,19.06l-.3.06h-.31l-52,.69C359,266.31,358.33,266.35,357.32,266.35ZM358,150.76a10,10,0,0,0-9.82,8.23c-8.07,45.59-12.89,75.91-12.9,81.12,0,5.69,1.59,9.95,4.92,13,6.79,6.29,18.52,5.45,18.64,5.44h.26l51.77-.69c5.09-1,17.59-4.93,18.79-12.61,1-6.16-3.9-39.26-12.69-86.38a10,10,0,0,0-9.8-8.14Z" style="fill:#18A0FB"></path><path d="M412.43,256.17a131.33,131.33,0,0,0-15-4.2h-27.8a131.33,131.33,0,0,0-15,4.2c-8.21,2.82-8.06,9.68-8.06,9.68v18.07h73.92V265.85S420.64,259,412.43,256.17Z" style="fill:#18A0FB"></path><path d="M412.43,256.17l.52.19a10.68,10.68,0,0,1,1.49.65,8.84,8.84,0,0,1,1.06.58,9,9,0,0,1,1.18.84,10.23,10.23,0,0,1,2.41,2.7c.18.29.33.61.51.92s.31.67.42,1a8.92,8.92,0,0,1,.52,2.33c0,1.66,0,3.45,0,5.39,0,3.86,0,8.26,0,13.12v.1h-.1l-66.44,0h-7.62v-.13q0-6.53,0-12.79v-4.64a8.94,8.94,0,0,1,.07-1.55,10.19,10.19,0,0,1,.89-2.92,11,11,0,0,1,1.69-2.5,12.82,12.82,0,0,1,4.86-3.21c1.8-.69,3.6-1.23,5.36-1.78,3.54-1.06,7-2,10.3-2.67h0l27.8,0h0c4.85,1.06,8.59,2.18,11.12,3,1.27.4,2.23.72,2.88.95l.73.25.25.1-.26-.08-.73-.24-2.89-.91c-2.54-.76-6.28-1.86-11.13-2.9h0l-27.8,0h0c-3.31.71-6.74,1.62-10.27,2.68-1.76.55-3.56,1.09-5.34,1.78a12.78,12.78,0,0,0-4.77,3.15,11.22,11.22,0,0,0-1.64,2.44,9.6,9.6,0,0,0-.86,2.85,8.29,8.29,0,0,0-.07,1.5v17.44l-.13-.13h7.48l66.44,0-.09.1c0-4.86,0-9.26,0-13.12,0-1.93,0-3.74,0-5.38a9.3,9.3,0,0,0-.51-2.3,10.33,10.33,0,0,0-.41-1c-.17-.31-.32-.63-.5-.91a9.89,9.89,0,0,0-2.36-2.69,11,11,0,0,0-1.17-.85,8.87,8.87,0,0,0-1-.59,12,12,0,0,0-1.48-.67Z" style="fill:#263238"></path><path d="M391.5,266.39a11.93,11.93,0,0,0-.29-1.86,7.38,7.38,0,0,0-.86-2,7.56,7.56,0,0,0-9.08-3.2,7,7,0,0,0-1.9,1,7.36,7.36,0,0,0-1.6,1.6,7.67,7.67,0,0,0-1.46,4.46,7.54,7.54,0,0,0,8.92,7.41,7.58,7.58,0,0,0,5.12-3.54,7.25,7.25,0,0,0,.86-2,12.11,12.11,0,0,0,.29-1.85s0,0,0,.12v.37a3.29,3.29,0,0,1,0,.59,4.78,4.78,0,0,1-.15.8,7,7,0,0,1-.83,2.07,7.75,7.75,0,0,1-5.21,3.68,7.68,7.68,0,0,1-4.08-.32,7.3,7.3,0,0,1-2-1.06,7.18,7.18,0,0,1-1.65-1.65,7.74,7.74,0,0,1,0-9.21,7.38,7.38,0,0,1,1.65-1.65,7.3,7.3,0,0,1,2-1.06,7.78,7.78,0,0,1,4.08-.32,7.58,7.58,0,0,1,3.26,1.47,7.37,7.37,0,0,1,2,2.22,6.82,6.82,0,0,1,.83,2.06,4.78,4.78,0,0,1,.15.8,3.45,3.45,0,0,1,0,.6v.36C391.51,266.34,391.51,266.39,391.5,266.39Z" style="fill:#263238"></path><path d="M389.06,266.39a5.22,5.22,0,1,1-5.22-5.23A5.22,5.22,0,0,1,389.06,266.39Z" style="fill:#263238"></path><path d="M419.54,290.71h-74a3.86,3.86,0,0,1-3.86-3.86h0a3.86,3.86,0,0,1,3.86-3.87h74a3.87,3.87,0,0,1,3.87,3.87h0A3.86,3.86,0,0,1,419.54,290.71Z" style="fill:#18A0FB"></path><path d="M419.54,290.71a4.24,4.24,0,0,0,1.68-.42,3.76,3.76,0,0,0,1.54-1.38,3.87,3.87,0,0,0,.53-2.75,3.82,3.82,0,0,0-2.09-2.73,4.1,4.1,0,0,0-2-.38H417l-10.51,0-60.89,0a3.74,3.74,0,0,0-1.12,7.3,7.21,7.21,0,0,0,2.09.17h20.4l27.38,0,18.45,0,5,0,1.31,0h.44l-.44,0h-1.31l-5,0-18.45.05-27.38,0h-20.4c-.36,0-.71,0-1.08,0a4,4,0,0,1,.11-8l60.89,0,10.51,0h2.24a4.22,4.22,0,0,1,2,.4,3.89,3.89,0,0,1,0,7,3.75,3.75,0,0,1-1.25.36A3.8,3.8,0,0,1,419.54,290.71Z" style="fill:#263238"></path><rect x="361.35" y="137.28" width="44.01" height="7.27" style="fill:#18A0FB"></rect><polygon points="354.78 161.76 411.67 161.76 406.51 158.19 361.04 158.19 354.78 161.76" style="fill:#18A0FB"></polygon><path d="M355.68,187.17s-.45-7.77,6.42-7.77h41.55s7-.43,7,7.77Z" style="fill:#18A0FB"></path><path d="M409.87,187.17H356.5s-7.2,23.28-5,35,17.2,18.64,17.2,18.64v4.84h14.43v-.56l.07.56h14.43v-4.84s15-6.88,17.2-18.64S409.87,187.17,409.87,187.17Z" style="fill:#fff"></path><path d="M409.87,187.17l.09.28c.06.19.15.46.26.82.21.73.53,1.81.91,3.22.75,2.83,1.84,7,2.82,12.33.5,2.67.93,5.65,1.21,8.9a35.08,35.08,0,0,1-.44,10.53,22.53,22.53,0,0,1-6.22,10.12,38.87,38.87,0,0,1-5,4.13A42.34,42.34,0,0,1,397.7,241l.07-.11c0,1.5,0,3.16,0,4.84v.12H383.11l0-.12c0-.17,0-.36-.07-.55l.26,0v.69H368.59v-5l.07.12a43.19,43.19,0,0,1-5.9-3.51,38.25,38.25,0,0,1-5.7-4.9,24.63,24.63,0,0,1-4.24-6,18.48,18.48,0,0,1-1.23-3.43l-.2-.88-.12-.9c-.06-.59-.18-1.18-.2-1.78A35,35,0,0,1,351,216c0-.59,0-1.17.06-1.75l.12-1.74a103.31,103.31,0,0,1,2.1-13.27q1.38-6.36,3.11-12.1l0-.08h.08l38.72.05,10.84,0,2.84,0H406l-10.84,0-38.68,0,.11-.08c-1.14,3.81-2.17,7.85-3.09,12.08a103.14,103.14,0,0,0-2.08,13.24c0,.57-.08,1.15-.13,1.73s0,1.16-.05,1.74c-.06,1.17,0,2.34.07,3.52,0,.6.14,1.18.2,1.77l.12.88.2.87a17.84,17.84,0,0,0,1.21,3.37,24.07,24.07,0,0,0,4.2,6,37.19,37.19,0,0,0,5.66,4.86,41.66,41.66,0,0,0,5.86,3.49l.07,0v4.92l-.13-.14h14.43l-.13.13v-.56l.26,0,.07.56-.13-.11h14.43l-.12.13v-4.91l.07,0a41.45,41.45,0,0,0,5.79-3.43,38.37,38.37,0,0,0,4.95-4.1,22.25,22.25,0,0,0,6.18-10,35,35,0,0,0,.47-10.46c-.27-3.25-.69-6.23-1.18-8.9-1-5.34-2-9.5-2.75-12.33-.37-1.42-.68-2.5-.88-3.23l-.23-.82C409.89,187.27,409.87,187.17,409.87,187.17Z" style="fill:#263238"></path><path d="M393.32,227.55a22.43,22.43,0,0,0-.89-26c-1.91-2.38-4.54-4.44-7.58-4.6-4.07-.21-7.55,3-9.6,6.55a23,23,0,0,0,2,26.62s.32-6.36,6.63-6.36A12.7,12.7,0,0,1,393.32,227.55Z" style="fill:#18A0FB"></path><g style="opacity:0.8"><path d="M393.32,227.55a22.43,22.43,0,0,0-.89-26c-1.91-2.38-4.54-4.44-7.58-4.6-4.07-.21-7.55,3-9.6,6.55a23,23,0,0,0,2,26.62s.32-6.36,6.63-6.36A12.7,12.7,0,0,1,393.32,227.55Z" style="fill:#fff"></path></g><path d="M389.74,232.88c2.25-2,4.62-5.34,4.24-8.35a28.5,28.5,0,0,0-3-8.54c-.37-.79-.87-1.67-1.73-1.81s-1.73.67-2.33,1.41c-1-2.15-2.07-4.27-3.24-6.33-.41-.73-1.08-1.57-1.9-1.37a1.9,1.9,0,0,0-1,.75,24.55,24.55,0,0,0-5.68,11.76c-.62,4.36.6,9.13,3.85,12.1,0,0,.36-6.26,5.68-6.26S389.74,232.88,389.74,232.88Z" style="fill:#18A0FB"></path><path d="M407.81,246l-2.57-17.91a6.57,6.57,0,0,0-4.34-5.28l-50-17.6.34-1,50,17.6a7.59,7.59,0,0,1,5,6.11l2.57,17.9Z" style="fill:#263238"></path><path d="M359.55,246l-1-.15L361.1,228a7.63,7.63,0,0,1,5.07-6.13l47.9-16.46.33,1L366.51,222.8a6.56,6.56,0,0,0-4.39,5.3Z" style="fill:#263238"></path><path d="M344,154.73a5.61,5.61,0,1,1,6.84-6.68l-1,.23a4.58,4.58,0,1,0-5.59,5.45Z" style="fill:#18A0FB"></path><path d="M419,155.86l-.2-1a5.1,5.1,0,1,0-5.17-7.9l-.85-.58a6.13,6.13,0,1,1,6.22,9.49Z" style="fill:#18A0FB"></path><path d="M362.86,125.08v12.2H403.3v-12.2Zm16.51,9h-11.9V128h11.9Zm20.44,0H387.9V128h11.91Z" style="fill:#18A0FB"></path><g style="opacity:0.30000000000000004"><path d="M362.86,125.08v12.2H403.3v-12.2Zm16.51,9h-11.9V128h11.9Zm20.44,0H387.9V128h11.91Z"></path></g><polygon points="358.61 125.08 408.38 125.08 389.87 119.46 376.3 119.46 358.61 125.08" style="fill:#18A0FB"></polygon><path d="M390,119.72H376.13v-8.36a6.93,6.93,0,0,1,13.86,0Zm-13.34-.51h12.82v-7.85a6.41,6.41,0,1,0-12.82,0Z" style="fill:#18A0FB"></path><path d="M406.33,142.77c0,.08-10.16.14-22.68.14s-22.69-.06-22.69-.14,10.15-.13,22.69-.13S406.33,142.7,406.33,142.77Z" style="fill:#263238"></path><path d="M407.48,151c0,.07-10.67.13-23.83.13s-23.84-.06-23.84-.13,10.67-.14,23.84-.14S407.48,150.9,407.48,151Z" style="fill:#263238"></path><path d="M406.43,158.26c0,.07-10.32.13-23.05.13s-23-.06-23-.13,10.31-.14,23-.14S406.43,158.18,406.43,158.26Z" style="fill:#263238"></path><path d="M412,246.2H355.92a3.59,3.59,0,0,1-3.53-2.82l-.85-3.73a2.58,2.58,0,0,0-2.53-2H335.42v-1H349a3.61,3.61,0,0,1,3.53,2.82l.85,3.73a2.58,2.58,0,0,0,2.53,2H412a2,2,0,0,0,1.83-1.17l2.56-5.62a3,3,0,0,1,2.76-1.78h10.37v1H419.19a2,2,0,0,0-1.83,1.18l-2.56,5.62A3,3,0,0,1,412,246.2Z" style="fill:#263238"></path><path d="M391.5,266.39a11.93,11.93,0,0,0-.29-1.86,7.38,7.38,0,0,0-.86-2,7.56,7.56,0,0,0-9.08-3.2,7,7,0,0,0-1.9,1,7.36,7.36,0,0,0-1.6,1.6,7.67,7.67,0,0,0-1.46,4.46,7.54,7.54,0,0,0,8.92,7.41,7.58,7.58,0,0,0,5.12-3.54,7.25,7.25,0,0,0,.86-2,12.11,12.11,0,0,0,.29-1.85s0,0,0,.12v.37a3.29,3.29,0,0,1,0,.59,4.78,4.78,0,0,1-.15.8,7,7,0,0,1-.83,2.07,7.75,7.75,0,0,1-5.21,3.68,7.68,7.68,0,0,1-4.08-.32,7.3,7.3,0,0,1-2-1.06,7.18,7.18,0,0,1-1.65-1.65,7.74,7.74,0,0,1,0-9.21,7.38,7.38,0,0,1,1.65-1.65,7.3,7.3,0,0,1,2-1.06,7.78,7.78,0,0,1,4.08-.32,7.58,7.58,0,0,1,3.26,1.47,7.37,7.37,0,0,1,2,2.22,6.82,6.82,0,0,1,.83,2.06,4.78,4.78,0,0,1,.15.8,3.45,3.45,0,0,1,0,.6v.36C391.51,266.34,391.51,266.39,391.5,266.39Z" style="fill:#263238"></path><g style="opacity:0.30000000000000004"><path d="M383.84,274.15a7.66,7.66,0,0,1-7.58-6.6,7.45,7.45,0,0,0-.08,1.06,7.66,7.66,0,1,0,15.32,0,7.45,7.45,0,0,0-.08-1.06A7.66,7.66,0,0,1,383.84,274.15Z"></path></g><path d="M410.76,187.17c0,.08-12.34.14-27.57.14s-27.57-.06-27.57-.14S368,187,383.19,187,410.76,187.1,410.76,187.17Z" style="fill:#263238"></path><path d="M394.05,185.66c0,.07-4.13.13-9.22.13s-9.21-.06-9.21-.13,4.12-.13,9.21-.13S394.05,185.59,394.05,185.66Z" style="fill:#fff"></path><path d="M396.4,160.91c0,.07-4.21.13-9.4.13s-9.4-.06-9.4-.13,4.21-.14,9.4-.14S396.4,160.83,396.4,160.91Z" style="fill:#fff"></path><path d="M393.14,156c0,.07-2.5.13-5.6.13s-5.6-.06-5.6-.13a112.07,112.07,0,0,1,11.2,0Z" style="fill:#fff"></path><path d="M390.43,147.54c0,.07-2.46.13-5.51.13s-5.51-.06-5.51-.13a108.5,108.5,0,0,1,11,0Z" style="fill:#fff"></path><path d="M389.53,140.13a63.62,63.62,0,0,1-8.13,0,59.09,59.09,0,0,1,8.13,0Z" style="fill:#fff"></path><path d="M396.4,124.23c0,.07-3.93.13-8.77.13s-8.76-.06-8.76-.13,3.92-.14,8.76-.14S396.4,124.15,396.4,124.23Z" style="fill:#fff"></path><path d="M387.9,247.27a70,70,0,0,1-8.85,0,75.38,75.38,0,0,1,8.85,0Z" style="fill:#fff"></path><path d="M391.52,255.22c0,.08-2.71.14-6.06.14s-6-.06-6-.14,2.71-.13,6-.13S391.52,255.15,391.52,255.22Z" style="fill:#fff"></path><path d="M388.07,261.49s-.44-.23-1.18-.53a8.2,8.2,0,0,0-3-.6,8.52,8.52,0,0,0-3,.57c-.74.29-1.16.57-1.18.53s.08-.1.27-.23a4.56,4.56,0,0,1,.84-.47,7.33,7.33,0,0,1,3.11-.66,7.47,7.47,0,0,1,3.11.68,6.42,6.42,0,0,1,.83.48C388,261.4,388.09,261.48,388.07,261.49Z" style="fill:#fff"></path><path d="M398.48,284.94c0,.08-4.89.14-10.91.14s-10.91-.06-10.91-.14,4.88-.13,10.91-.13S398.48,284.87,398.48,284.94Z" style="fill:#fff"></path><path d="M431.45,240.62a5.21,5.21,0,0,1,.06,1.38,16,16,0,0,1-1.67,6.42,5.08,5.08,0,0,1-.72,1.18,12.79,12.79,0,0,1,.55-1.26,20.31,20.31,0,0,0,1.08-3.11,21.63,21.63,0,0,0,.57-3.24A12.63,12.63,0,0,1,431.45,240.62Z" style="fill:#fff"></path><path d="M338.09,254.48s-.15-.1-.39-.33a9.67,9.67,0,0,1-.94-1,12.46,12.46,0,0,1-1.17-1.72,14.11,14.11,0,0,1-1.06-2.31,14.9,14.9,0,0,1-.61-2.48,13.42,13.42,0,0,1-.15-2.07,10.71,10.71,0,0,1,.1-1.39,1.76,1.76,0,0,1,.11-.51s-.05.73,0,1.9a15.34,15.34,0,0,0,.2,2,16.92,16.92,0,0,0,.62,2.42,16.74,16.74,0,0,0,1,2.28,13.58,13.58,0,0,0,1.11,1.72C337.61,253.94,338.13,254.45,338.09,254.48Z" style="fill:#fff"></path><path d="M366.77,46.18c-.29,1.4-.22,2.78-.51,6a50.93,50.93,0,0,0-.34,6.53,7.14,7.14,0,0,0,2.25,5.17,4.36,4.36,0,0,0,5.35.33V59.68" style="fill:#ffbf9d"></path><path d="M373.52,59.68a5.85,5.85,0,0,1,.1,1.2c0,.78.06,1.9.09,3.29v.08l-.08.06a4.28,4.28,0,0,1-4.41.46,6.05,6.05,0,0,1-3.3-4.29,11.38,11.38,0,0,1-.28-2.92c0-.94.07-1.84.14-2.7.16-1.67.31-3.19.44-4.52s.18-2.34.29-3.06a3.31,3.31,0,0,1,.26-1.1,7.71,7.71,0,0,1-.06,1.12c0,.84-.08,1.86-.13,3.06s-.21,2.84-.32,4.54c-.05.85-.1,1.74-.11,2.66a11.56,11.56,0,0,0,.27,2.8,5.65,5.65,0,0,0,3,4,4,4,0,0,0,4-.3l-.07.15c0-1.39.05-2.51.08-3.29A4.69,4.69,0,0,1,373.52,59.68Z" style="fill:#ff9a6c"></path><path d="M381.32,43.86c-1.55.17-6,3.1-6.62,4.52a13,13,0,0,0-.85,4.59q-.24,4.19-.3,8.38c0,2.12,0,4.4,1.28,6.12A5.29,5.29,0,0,0,381.32,69" style="fill:#ffbf9d"></path><path d="M381.32,69s-.1.09-.3.2a4.74,4.74,0,0,1-1,.34,5.49,5.49,0,0,1-3.72-.54,5,5,0,0,1-1.93-1.81,7.49,7.49,0,0,1-1-2.88,45.43,45.43,0,0,1,0-6.81c.12-2.41.09-4.69.38-6.79a7,7,0,0,1,1-2.88,9.79,9.79,0,0,1,1.95-1.76A17.46,17.46,0,0,1,380,44.2a2.82,2.82,0,0,1,1.34-.34,10.45,10.45,0,0,0-1.25.53,20,20,0,0,0-3.11,2,10.22,10.22,0,0,0-1.83,1.73,6.76,6.76,0,0,0-.84,2.69c-.26,2-.22,4.35-.34,6.74a48.94,48.94,0,0,0,0,6.73,6.8,6.8,0,0,0,.85,2.71,4.77,4.77,0,0,0,1.74,1.72,5.51,5.51,0,0,0,3.5.66C380.86,69.22,381.3,69,381.32,69Z" style="fill:#ff9a6c"></path><path d="M391.92,46c-4.22.08-7.75,3.57-9.28,7.5S381.12,61.78,381,66c0,2.19,0,4.68,1.59,6.17a5.24,5.24,0,0,0,4.48,1.07A6.83,6.83,0,0,0,392,70" style="fill:#ffbf9d"></path><path d="M392,70a2,2,0,0,1-.18.4,5.43,5.43,0,0,1-.75,1,7.36,7.36,0,0,1-4.1,2.07,6,6,0,0,1-3.22-.28,4.41,4.41,0,0,1-2.52-2.71,11.86,11.86,0,0,1-.49-4c0-1.4,0-2.84.1-4.32a26.84,26.84,0,0,1,1.38-8.25,13.29,13.29,0,0,1,3.87-5.63,9.38,9.38,0,0,1,4.11-2.07,6.25,6.25,0,0,1,1.24-.14,1.15,1.15,0,0,1,.44,0c0,.06-.6.05-1.64.31a10,10,0,0,0-3.91,2.16A13.31,13.31,0,0,0,382.71,54a27.16,27.16,0,0,0-1.31,8.1c-.06,1.47-.08,2.92-.11,4.3a11.41,11.41,0,0,0,.43,3.89A4,4,0,0,0,384,72.76a5.74,5.74,0,0,0,3,.32,7.47,7.47,0,0,0,4-1.86A13.07,13.07,0,0,0,392,70Z" style="fill:#ff9a6c"></path><path d="M400.48,50.41c-3,1.18-6.29,2.63-7.57,5.59a15.79,15.79,0,0,0-.83,4.7c-.18,1.73-.51,3.44-.58,5.17a9.72,9.72,0,0,0,1,5,5.17,5.17,0,0,0,4.13,2.77,3.56,3.56,0,0,0,3.67-3c.07-.79-.18-1.58-.17-2.37,0-2.6,2.68-4.73,2.38-7.31a5.11,5.11,0,0,0,5.7-.73" style="fill:#ffbf9d"></path><path d="M408.18,60.31a1.7,1.7,0,0,1-.29.3,5,5,0,0,1-5.49.58l.24-.16a6.46,6.46,0,0,1-1.07,3.8c-.66,1.26-1.48,2.67-1.18,4.29a4.31,4.31,0,0,1-.17,2.66,3.87,3.87,0,0,1-2.11,1.9,4,4,0,0,1-2.95,0,5.64,5.64,0,0,1-2.41-1.84,8.52,8.52,0,0,1-1.52-5,33.27,33.27,0,0,1,.46-4.84c.23-1.52.26-3,.53-4.36a7.09,7.09,0,0,1,1.7-3.47,13.12,13.12,0,0,1,4.65-3c.61-.25,1.08-.42,1.41-.54a1.75,1.75,0,0,1,.5-.14s-.65.31-1.82.87a13.51,13.51,0,0,0-4.46,3.06,6.67,6.67,0,0,0-1.55,3.31c-.25,1.32-.26,2.8-.48,4.34a31.92,31.92,0,0,0-.43,4.77,8.06,8.06,0,0,0,1.43,4.73,4.25,4.25,0,0,0,4.76,1.72,3.37,3.37,0,0,0,1.85-1.64,3.87,3.87,0,0,0,.14-2.39,4.84,4.84,0,0,1,.28-2.49,15.64,15.64,0,0,1,1-2,6.3,6.3,0,0,0,1.11-3.58l0-.31.28.15a5.12,5.12,0,0,0,4.24.19A8.72,8.72,0,0,0,408.18,60.31Z" style="fill:#ff9a6c"></path><path d="M392.86,71.53c0,.09-.88.31-2.24.91A10.87,10.87,0,0,0,386.21,76a19.09,19.09,0,0,0-2.44,5.23,15.6,15.6,0,0,1-.78,2.31,9.59,9.59,0,0,1,.42-2.41,16.48,16.48,0,0,1,2.38-5.43,10.23,10.23,0,0,1,4.69-3.61,10.69,10.69,0,0,1,1.73-.5C392.62,71.52,392.86,71.49,392.86,71.53Z" style="fill:#ff9a6c"></path><path d="M387.42,92.68a4.73,4.73,0,0,1-1-.39c-.63-.28-1.52-.73-2.6-1.33a57,57,0,0,1-8-5.33,58.41,58.41,0,0,1-7-6.58c-.82-.92-1.46-1.69-1.87-2.23a4.33,4.33,0,0,1-.61-.88c.06-.06,1.05,1.09,2.75,2.86a74.28,74.28,0,0,0,7.07,6.42A75.29,75.29,0,0,0,384,90.65C386.12,91.9,387.46,92.61,387.42,92.68Z" style="fill:#fff"></path><path d="M396.49,71.54c0,.06-.31,0-.71-.15a3.23,3.23,0,0,1-1.3-1.15,3.34,3.34,0,0,1-.56-1.63c0-.45.08-.72.14-.71s.17,1,.86,2S396.54,71.39,396.49,71.54Z" style="fill:#fff"></path><path d="M384.93,71c0,.14-1.16-.19-1.82-1.37a2.27,2.27,0,0,1-.24-2.27c.15,0,.11,1,.69,2S385,70.83,384.93,71Z" style="fill:#fff"></path><path d="M377.19,68.08c0,.06-.22.09-.52,0a2,2,0,0,1-1.21-2c0-.31.14-.48.21-.47s.11.71.53,1.37S377.22,67.94,377.19,68.08Z" style="fill:#fff"></path><path d="M368.28,62.41c0,.06-.25.07-.58-.1a2.25,2.25,0,0,1-1.06-2.44c.1-.35.27-.52.33-.49s-.11.83.28,1.68S368.33,62.27,368.28,62.41Z" style="fill:#fff"></path><path d="M325.09,257.62c0,.13-4.85,1.8-10.93,3.71s-11,3.35-11.07,3.21,4.84-1.8,10.92-3.71S325,257.48,325.09,257.62Z" style="fill:#263238"></path><path d="M325,263.51a45.77,45.77,0,0,1-5.2,4.54,46.09,46.09,0,0,1-5.52,4.14A90.76,90.76,0,0,1,325,263.51Z" style="fill:#263238"></path><path d="M331.75,270.26a51.06,51.06,0,0,1-3.79,6.17,51,51,0,0,1-4.23,5.87,100.47,100.47,0,0,1,8-12Z" style="fill:#263238"></path><path d="M447.94,162.51a61.51,61.51,0,0,1-6.11,4.93,57.4,57.4,0,0,1-6.42,4.51,60.11,60.11,0,0,1,6.11-4.93A57.4,57.4,0,0,1,447.94,162.51Z" style="fill:#263238"></path><path d="M452.42,177.08a124.65,124.65,0,0,1-15.68,2.52,59.39,59.39,0,0,1,7.8-1.52A60,60,0,0,1,452.42,177.08Z" style="fill:#263238"></path><path d="M450.07,191.63a19.39,19.39,0,0,1-5.94-1.34,19.05,19.05,0,0,1-5.48-2.67c.07-.14,2.5,1.08,5.65,2.18S450.1,191.47,450.07,191.63Z" style="fill:#263238"></path></g></svg>
