<svg xmlns="http://www.w3.org/2000/svg" viewBox="0 0 500 500"><g id="freepik--Table--inject-4"><path d="M465.85,479c0,.15-96.65.26-215.84.26S34.15,479.13,34.15,479s96.63-.26,215.86-.26S465.85,478.84,465.85,479Z" style="fill:#263238"></path></g><g id="freepik--Character--inject-4"><path d="M179.44,401.6a50.68,50.68,0,0,1,8.91,8.91c2.7,3.73,10.85,12.72,9.82,14.79s-5,3-8.13.47-10.23-7.89-10.23-7.89l-11.15,23.41-2.18-1.81-8.35-19.56-5.9-9.4L169,393.66C167.28,392.87,174.38,399.6,179.44,401.6Z" style="fill:#b56760"></path><path d="M328.9,437.27l-14-50.43-131.27,8.31s-19,38.78-19,42.28c0,2.43,4.47,18.37,9.14,41.55h76.71l-.61-12.42,4.29.93s.84,4.26,2.32,11.49l76.41-.58Z" style="fill:#263238"></path><path d="M320,392.4s-.22-14.13-.22-34.28,1.38-78,1.38-78l15.73-77.45-31.08-16.62-93.24-7.77L196.82,184S165,196.35,161.25,205.19,179,286.52,179,286.52s-2,44.64-2.93,56.28a218,218,0,0,0,.73,44l-2.75,10.72s39.3,21.11,85.86,20c44.77-1,61.33-16.05,61.33-16.05Z" style="fill:#455a64"></path><path d="M122.09,318.43c-.37-1.07-1-18.86,3.54-30.17s35.62-83.07,35.62-83.07l30,55.87L179,286.52l-12.55,29.71-1.88,63.86,6.1,15.76L148.6,414.07,139.53,388s-5.61-1.77-8.23-10.61S122.09,318.43,122.09,318.43Z" style="fill:#455a64"></path><path d="M206.13,326.05a12.08,12.08,0,0,1-.4,1.71c-.29,1.1-.77,2.66-1.43,4.57a84.57,84.57,0,0,1-15.67,27.23c-1.32,1.53-2.43,2.74-3.23,3.53a10,10,0,0,1-1.28,1.2,13.14,13.14,0,0,1,1.13-1.34c.76-.83,1.82-2.07,3.1-3.62A94.11,94.11,0,0,0,204,332.2c.7-1.88,1.23-3.42,1.57-4.5A10.21,10.21,0,0,1,206.13,326.05Z" style="fill:#263238"></path><path d="M285.94,326.07c0,.14-16.59.26-37.06.26s-37.08-.12-37.08-.26,16.6-.26,37.08-.26S285.94,325.93,285.94,326.07Z" style="fill:#263238"></path><path d="M312.15,359.77a6.7,6.7,0,0,1-1.07-.84,36.55,36.55,0,0,1-2.69-2.56,48.36,48.36,0,0,1-3.58-4.19,49,49,0,0,1-6.63-11.74,48.26,48.26,0,0,1-1.74-5.23,37.09,37.09,0,0,1-.81-3.63,7.86,7.86,0,0,1-.17-1.35,6,6,0,0,1,.37,1.31c.19.85.52,2.07,1,3.57s1.06,3.24,1.83,5.15a59.91,59.91,0,0,0,2.93,6,59.3,59.3,0,0,0,3.64,5.61c1.24,1.65,2.42,3.08,3.47,4.23s1.93,2.06,2.56,2.66A7.47,7.47,0,0,1,312.15,359.77Z" style="fill:#263238"></path><path d="M297.48,392.4c-.05-.09,1.3-1,3.18-2.74a30.23,30.23,0,0,0,3-3.37,32.41,32.41,0,0,0,2.92-4.71,32.09,32.09,0,0,0,2-5.17,30,30,0,0,0,.85-4.45c.27-2.57.14-4.18.25-4.18a5.22,5.22,0,0,1,.14,1.12,10.77,10.77,0,0,1,0,1.33,16.1,16.1,0,0,1-.07,1.77,25.63,25.63,0,0,1-.75,4.53,27.63,27.63,0,0,1-5,10.05,26,26,0,0,1-3.15,3.35c-.47.45-1,.8-1.36,1.12a9.45,9.45,0,0,1-1.09.77A4.81,4.81,0,0,1,297.48,392.4Z" style="fill:#263238"></path><path d="M320,392.4l-.32.22-1,.6-1.55,1c-.61.39-1.33.82-2.17,1.25a81,81,0,0,1-14.62,6.32c-1.59.58-3.31,1-5.07,1.5s-3.65.88-5.58,1.33a119.38,119.38,0,0,1-12.51,1.85,133.29,133.29,0,0,1-13.95.62c-4.85,0-9.87-.24-15-.73A223.61,223.61,0,0,1,197,395c-6.36-2.2-11.41-4.25-14.86-5.75-1.73-.73-3.06-1.35-4-1.77l-1-.48-.34-.18a1.46,1.46,0,0,1,.36.13l1,.43c.91.39,2.25,1,4,1.69,3.47,1.43,8.53,3.43,14.9,5.58a229.5,229.5,0,0,0,51.2,11.15c5.1.49,10.1.73,14.93.74a135.5,135.5,0,0,0,13.91-.59,124.77,124.77,0,0,0,12.46-1.79c1.93-.44,3.8-.82,5.57-1.3s3.47-.9,5.05-1.46a84.51,84.51,0,0,0,14.65-6.15c.84-.41,1.56-.83,2.18-1.21l1.58-.92,1-.57A1.56,1.56,0,0,1,320,392.4Z" style="fill:#263238"></path><path d="M353.59,224.58c-3.1-12.81-16.72-21.87-16.72-21.87l-17.78,79,15.51,39-6.19,62.45-3.55,7.77,21.59,15.8,19.38-26.65s13.4-46.56,13.4-60.83S356.69,237.4,353.59,224.58Z" style="fill:#455a64"></path><path d="M200.09,182.8s-3.51.51-3.27-7.85,4.31-16.74,4.31-16.74l16.52-8.14s51-6.33,69.2,7,22.73,13.46,20.84,21.24l-1.9,7.77-47.67,19.1Z" style="fill:#455a64"></path><path d="M293.73,170.24a.92.92,0,0,1-.07.22c-.08.17-.16.38-.27.64s-.36.58-.61,1a13.41,13.41,0,0,1-1,1.17,38.4,38.4,0,0,1-7.89,5.89c-7.18,4.32-17.77,9.24-30,14l-.11.05-.11-.07L248,189.49l-31.82-20.11-9.61-6.14-2.6-1.69c-.27-.19-.49-.34-.67-.45l-.22-.17s.09,0,.25.12l.7.41,2.65,1.61,9.69,6,31.9,20,5.65,3.56-.23,0c12.25-4.7,22.86-9.56,30-13.78a40.43,40.43,0,0,0,7.94-5.72c.42-.39.72-.8,1-1.13s.47-.66.64-.91l.31-.61C293.68,170.3,293.72,170.23,293.73,170.24Z" style="fill:#263238"></path><path d="M291.45,143.47c-.16-9.27-2-28.34-3.93-45.58A35.77,35.77,0,0,0,250.91,66l-1.85,0c-19.93,1.75-29.59,19.66-27.29,39.54l.76,66.81,31.18,19.85,19.16-8.07-.22-18S291.77,162.67,291.45,143.47Z" style="fill:#b56760"></path><path d="M272.68,166.2s-12.11,1.34-25.23-6.39c0,0,6.31,13.65,25.42,11.36Z" style="fill:#8a4a43"></path><path d="M280.85,116.45a2.75,2.75,0,0,1-2.56,2.84,2.63,2.63,0,0,1-2.9-2.39,2.75,2.75,0,0,1,2.56-2.85A2.63,2.63,0,0,1,280.85,116.45Z" style="fill:#263238"></path><path d="M283.93,106.38c-.33.37-2.45-1.11-5.4-1s-5.07,1.63-5.4,1.28c-.16-.15.16-.81,1.09-1.52a7.53,7.53,0,0,1,4.3-1.47,7.25,7.25,0,0,1,4.32,1.26C283.76,105.58,284.09,106.21,283.93,106.38Z" style="fill:#263238"></path><path d="M253.7,116.45a2.74,2.74,0,0,1-2.56,2.84,2.63,2.63,0,0,1-2.9-2.39,2.76,2.76,0,0,1,2.56-2.85A2.63,2.63,0,0,1,253.7,116.45Z" style="fill:#263238"></path><path d="M254.51,106.4c-.29.4-2.56-.83-5.48-.42s-4.86,2.17-5.23,1.85c-.18-.13.07-.82.92-1.63a7.49,7.49,0,0,1,4.12-1.92,7.17,7.17,0,0,1,4.43.78C254.26,105.62,254.65,106.22,254.51,106.4Z" style="fill:#263238"></path><path d="M266,130.35c0-.17,1.81-.54,4.77-1,.75-.1,1.46-.27,1.57-.79a3.87,3.87,0,0,0-.57-2.22q-1.14-2.7-2.39-5.67c-3.33-8.08-5.77-14.72-5.44-14.86s3.29,6.31,6.62,14.39l2.3,5.71a4.35,4.35,0,0,1,.48,2.94,1.89,1.89,0,0,1-1.21,1.14,5,5,0,0,1-1.27.21C267.9,130.45,266.05,130.52,266,130.35Z" style="fill:#263238"></path><path d="M254.54,93.66c-.26.81-3.22.52-6.67,1s-6.22,1.54-6.7.83c-.21-.33.25-1.1,1.36-1.91a11.15,11.15,0,0,1,4.93-1.89,11.29,11.29,0,0,1,5.26.46C254,92.67,254.66,93.28,254.54,93.66Z" style="fill:#263238"></path><path d="M283.11,95c-.5.69-2.55,0-5,.09s-4.5.58-5-.1c-.22-.34.09-1,1-1.68a7.22,7.22,0,0,1,8.06,0C283,94,283.33,94.65,283.11,95Z" style="fill:#263238"></path><path d="M223.75,119.79c-.33-.14-13.3-3.52-12.5,9.59s13.8,9.6,13.8,9.22S223.75,119.79,223.75,119.79Z" style="fill:#b56760"></path><path d="M220.74,133.88c-.06,0-.22.17-.6.38a2.27,2.27,0,0,1-1.7.13c-1.42-.42-2.72-2.55-2.93-4.91a7.68,7.68,0,0,1,.44-3.3,2.64,2.64,0,0,1,1.61-1.86,1.15,1.15,0,0,1,1.39.54c.2.36.13.62.2.64s.27-.24.13-.77a1.44,1.44,0,0,0-.56-.79,1.75,1.75,0,0,0-1.29-.26,3.22,3.22,0,0,0-2.26,2.18,7.73,7.73,0,0,0-.57,3.7c.25,2.64,1.75,5,3.68,5.46a2.45,2.45,0,0,0,2.07-.47C220.73,134.2,220.78,133.9,220.74,133.88Z" style="fill:#8a4a43"></path><path d="M289,75.43c-.65-2.52-2.6-4.9-5.19-5.21.13-.4-2.69-1.75-4.89-3.29s-2.66-5.19-4.65-3.39c.05-4-5-7.09-8.52-5.24.07-2.33-3.34-3.1-5.59-3.69s-3.11-.92-4.18,1.14c-2.88-4.63-10.58-5-13.93-.73a11.4,11.4,0,0,0-13.66,6.52,10.84,10.84,0,0,0-9.32,7.71c-2.74.31-3.39,2.47-4.5,5s-2.63,5.34-1,7.56c-3.27,1.7-3.81,7-.94,9.29a5.69,5.69,0,0,0-1.87,1.61,6.13,6.13,0,0,0-1.53,8.58,6.09,6.09,0,0,0,4.09,10.83c-2.11,3.07.63,7.19,2.23,8.08,0,0,5.36-2.29,6.27,1.67h0a2.44,2.44,0,0,0,3.31,2.47c1.57-.71,2.42-2.37,3.29-3.85a18.63,18.63,0,0,0,2.6-5.27c.42-1.92-.18-4.25-2-5.1,2.25-.82,3.64-3.17,4-5.53a20.11,20.11,0,0,0-.61-7.1L230.3,87.14a13.12,13.12,0,0,0,11.11-7.77,7.51,7.51,0,0,0,10.82-3,9.79,9.79,0,0,0,12.07,5.7c-.44,2.73,4.51,5.12,7.2,5.76s6-1.35,6-1.35,4.68,2.59,7.16,1.51,5.68-4.31,4-6.86A12.19,12.19,0,0,0,289,75.43Z" style="fill:#263238"></path><path d="M264,58a5.12,5.12,0,0,0-1.5-.81,2.79,2.79,0,0,0-1.92.16,2.83,2.83,0,0,0-1.54,2l-.15.75-.42-.66a4.8,4.8,0,0,0-4.1-2.16,4.66,4.66,0,0,0-4.24,3.42l-.23.88-.57-.7a5.85,5.85,0,0,0-4.6-2.06,5.59,5.59,0,0,0-4.58,2.74,5.68,5.68,0,0,0-.77,2.15l-.07.53-.52-.11a5.62,5.62,0,0,0-6.18,3.1,5.75,5.75,0,0,0,1.1,6.11l.52.53-.71.14a6.19,6.19,0,0,0-3.87,2.63,6.07,6.07,0,0,0-1,3.51,9.76,9.76,0,0,0,.78,3.16s-.24-.2-.52-.71a6,6,0,0,1-.71-2.43,6.38,6.38,0,0,1,.91-3.88,6.81,6.81,0,0,1,4.24-3.06l-.2.68A6.36,6.36,0,0,1,239,63.09l-.59.42a6.64,6.64,0,0,1,6.3-5.73,6.72,6.72,0,0,1,5.33,2.44l-.79.17A5.34,5.34,0,0,1,259,59l-.57.09a3.31,3.31,0,0,1,2-2.25,3.07,3.07,0,0,1,2.21,0,2.86,2.86,0,0,1,1.14.74C264,57.81,264,58,264,58Z" style="fill:#455a64"></path><path d="M290.91,133a4.13,4.13,0,0,0-6.07,2,5.11,5.11,0,0,0-9.07,1.57c-.86-2.79-5.25-3.54-7-1.19a3.3,3.3,0,0,0-3.56-1.43,3.24,3.24,0,0,0-5.29-2.87,5.28,5.28,0,0,0-7.81-1.3,2.93,2.93,0,0,0-5.65.21,4.76,4.76,0,0,0-5.48-1.43,3.17,3.17,0,0,0-3.94-2.9c.45-1.62-1.93-2.35-3.14-3.52-.55-.52-.9-1.23-1.48-1.7s-1.61-.57-2,.08a2.71,2.71,0,0,0-5.1-1.77,8.45,8.45,0,0,0-.45,2.31c-.36,2.52-1.77,5.51.05,7.28.33.31.74.57.88,1,.23.73-.48,1.43-.53,2.19s.75,1.57,1.12,2.38c.53,1.2,0,2.59,0,3.9s.65,3,2,2.86a4.6,4.6,0,0,0,1.45,5.72,4.5,4.5,0,0,0,2.64,5.92,2.32,2.32,0,0,0-.17,3.05,6.78,6.78,0,0,0,2.69,1.94,1.92,1.92,0,0,0-.46,2.7,4.39,4.39,0,0,0,2.57,1.57,2,2,0,0,1,1.15.6c.47.69-.16,1.61,0,2.43.2,1.25,2,1.61,2.49,2.76s-.14,2.47.68,3.24c.54.5,1.38.41,2.07.65,1.23.43,1.78,1.82,2.56,2.86,1.48,2,4,2.83,6.36,3.43,1.22.31,2.44.57,3.67.8,2.46.46,4.94.76,7.42,1.05,1.23.15,2.74.17,3.39-.88a4.28,4.28,0,0,0,6.81-.81c2.22.59,4.53-.34,6.63-1.26l2.18-.95c2.17-.94,4.58-2.16,5.22-4.43a4.77,4.77,0,0,0,3.42-6.53c1,.28,1.94-.72,2.1-1.73a9.05,9.05,0,0,0-.39-3c-.75-4.11,1.43-8.3.87-12.44-.4-2.9-2.13-5.77-1.3-8.58a5.08,5.08,0,0,0,.41-1.74c0-.6-.6-1.23-1.17-1a2.68,2.68,0,0,0-2.71-3.55" style="fill:#263238"></path><path d="M256.28,133.31c.48-.05.58,3.15,3.38,5.35s6.21,1.74,6.25,2.19c0,.2-.75.64-2.19.72a8,8,0,0,1-5.2-1.64,6.94,6.94,0,0,1-2.63-4.5C255.73,134.1,256.06,133.29,256.28,133.31Z" style="fill:#fff"></path><path d="M238.68,155.2a29.5,29.5,0,0,1-1.23-6.78,28.19,28.19,0,0,1,1-6.84,5.64,5.64,0,0,0-.81,1.9,16.27,16.27,0,0,0,.21,9.86A5.84,5.84,0,0,0,238.68,155.2Z" style="fill:#455a64"></path><path d="M235.67,150.57c.07-.06-.4-.51-.73-1.45a9.39,9.39,0,0,1-.32-3.88c.23-3.1,1.09-5.51.94-5.56a13.08,13.08,0,0,0-1.46,5.52,8.21,8.21,0,0,0,.5,4.05C235.05,150.24,235.64,150.62,235.67,150.57Z" style="fill:#455a64"></path><path d="M232.44,147.91a19.54,19.54,0,0,1-1.38-5.71,19.22,19.22,0,0,1,.9-5.82,4.33,4.33,0,0,0-.81,1.59,11.65,11.65,0,0,0,.36,8.43A4.24,4.24,0,0,0,232.44,147.91Z" style="fill:#455a64"></path><path d="M285.86,167.53a3.39,3.39,0,0,0,1.83-1.17,10.5,10.5,0,0,0,2.29-4.69,16,16,0,0,0,.43-5.2,5.53,5.53,0,0,0-.42-2.11,26.22,26.22,0,0,1-.51,7.19,11.52,11.52,0,0,1-2.07,4.57A13.34,13.34,0,0,1,285.86,167.53Z" style="fill:#455a64"></path><path d="M283.06,166.83a4,4,0,0,0,1.48-1,10.3,10.3,0,0,0,3.12-7.93,4,4,0,0,0-.38-1.77,15.6,15.6,0,0,0,0,1.78,11.73,11.73,0,0,1-3,7.67C283.55,166.34,283,166.76,283.06,166.83Z" style="fill:#455a64"></path><path d="M288,86.35A25.1,25.1,0,0,0,275,77c-15.87-4.71-38.16-6.5-61.69,16.69l-3.43,1.55s-.7-7.9.5-13.75c.8-3.9,7.93-26.67,33.35-29C243.72,52.39,282.59,46.06,288,86.35Z" style="fill:#455a64"></path><g style="opacity:0.30000000000000004"><path d="M288,86.35A25.1,25.1,0,0,0,275,77c-15.87-4.71-38.16-6.5-61.69,16.69l-3.43,1.55s-.7-7.9.5-13.75c.8-3.9,7.93-26.67,33.35-29C243.72,52.39,282.59,46.06,288,86.35Z"></path></g><path d="M213.3,93.64C223,83.06,235.39,77,248.45,72.13s33.68-8,47.59-8.84c4.18-.23,8.5-.3,12.39,1.23s7.3,5,7.48,9.21C316.14,79,305.73,84.81,301,87s-14.5,6-14.5,6-2.61-11.89-12-15.26C255,70.69,212.59,94,213.3,93.64Z" style="fill:#455a64"></path><path d="M289.13,78.65A7.48,7.48,0,0,0,281.08,74a2.84,2.84,0,0,0-.07-3.41,5.25,5.25,0,0,0-3.11-1.8,9.49,9.49,0,0,0-10.53,5.48,9.09,9.09,0,0,0-8.52-2.32c-3.66.72-5.84,3.85-5.84,6.08,0,2.51,1.28,4,3.43,5.23s5.53.37,7.73-.84a7.95,7.95,0,0,0,12.58,3.35,7.24,7.24,0,0,0,12.38-7.09Z" style="fill:#263238"></path><path d="M299.49,188.62l-.22.11-.66.28L296,190.06l-9.56,3.77-32,12.41-.08,0-.07,0c-1.19-.31-2.47-.58-3.73-1a114.58,114.58,0,0,1-18.79-7.77c-5.58-2.82-10.5-5.54-14.66-7.77s-7.53-4-9.91-5.16c-1.17-.6-2.11-1-2.73-1.32l-.71-.35a1,1,0,0,1-.24-.14.84.84,0,0,1,.26.09l.73.3c.64.28,1.59.66,2.78,1.24,2.41,1.09,5.82,2.82,10,5s9.12,4.87,14.7,7.66a117.65,117.65,0,0,0,18.71,7.7c1.25.38,2.52.65,3.7,1h-.15l32.05-12.27,9.61-3.61,2.61-1,.68-.24Z" style="fill:#263238"></path><path d="M178.48,295.79a3.1,3.1,0,0,1,0-.7c0-.51.06-1.18.11-2s0-1.93,0-3.17-.05-2.64-.14-4.2c-.15-3.11-.56-6.8-1.06-10.89s-1.22-8.57-2-13.25c-1.62-9.38-3.31-17.84-4.35-24-.52-3.08-.89-5.58-1.1-7.31-.08-.83-.14-1.49-.19-2a3.19,3.19,0,0,1,0-.71,3.7,3.7,0,0,1,.13.69c.08.51.17,1.17.29,2,.28,1.72.69,4.21,1.26,7.28,1.14,6.13,2.88,14.58,4.51,24,.82,4.69,1.47,9.19,2,13.28s.84,7.81.95,10.94c.06,1.56.11,3,.06,4.21s0,2.32-.12,3.19-.15,1.49-.2,2A3.53,3.53,0,0,1,178.48,295.79Z" style="fill:#263238"></path><path d="M327.12,222s0,.09,0,.25,0,.43-.07.72l-.33,2.79c-.29,2.45-.71,5.93-1.22,10.22-1,8.63-2.26,20.58-3.3,33.8s-1.65,25.22-2,33.9c-.16,4.31-.29,7.82-.38,10.29-.05,1.18-.09,2.12-.12,2.8l0,.73a.75.75,0,0,1,0,.24,1.15,1.15,0,0,1,0-.25c0-.19,0-.43,0-.72,0-.69,0-1.62,0-2.8,0-2.44.09-5.95.22-10.3.26-8.69.82-20.7,1.85-33.93s2.36-25.18,3.45-33.81c.55-4.31,1-7.8,1.39-10.2.18-1.17.32-2.1.42-2.77.05-.29.09-.53.13-.72A.81.81,0,0,1,327.12,222Z" style="fill:#263238"></path><g style="opacity:0.30000000000000004"><path d="M190.47,304.46c7.71,5.11,15.46,10.23,23.82,14.17s17.44,6.68,26.69,6.73c10.86.06,21.66-5.36,30.1-12.2s13-10.58,20.37-21.15c4.78-6.86,9.3-15.53,9.47-23.89.15-7.17-1.94-14.17-4-21,0,0-.37-5.21-1.45-16.73s-.28-34-.28-34l-9.24,27.3-12.76,57.14-30.81,28-33.73-1.44Z"></path></g><path d="M178.8,284.28s9.52,6.15,16.43,3.24S260,237.69,260.7,236.23s12.73-16,17.46-24.73a70.31,70.31,0,0,0,6.46-16.86l11.23-4.49L292,226.05v15.64s12.35,33.1-10.56,53.1-33.83,29.83-51.29,26.55-51.71-21.67-51.71-21.67Z" style="fill:#18A0FB"></path><path d="M293.73,269.86s-.12-.51-.47-1.44a28.16,28.16,0,0,0-1.81-3.92,71.48,71.48,0,0,0-9.25-12.93,42.77,42.77,0,0,0-8.12-7.32,13.33,13.33,0,0,0-2.64-1.33,4,4,0,0,0-2.9,0,34.44,34.44,0,0,0-5.58,3.22c-7.33,5-14.92,11.25-22.77,17.87s-15.14,13.19-21.53,19.39a117.33,117.33,0,0,0-8.68,9.16c-1.19,1.54-2.53,3.06-2.39,4.9a12.39,12.39,0,0,0,1.46,4.95,44.21,44.21,0,0,0,5,7.52c1.68,2.08,3.22,3.79,4.5,5.17s2.31,2.42,3,3.12c.33.34.59.61.79.8s.27.28.26.29l-.29-.25-.84-.76c-.72-.68-1.77-1.7-3.08-3.06s-2.87-3.06-4.57-5.13a43.16,43.16,0,0,1-5.13-7.54,12.84,12.84,0,0,1-1.54-5.1,5.44,5.44,0,0,1,.16-1.44,2.61,2.61,0,0,1,.25-.69,4,4,0,0,1,.33-.65,20.19,20.19,0,0,1,1.72-2.4,118.21,118.21,0,0,1,8.69-9.23c6.38-6.23,13.68-12.78,21.52-19.45s15.47-12.83,22.84-17.87a34.83,34.83,0,0,1,5.69-3.25,4.46,4.46,0,0,1,3.2.06,13.22,13.22,0,0,1,2.73,1.39,43,43,0,0,1,8.17,7.44,69.08,69.08,0,0,1,9.15,13.07,26.51,26.51,0,0,1,1.73,4A7.4,7.4,0,0,1,293.73,269.86Z" style="fill:#263238"></path><path d="M290.79,241.62a6.75,6.75,0,0,1-1.06-.79c-.67-.52-1.63-1.28-2.86-2.17a31.81,31.81,0,0,0-10.49-5.2,18.93,18.93,0,0,0-11.52.6,19.67,19.67,0,0,0-4.19,2.45s.06-.1.22-.26a8.05,8.05,0,0,1,.73-.66,12.62,12.62,0,0,1,3.1-1.87,18.54,18.54,0,0,1,11.79-.76,29.86,29.86,0,0,1,10.58,5.41c1.21.92,2.14,1.73,2.77,2.31A5,5,0,0,1,290.79,241.62Z" style="fill:#263238"></path><path d="M197.5,307.39s-.2-.19-.5-.6a13,13,0,0,1-1.11-1.82,19.76,19.76,0,0,1-1.57-13.76,13.66,13.66,0,0,1,.67-2,2.73,2.73,0,0,1,.35-.7c.09,0-.3,1.07-.66,2.81a21.84,21.84,0,0,0,1.54,13.52C197,306.42,197.58,307.34,197.5,307.39Z" style="fill:#263238"></path><path d="M271.08,248.86c.09.11-12.69,11.27-28.54,24.92s-28.78,24.63-28.88,24.52S226.34,287,242.2,273.38,271,248.75,271.08,248.86Z" style="fill:#263238"></path><polygon points="236.06 289.6 242.37 296.44 265.04 277.1 258.45 270.04 236.06 289.6" style="fill:#fff"></polygon><path d="M242.37,296.47h0L236,289.6l0,0L258.45,270v0l6.62,7.08,0,0Zm-6.27-6.87,6.27,6.8L265,277.1l-6.57-7Z" style="fill:#263238"></path><g style="opacity:0.30000000000000004"><path d="M254.39,206c17.92-.77,36.28-7.21,49.57-19.25-7.06,2.84-13.59,5.61-20.47,8.25-9.68,3.72-19.42,7.33-29.1,11"></path></g><g style="opacity:0.30000000000000004"><path d="M196.71,384.07c32.93,11.87,70.46,18.12,103.45,6.38-9.6,7.8-22.72,11.5-35.09,11.72-23.92.42-48.13-5.33-68.36-18.1"></path></g><path d="M317.76,396.06c-.6.17-6.22,5.18-8.91,8.91S298,417.69,299,419.76s5,3,8.13.47,10.23-7.88,10.23-7.88l11.15,23.4,2.18-1.8,8.35-19.57,5.61-8.94-17.83-13C326.71,392.35,321.45,395,317.76,396.06Z" style="fill:#b56760"></path><g style="opacity:0.30000000000000004"><path d="M322.5,284.71c6.62-6.57,9.83-16.07,10-25.4s-2.95-19.58-6.62-28.15c-3.07,19.05-4,38.88-5.23,57.66"></path></g></g></svg>